Mekorot-Vilna-Bold.ufo
<glyph name="ampersand" format="2">
  <advance width="833"/>
  <unicode hex="0026"/>
  <outline>
    <contour>
      <point x="559.5" y="436.5" type="line"/>
      <point x="800.5" y="436.5" type="line"/>
      <point x="800.5" y="379.053" type="line"/>
      <point x="784.621" y="377.575" type="line" smooth="yes"/>
      <point x="749.553" y="374.313"/>
      <point x="740.531" y="371.006"/>
      <point x="724.893" y="345.81" type="curve" smooth="yes"/>
      <point x="697.868" y="301.771" type="line" smooth="yes"/>
      <point x="672.055" y="260.66"/>
      <point x="660.283" y="243.359"/>
      <point x="611.912" y="176.433" type="curve"/>
      <point x="660.673" y="114.982"/>
      <point x="680.586" y="102.5"/>
      <point x="709" y="102.5" type="curve" smooth="yes"/>
      <point x="726.276" y="102.5"/>
      <point x="737.916" y="109.652"/>
      <point x="752.191" y="132.324" type="curve" smooth="yes"/>
      <point x="761.316" y="146.818" type="line"/>
      <point x="811.18" y="116.9" type="line"/>
      <point x="785.923" y="75.8584" type="line" smooth="yes"/>
      <point x="760.74" y="34.5596"/>
      <point x="746.241" y="15.6035"/>
      <point x="727.768" y="1.20898" type="curve" smooth="yes"/>
      <point x="707.357" y="-14.6953"/>
      <point x="665.4" y="-33.5"/>
      <point x="624" y="-33.5" type="curve" smooth="yes"/>
      <point x="568.481" y="-33.5"/>
      <point x="529.822" y="-11.9102"/>
      <point x="472.725" y="48.6904" type="curve"/>
      <point x="394.701" y="-6.98145"/>
      <point x="327.354" y="-32.5"/>
      <point x="253" y="-32.5" type="curve" smooth="yes"/>
      <point x="130.942" y="-32.5"/>
      <point x="44.5" y="48.2988"/>
      <point x="44.5" y="161" type="curve" smooth="yes"/>
      <point x="44.5" y="259.381"/>
      <point x="98.6836" y="325.904"/>
      <point x="233.641" y="395.353" type="curve"/>
      <point x="200.559" y="454.37"/>
      <point x="188.5" y="489.045"/>
      <point x="188.5" y="533" type="curve" smooth="yes"/>
      <point x="188.5" y="640.574"/>
      <point x="272.306" y="708.5"/>
      <point x="401" y="708.5" type="curve" smooth="yes"/>
      <point x="512.572" y="708.5"/>
      <point x="585.5" y="652.7"/>
      <point x="585.5" y="569" type="curve" smooth="yes"/>
      <point x="585.5" y="500.34"/>
      <point x="538.163" y="453.347"/>
      <point x="443.23" y="414.763" type="curve"/>
      <point x="567.823" y="238.187" type="line"/>
      <point x="613.789" y="297.11"/>
      <point x="625.73" y="323.486"/>
      <point x="625.5" y="354" type="curve" smooth="yes"/>
      <point x="625.39" y="368.632"/>
      <point x="625.672" y="368.081"/>
      <point x="614.479" y="371.175" type="curve" smooth="yes"/>
      <point x="606.8" y="373.297"/>
      <point x="594.583" y="375.291"/>
      <point x="574.938" y="377.622" type="curve" smooth="yes"/>
      <point x="559.5" y="379.453" type="line"/>
    </contour>
    <contour>
      <point x="308.449" y="276.277" type="curve" smooth="yes"/>
      <point x="269.736" y="334.348" type="line"/>
      <point x="230.353" y="309.34"/>
      <point x="218.5" y="290.592"/>
      <point x="218.5" y="264" type="curve" smooth="yes"/>
      <point x="218.5" y="218.363"/>
      <point x="244.29" y="158.299"/>
      <point x="285.634" y="115.109" type="curve" smooth="yes"/>
      <point x="302.299" y="97.7002"/>
      <point x="331.446" y="78.5"/>
      <point x="362" y="78.5" type="curve" smooth="yes"/>
      <point x="379.715" y="78.5"/>
      <point x="397.822" y="84.6631"/>
      <point x="427.048" y="104.015" type="curve"/>
      <point x="399.804" y="140.518"/>
      <point x="374.65" y="177.418"/>
    </contour>
    <contour>
      <point x="402.852" y="472.782" type="curve"/>
      <point x="435.954" y="486"/>
      <point x="449.5" y="502.151"/>
      <point x="449.5" y="533" type="curve" smooth="yes"/>
      <point x="449.5" y="587.35"/>
      <point x="415.669" y="640.5"/>
      <point x="375" y="640.5" type="curve" smooth="yes"/>
      <point x="347.4" y="640.5"/>
      <point x="340.5" y="620.85"/>
      <point x="340.5" y="602" type="curve" smooth="yes"/>
      <point x="340.5" y="569.355"/>
      <point x="356.503" y="532.18"/>
    </contour>
  </outline>
</glyph>
<glyph name="quotesingle" format="2">
  <advance width="278"/>
  <unicode hex="0027"/>
  <outline>
    <contour>
      <point x="173.943" y="386.5" type="line"/>
      <point x="105.178" y="386.5" type="line"/>
      <point x="101.976" y="399.946" type="line" smooth="yes"/>
      <point x="98.2266" y="415.694"/>
      <point x="93.1221" y="438.635"/>
      <point x="90.8281" y="448.523" type="curve" smooth="yes"/>
      <point x="82.5938" y="484.025"/>
      <point x="57.5" y="585.809"/>
      <point x="57.5" y="620" type="curve" smooth="yes"/>
      <point x="57.5" y="671.062"/>
      <point x="90.0996" y="708.5"/>
      <point x="139" y="708.5" type="curve" smooth="yes"/>
      <point x="185.594" y="708.5"/>
      <point x="221.5" y="671.789"/>
      <point x="221.5" y="624" type="curve" smooth="yes"/>
      <point x="221.5" y="602.036"/>
      <point x="212.45" y="554.531"/>
      <point x="177.058" y="400.091" type="curve" smooth="yes"/>
    </contour>
  </outline>
</glyph>
<glyph name="comma" format="2">
  <advance width="250"/>
  <unicode hex="002C"/>
  <outline>
    <contour>
      <point x="49.6592" y="-204.449" type="line"/>
      <point x="23.5645" y="-152.261" type="line"/>
      <point x="36.0293" y="-143.618" type="line" smooth="yes"/>
      <point x="119.856" y="-85.4967"/>
      <point x="137.689" y="-49.5225"/>
      <point x="137.5" y="-26" type="curve" smooth="yes"/>
      <point x="137.487" y="-24.4004"/>
      <point x="137.275" y="-22.2979"/>
      <point x="136.339" y="-21.5293" type="curve"/>
      <point x="136.157" y="-21.4644" type="line"/>
      <point x="136.153" y="-21.4865"/>
      <point x="136.107" y="-21.5"/>
      <point x="136" y="-21.5" type="curve" smooth="yes"/>
      <point x="134.807" y="-21.5"/>
      <point x="134.796" y="-21.5146"/>
      <point x="134.534" y="-21.6016" type="curve" smooth="yes"/>
      <point x="133.231" y="-22.0361" type="line"/>
      <point x="131.877" y="-22.2617" type="line" smooth="yes"/>
      <point x="124.06" y="-23.5635"/>
      <point x="115.976" y="-23.5"/>
      <point x="112" y="-23.5" type="curve" smooth="yes"/>
      <point x="59.5908" y="-23.5"/>
      <point x="21.5" y="16.0264"/>
      <point x="21.5" y="72" type="curve" smooth="yes"/>
      <point x="21.5" y="131.044"/>
      <point x="61.7002" y="172.5"/>
      <point x="122" y="172.5" type="curve" smooth="yes"/>
      <point x="193.1" y="172.5"/>
      <point x="240.5" y="116.138"/>
      <point x="240.5" y="39" type="curve" smooth="yes"/>
      <point x="240.5" y="-54.6611"/>
      <point x="186.211" y="-125.579"/>
      <point x="65.7529" y="-195.154" type="curve" smooth="yes"/>
    </contour>
  </outline>
</glyph>
<glyph name="zero" format="2">
  <advance width="570"/>
  <unicode hex="0030"/>
  <outline>
    <contour>
      <point x="285" y="688" type="curve" smooth="yes"/>
      <point x="447.009" y="688"/>
      <point x="546" y="530.208"/>
      <point x="546" y="337.023" type="curve" smooth="yes"/>
      <point x="546" y="142.702"/>
      <point x="447.888" y="-13"/>
      <point x="286.347" y="-13" type="curve" smooth="yes"/>
      <point x="121.8" y="-13"/>
      <point x="24" y="138.432"/>
      <point x="24" y="339.881" type="curve" smooth="yes"/>
      <point x="24" y="419.116"/>
      <point x="46.1826" y="512.589"/>
      <point x="80.333" y="569.164" type="curve" smooth="yes"/>
      <point x="122.765" y="639.454"/>
      <point x="192.617" y="688"/>
    </contour>
    <contour>
      <point x="353" y="228.627" type="curve" smooth="yes"/>
      <point x="353" y="444.487" type="line" smooth="yes"/>
      <point x="353" y="592.601"/>
      <point x="321.656" y="625"/>
      <point x="283.653" y="625" type="curve" smooth="yes"/>
      <point x="246.569" y="625"/>
      <point x="217" y="595.612"/>
      <point x="217" y="444.487" type="curve" smooth="yes"/>
      <point x="217" y="228.627" type="line" smooth="yes"/>
      <point x="217" y="81.2305"/>
      <point x="246.11" y="50"/>
      <point x="286.347" y="50" type="curve" smooth="yes"/>
      <point x="306.312" y="50"/>
      <point x="320.324" y="57.6826"/>
      <point x="331.479" y="79.5703" type="curve" smooth="yes"/>
      <point x="342.032" y="100.273"/>
      <point x="353" y="167.613"/>
    </contour>
  </outline>
</glyph>
<glyph name="two" format="2">
  <advance width="570"/>
  <unicode hex="0032"/>
  <outline>
    <contour>
      <point x="552.126" y="211" type="line"/>
      <point x="499.661" y="-35" type="line"/>
      <point x="17" y="-35" type="line"/>
      <point x="17" y="12.4121" type="line"/>
      <point x="21.7227" y="17.458" type="line" smooth="yes"/>
      <point x="168.977" y="173.592"/>
      <point x="208.162" y="213.999"/>
      <point x="274.727" y="291.073" type="curve" smooth="yes"/>
      <point x="323.167" y="350.286"/>
      <point x="335" y="401.813"/>
      <point x="335" y="429.5" type="curve" smooth="yes"/>
      <point x="335" y="448.523"/>
      <point x="326.398" y="474.679"/>
      <point x="313.014" y="492.596" type="curve" smooth="yes"/>
      <point x="289.234" y="524.435"/>
      <point x="254.022" y="539"/>
      <point x="207.942" y="539" type="curve" smooth="yes"/>
      <point x="151.371" y="539"/>
      <point x="120.086" y="514.54"/>
      <point x="92.1523" y="458.674" type="curve" smooth="yes"/>
      <point x="87.3154" y="449" type="line"/>
      <point x="23.2871" y="449" type="line"/>
      <point x="32.1055" y="472.621" type="line" smooth="yes"/>
      <point x="60.3193" y="548.195"/>
      <point x="82.6807" y="585.869"/>
      <point x="123.039" y="626.787" type="curve" smooth="yes"/>
      <point x="161.812" y="665.932"/>
      <point x="227.138" y="688"/>
      <point x="295.568" y="688" type="curve" smooth="yes"/>
      <point x="421.926" y="688"/>
      <point x="506" y="603.334"/>
      <point x="506" y="487.5" type="curve" smooth="yes"/>
      <point x="506" y="405.672"/>
      <point x="468.237" y="334.36"/>
      <point x="386.553" y="256.812" type="curve" smooth="yes"/>
      <point x="231.259" y="133" type="line"/>
      <point x="356.137" y="133" type="line" smooth="yes"/>
      <point x="462.162" y="133"/>
      <point x="465.44" y="138.399"/>
      <point x="490.268" y="200.038" type="curve" smooth="yes"/>
      <point x="494.683" y="211" type="line"/>
    </contour>
  </outline>
</glyph>
<glyph name="three" format="2">
  <advance width="570"/>
  <unicode hex="0033"/>
  <outline>
    <contour>
      <point x="81.4453" y="481.947" type="line"/>
      <point x="31.0527" y="510.742" type="line"/>
      <point x="39.0625" y="525.743" type="line" smooth="yes"/>
      <point x="101.26" y="642.222"/>
      <point x="190.367" y="688"/>
      <point x="305.781" y="688" type="curve" smooth="yes"/>
      <point x="430.777" y="688"/>
      <point x="499" y="632.002"/>
      <point x="499" y="540.837" type="curve" smooth="yes"/>
      <point x="499" y="488.699"/>
      <point x="483.966" y="456.581"/>
      <point x="433.861" y="422.114" type="curve"/>
      <point x="454.893" y="411.389"/>
      <point x="471.529" y="399.854"/>
      <point x="489.822" y="379.239" type="curve" smooth="yes"/>
      <point x="521.812" y="343.189"/>
      <point x="538" y="297.753"/>
      <point x="538" y="250.321" type="curve" smooth="yes"/>
      <point x="538" y="100.448"/>
      <point x="396.156" y="-14"/>
      <point x="191.281" y="-14" type="curve" smooth="yes"/>
      <point x="84.2002" y="-14"/>
      <point x="16" y="29"/>
      <point x="16" y="93.5" type="curve" smooth="yes"/>
      <point x="16" y="137.707"/>
      <point x="51.374" y="169"/>
      <point x="98.5" y="169" type="curve" smooth="yes"/>
      <point x="135.357" y="169"/>
      <point x="171.02" y="148.861"/>
      <point x="218.759" y="108.969" type="curve" smooth="yes"/>
      <point x="256.997" y="77.0156"/>
      <point x="273.218" y="71"/>
      <point x="293.977" y="71" type="curve" smooth="yes"/>
      <point x="352.546" y="71"/>
      <point x="389" y="106.754"/>
      <point x="389" y="164.938" type="curve" smooth="yes"/>
      <point x="389" y="205.763"/>
      <point x="369.272" y="243.518"/>
      <point x="337.669" y="267.053" type="curve" smooth="yes"/>
      <point x="297.579" y="296.908"/>
      <point x="263.359" y="311.253"/>
      <point x="165.58" y="338.306" type="curve" smooth="yes"/>
      <point x="153" y="342.136" type="line"/>
      <point x="153" y="381.625" type="line"/>
      <point x="166.174" y="385.235" type="line" smooth="yes"/>
      <point x="268.868" y="410.915"/>
      <point x="305.191" y="437.881"/>
      <point x="305.191" y="492.083" type="curve" smooth="yes"/>
      <point x="305.191" y="539.878"/>
      <point x="270.412" y="572"/>
      <point x="205.446" y="572" type="curve" smooth="yes"/>
      <point x="155.241" y="572"/>
      <point x="126.749" y="554.67"/>
      <point x="90.3535" y="496.247" type="curve" smooth="yes"/>
    </contour>
  </outline>
</glyph>
<glyph name="nine" format="2">
  <advance width="570"/>
  <unicode hex="0039"/>
  <outline>
    <contour>
      <point x="340.292" y="320.719" type="curve"/>
      <point x="340.505" y="322.026"/>
      <point x="340.757" y="324.098"/>
      <point x="341.419" y="328.969" type="curve" smooth="yes"/>
      <point x="345.42" y="353.493" type="line" smooth="yes"/>
      <point x="349.427" y="396.056"/>
      <point x="352" y="425.7"/>
      <point x="352" y="450.428" type="curve" smooth="yes"/>
      <point x="352" y="522.83"/>
      <point x="336.009" y="582.298"/>
      <point x="321.117" y="602.899" type="curve" smooth="yes"/>
      <point x="310.807" y="617.162"/>
      <point x="297.454" y="626"/>
      <point x="271.139" y="626" type="curve" smooth="yes"/>
      <point x="229.448" y="626"/>
      <point x="213" y="615.902"/>
      <point x="213" y="504.377" type="curve" smooth="yes"/>
      <point x="213" y="345.291"/>
      <point x="249.087" y="316.5"/>
      <point x="303.216" y="316.5" type="curve" smooth="yes"/>
      <point x="315.652" y="316.5"/>
      <point x="332.124" y="318.791"/>
    </contour>
    <contour>
      <point x="50.9746" y="-12.8242" type="curve" smooth="yes"/>
      <point x="31" y="-15.6777" type="line"/>
      <point x="31" y="40.9004" type="line"/>
      <point x="45.0449" y="43.5459" type="line" smooth="yes"/>
      <point x="172.622" y="67.627"/>
      <point x="257.231" y="128.913"/>
      <point x="314.463" y="243.629" type="curve"/>
      <point x="289.02" y="238.561"/>
      <point x="261.673" y="236.5"/>
      <point x="229.707" y="236.5" type="curve" smooth="yes"/>
      <point x="107.078" y="236.5"/>
      <point x="26" y="320.984"/>
      <point x="26" y="443.959" type="curve" smooth="yes"/>
      <point x="26" y="584.586"/>
      <point x="123.478" y="688"/>
      <point x="273.812" y="688" type="curve" smooth="yes"/>
      <point x="443.2" y="688"/>
      <point x="543" y="573.117"/>
      <point x="543" y="398.937" type="curve" smooth="yes"/>
      <point x="543" y="273.198"/>
      <point x="486.697" y="166.176"/>
      <point x="380.051" y="89.4316" type="curve" smooth="yes"/>
      <point x="282.226" y="31.6777"/>
      <point x="195.503" y="6.84082"/>
    </contour>
  </outline>
</glyph>
<glyph name="equal" format="2">
  <advance width="570"/>
  <unicode hex="003D"/>
  <outline>
    <contour>
      <point x="554.5" y="416.5" type="line"/>
      <point x="554.5" y="293.5" type="line"/>
      <point x="15.5" y="293.5" type="line"/>
      <point x="15.5" y="416.5" type="line"/>
    </contour>
    <contour>
      <point x="554.5" y="212.5" type="line"/>
      <point x="554.5" y="89.5" type="line"/>
      <point x="15.5" y="89.5" type="line"/>
      <point x="15.5" y="212.5" type="line"/>
    </contour>
  </outline>
</glyph>
<glyph name="at" format="2">
  <advance width="930"/>
  <unicode hex="0040"/>
  <outline>
    <contour>
      <point x="588.609" y="508.762" type="curve"/>
      <point x="592.663" y="523.5" type="line"/>
      <point x="699.497" y="523.5" type="line"/>
      <point x="628.062" y="242.131" type="line" smooth="yes"/>
      <point x="627.773" y="240.694"/>
      <point x="626.381" y="233.826"/>
      <point x="626.5" y="228" type="curve" smooth="yes"/>
      <point x="626.616" y="222.347"/>
      <point x="626.646" y="215.503"/>
      <point x="629.539" y="208.292" type="curve" smooth="yes"/>
      <point x="631.775" y="202.716"/>
      <point x="635.034" y="198.862"/>
      <point x="642.635" y="197.787" type="curve" smooth="yes"/>
      <point x="643.499" y="197.665"/>
      <point x="642.437" y="197.5"/>
      <point x="647" y="197.5" type="curve" smooth="yes"/>
      <point x="698.524" y="197.5"/>
      <point x="757.5" y="283.464"/>
      <point x="757.5" y="385" type="curve" smooth="yes"/>
      <point x="757.5" y="517.883"/>
      <point x="633.762" y="634.5"/>
      <point x="486" y="634.5" type="curve" smooth="yes"/>
      <point x="330.579" y="634.5"/>
      <point x="217.5" y="506.16"/>
      <point x="217.5" y="325" type="curve" smooth="yes"/>
      <point x="217.5" y="159.712"/>
      <point x="334.399" y="44.5"/>
      <point x="499" y="44.5" type="curve" smooth="yes"/>
      <point x="563.773" y="44.5"/>
      <point x="609.711" y="55.3613"/>
      <point x="690.803" y="91.9512" type="curve" smooth="yes"/>
      <point x="707.881" y="99.6572" type="line"/>
      <point x="732.989" y="32.0596" type="line"/>
      <point x="718.498" y="25.1875" type="line" smooth="yes"/>
      <point x="620.841" y="-21.124"/>
      <point x="563.432" y="-36.5"/>
      <point x="487" y="-36.5" type="curve" smooth="yes"/>
      <point x="265.11" y="-36.5"/>
      <point x="90.5" y="123.539"/>
      <point x="90.5" y="330" type="curve" smooth="yes"/>
      <point x="90.5" y="541.083"/>
      <point x="266.051" y="708.5"/>
      <point x="485" y="708.5" type="curve" smooth="yes"/>
      <point x="683.86" y="708.5"/>
      <point x="839.5" y="570.815"/>
      <point x="839.5" y="390" type="curve" smooth="yes"/>
      <point x="839.5" y="244.867"/>
      <point x="743.215" y="125.5"/>
      <point x="633" y="125.5" type="curve" smooth="yes"/>
      <point x="587.255" y="125.5"/>
      <point x="549.928" y="147.8"/>
      <point x="531.936" y="183.259" type="curve"/>
      <point x="497.682" y="148.758"/>
      <point x="454.624" y="126.5"/>
      <point x="413" y="126.5" type="curve" smooth="yes"/>
      <point x="347.933" y="126.5"/>
      <point x="301.5" y="187.145"/>
      <point x="301.5" y="259" type="curve" smooth="yes"/>
      <point x="301.5" y="338.018"/>
      <point x="334.813" y="420.922"/>
      <point x="390.36" y="479.103" type="curve" smooth="yes"/>
      <point x="425.178" y="515.571"/>
      <point x="472.928" y="536.5"/>
      <point x="522" y="536.5" type="curve" smooth="yes"/>
      <point x="550.752" y="536.5"/>
      <point x="570.248" y="530.757"/>
    </contour>
    <contour>
      <point x="533.7" y="453.549" type="curve" smooth="yes"/>
      <point x="533.281" y="453.578"/>
      <point x="531.924" y="453.637"/>
      <point x="531.503" y="453.637" type="curve" smooth="yes"/>
      <point x="516.03" y="453.637"/>
      <point x="488.5" y="439.8"/>
      <point x="461.192" y="408.505" type="curve" smooth="yes"/>
      <point x="430.796" y="373.669"/>
      <point x="413.5" y="327.146"/>
      <point x="413.5" y="277" type="curve" smooth="yes"/>
      <point x="413.5" y="248.562"/>
      <point x="421.8" y="208.5"/>
      <point x="455" y="208.5" type="curve" smooth="yes"/>
      <point x="474.603" y="208.5"/>
      <point x="500.095" y="225.314"/>
      <point x="521.423" y="266.975" type="curve" smooth="yes"/>
      <point x="547.269" y="317.46"/>
      <point x="558.252" y="378.595"/>
      <point x="559.521" y="406.837" type="curve" smooth="yes"/>
      <point x="559.609" y="408.832"/>
      <point x="559.677" y="410.923"/>
      <point x="559.677" y="412.76" type="curve" smooth="yes"/>
      <point x="559.677" y="445.076"/>
      <point x="546.428" y="452.666"/>
    </contour>
  </outline>
</glyph>
<glyph name="F" format="2">
  <advance width="681"/>
  <unicode hex="0046"/>
  <outline>
    <contour>
      <point x="653" y="676" type="line"/>
      <point x="653" y="440" type="line"/>
      <point x="597.462" y="440" type="line"/>
      <point x="594.417" y="453.704" type="line" smooth="yes"/>
      <point x="580.491" y="516.37"/>
      <point x="570.815" y="538.929"/>
      <point x="551.381" y="560.918" type="curve" smooth="yes"/>
      <point x="512.574" y="604.826"/>
      <point x="406.328" y="607.236"/>
      <point x="356.908" y="607" type="curve" smooth="yes"/>
      <point x="330.529" y="606.874"/>
      <point x="322.737" y="605.663"/>
      <point x="314.886" y="603.551" type="curve" smooth="yes"/>
      <point x="306.179" y="601.207"/>
      <point x="303.474" y="597.962"/>
      <point x="301.962" y="589.994" type="curve" smooth="yes"/>
      <point x="301.494" y="587.532"/>
      <point x="301" y="583.654"/>
      <point x="301" y="577.501" type="curve" smooth="yes"/>
      <point x="301" y="363.409" type="line"/>
      <point x="392.902" y="367.168"/>
      <point x="424.336" y="398.232"/>
      <point x="443.13" y="497.232" type="curve" smooth="yes"/>
      <point x="445.934" y="512.003" type="line"/>
      <point x="514" y="512.003" type="line"/>
      <point x="514" y="139.014" type="line"/>
      <point x="445.26" y="139.014" type="line"/>
      <point x="443.024" y="154.416" type="line" smooth="yes"/>
      <point x="428.209" y="256.511"/>
      <point x="393.646" y="287.979"/>
      <point x="301" y="293.255" type="curve"/>
      <point x="301" y="78.5146" type="line" smooth="yes"/>
      <point x="301" y="38.1914"/>
      <point x="308.329" y="28.79"/>
      <point x="413.127" y="25" type="curve" smooth="yes"/>
      <point x="433.254" y="25" type="line"/>
      <point x="433.254" y="0" type="line"/>
      <point x="16" y="0" type="line"/>
      <point x="16" y="25" type="line"/>
      <point x="31.6191" y="25" type="line" smooth="yes"/>
      <point x="98.3418" y="32.6396"/>
      <point x="104" y="39.4395"/>
      <point x="104" y="81.7637" type="curve" smooth="yes"/>
      <point x="104" y="594.313" type="line" smooth="yes"/>
      <point x="104" y="635.673"/>
      <point x="95.1846" y="647.15"/>
      <point x="32.4873" y="651" type="curve" smooth="yes"/>
      <point x="16" y="651" type="line"/>
      <point x="16" y="676" type="line"/>
    </contour>
  </outline>
</glyph>
<glyph name="G" format="2">
  <advance width="848"/>
  <unicode hex="0047"/>
  <outline>
    <contour>
      <point x="825" y="304.5" type="line"/>
      <point x="825" y="246.268" type="line"/>
      <point x="809.356" y="244.599" type="line" smooth="yes"/>
      <point x="745.556" y="238.217"/>
      <point x="739" y="233.846"/>
      <point x="739" y="174.645" type="curve" smooth="yes"/>
      <point x="739" y="46.209" type="line"/>
      <point x="730.435" y="41.4395" type="line" smooth="yes"/>
      <point x="661.964" y="3.31641"/>
      <point x="547.799" y="-19"/>
      <point x="431.911" y="-19" type="curve" smooth="yes"/>
      <point x="189.864" y="-19"/>
      <point x="37" y="126.575"/>
      <point x="37" y="331.235" type="curve" smooth="yes"/>
      <point x="37" y="536.863"/>
      <point x="194.008" y="691"/>
      <point x="422.85" y="691" type="curve" smooth="yes"/>
      <point x="480.327" y="691"/>
      <point x="538.193" y="679.572"/>
      <point x="599.418" y="654.57" type="curve" smooth="yes"/>
      <point x="614.348" y="648.357"/>
      <point x="630.75" y="641.835"/>
      <point x="638.5" y="642" type="curve" smooth="yes"/>
      <point x="643.244" y="642.101"/>
      <point x="646.067" y="642.099"/>
      <point x="650.926" y="647.79" type="curve" smooth="yes"/>
      <point x="652.655" y="649.815"/>
      <point x="657.852" y="655.999"/>
      <point x="666.252" y="676.999" type="curve" smooth="yes"/>
      <point x="670.652" y="688" type="line"/>
      <point x="727" y="688" type="line"/>
      <point x="727" y="419" type="line"/>
      <point x="673.293" y="419" type="line"/>
      <point x="668.604" y="429.18" type="line" smooth="yes"/>
      <point x="633.834" y="504.683"/>
      <point x="613.438" y="535.063"/>
      <point x="571.986" y="571.321" type="curve" smooth="yes"/>
      <point x="537.444" y="600.455"/>
      <point x="492.645" y="623"/>
      <point x="437.574" y="623" type="curve" smooth="yes"/>
      <point x="286.715" y="623"/>
      <point x="249" y="480.007"/>
      <point x="249" y="337.885" type="curve" smooth="yes"/>
      <point x="249" y="226.548"/>
      <point x="273.255" y="149.417"/>
      <point x="318.451" y="101.059" type="curve" smooth="yes"/>
      <point x="352.701" y="64.4141"/>
      <point x="394.853" y="49"/>
      <point x="459.093" y="49" type="curve" smooth="yes"/>
      <point x="534.147" y="49"/>
      <point x="548" y="69.377"/>
      <point x="548" y="99.9404" type="curve" smooth="yes"/>
      <point x="548" y="196.315" type="line" smooth="yes"/>
      <point x="548" y="233.333"/>
      <point x="542.52" y="240.278"/>
      <point x="452.28" y="244.529" type="curve" smooth="yes"/>
      <point x="433.61" y="245.488" type="line"/>
      <point x="433.61" y="304.5" type="line"/>
    </contour>
  </outline>
</glyph>
<glyph name="H" format="2">
  <advance width="848"/>
  <unicode hex="0048"/>
  <outline>
    <contour>
      <point x="544" y="308.5" type="line"/>
      <point x="303" y="308.5" type="line"/>
      <point x="303" y="82.1084" type="line" smooth="yes"/>
      <point x="303" y="43.2637"/>
      <point x="311.596" y="32.8301"/>
      <point x="390.048" y="25" type="curve" smooth="yes"/>
      <point x="408.291" y="25" type="line"/>
      <point x="408.291" y="0" type="line"/>
      <point x="21" y="0" type="line"/>
      <point x="21" y="25" type="line"/>
      <point x="36.2686" y="25" type="line" smooth="yes"/>
      <point x="99.4092" y="33.5957"/>
      <point x="106" y="42.3135"/>
      <point x="106" y="81.7988" type="curve" smooth="yes"/>
      <point x="106" y="594.278" type="line" smooth="yes"/>
      <point x="106" y="634.24"/>
      <point x="97.4082" y="645.267"/>
      <point x="36.9395" y="651" type="curve" smooth="yes"/>
      <point x="21" y="651" type="line"/>
      <point x="21" y="676" type="line"/>
      <point x="408.291" y="676" type="line"/>
      <point x="408.291" y="651" type="line"/>
      <point x="389.277" y="651" type="line" smooth="yes"/>
      <point x="313.99" y="646.073"/>
      <point x="303" y="633.173"/>
      <point x="303" y="593.609" type="curve" smooth="yes"/>
      <point x="303" y="390.5" type="line"/>
      <point x="544" y="390.5" type="line"/>
      <point x="544" y="593.609" type="line" smooth="yes"/>
      <point x="544" y="633.107"/>
      <point x="533.108" y="646.065"/>
      <point x="457.723" y="651" type="curve" smooth="yes"/>
      <point x="438.709" y="651" type="line"/>
      <point x="438.709" y="676" type="line"/>
      <point x="829" y="676" type="line"/>
      <point x="829" y="651" type="line"/>
      <point x="812.783" y="651" type="line" smooth="yes"/>
      <point x="750.78" y="646.173"/>
      <point x="741" y="633.725"/>
      <point x="741" y="594.3" type="curve" smooth="yes"/>
      <point x="741" y="81.7939" type="line" smooth="yes"/>
      <point x="741" y="42.9863"/>
      <point x="747.696" y="33.7314"/>
      <point x="813.671" y="25" type="curve" smooth="yes"/>
      <point x="829" y="25" type="line"/>
      <point x="829" y="0" type="line"/>
      <point x="438.709" y="0" type="line"/>
      <point x="438.709" y="25" type="line"/>
      <point x="456.952" y="25" type="line" smooth="yes"/>
      <point x="535.306" y="32.8193"/>
      <point x="544" y="43.1963"/>
      <point x="544" y="82.1084" type="curve" smooth="yes"/>
    </contour>
  </outline>
</glyph>
<glyph name="J" format="2">
  <advance width="570"/>
  <unicode hex="004A"/>
  <outline>
    <contour>
      <point x="460" y="576.465" type="curve" smooth="yes"/>
      <point x="460" y="140.487" type="line" smooth="yes"/>
      <point x="460" y="-14.7168"/>
      <point x="375.487" y="-96"/>
      <point x="202.809" y="-96" type="curve" smooth="yes"/>
      <point x="170.641" y="-96"/>
      <point x="118.094" y="-92.8877"/>
      <point x="78.9072" y="-70.7412" type="curve" smooth="yes"/>
      <point x="35.4697" y="-46.1934"/>
      <point x="3" y="4.58984"/>
      <point x="3" y="53.5" type="curve" smooth="yes"/>
      <point x="3" y="99.3213"/>
      <point x="42.71" y="143"/>
      <point x="90.5" y="143" type="curve" smooth="yes"/>
      <point x="140.092" y="143"/>
      <point x="181" y="99.2295"/>
      <point x="181" y="50.5" type="curve" smooth="yes"/>
      <point x="181" y="32.9941"/>
      <point x="177.958" y="21.4102"/>
      <point x="162.333" y="1.78418" type="curve" smooth="yes"/>
      <point x="161.578" y="0.835938"/>
      <point x="158.034" y="-3.77637"/>
      <point x="155.71" y="-7.9873" type="curve" smooth="yes"/>
      <point x="154.2" y="-10.7236"/>
      <point x="153.909" y="-11.9023"/>
      <point x="154" y="-13.5" type="curve" smooth="yes"/>
      <point x="154.113" y="-15.5029"/>
      <point x="153.764" y="-21.2959"/>
      <point x="164.939" y="-25.4072" type="curve" smooth="yes"/>
      <point x="171.11" y="-27.6777"/>
      <point x="177.744" y="-28"/>
      <point x="181.872" y="-28" type="curve" smooth="yes"/>
      <point x="230.55" y="-28"/>
      <point x="263" y="-18.75"/>
      <point x="263" y="41.499" type="curve" smooth="yes"/>
      <point x="263" y="597.489" type="line" smooth="yes"/>
      <point x="263" y="637.04"/>
      <point x="249.034" y="648.18"/>
      <point x="143.853" y="651" type="curve" smooth="yes"/>
      <point x="127" y="651" type="line"/>
      <point x="127" y="676" type="line"/>
      <point x="549" y="676" type="line"/>
      <point x="549" y="651" type="line"/>
      <point x="532.664" y="651" type="line" smooth="yes"/>
      <point x="468.65" y="646.732"/>
      <point x="460" y="639.067"/>
    </contour>
  </outline>
</glyph>
<glyph name="K" format="2">
  <advance width="848"/>
  <unicode hex="004B"/>
  <outline>
    <contour>
      <point x="822.199" y="25" type="curve" smooth="yes"/>
      <point x="839" y="25" type="line"/>
      <point x="839" y="0" type="line"/>
      <point x="464.316" y="0" type="line"/>
      <point x="464.316" y="24.5166" type="line"/>
      <point x="484.253" y="25" type="line" smooth="yes"/>
      <point x="498.975" y="26.0508"/>
      <point x="511.902" y="25.6943"/>
      <point x="516.971" y="26.0293" type="curve" smooth="yes"/>
      <point x="541.209" y="27.6309"/>
      <point x="544.995" y="29.6318"/>
      <point x="546.829" y="30.7861" type="curve"/>
      <point x="546.665" y="31.8027"/>
      <point x="546.3" y="33.1035"/>
      <point x="545.438" y="34.9727" type="curve" smooth="yes"/>
      <point x="542.751" y="40.7969"/>
      <point x="536.878" y="48.9258"/>
      <point x="526.812" y="61.6406" type="curve" smooth="yes"/>
      <point x="323.602" y="273.938" type="line"/>
      <point x="314" y="266.898" type="line"/>
      <point x="314" y="78.5449" type="line" smooth="yes"/>
      <point x="314" y="41.958"/>
      <point x="322.46" y="33.2363"/>
      <point x="405.795" y="25" type="curve" smooth="yes"/>
      <point x="425.158" y="24.1992" type="line"/>
      <point x="425.158" y="0" type="line"/>
      <point x="30" y="0" type="line"/>
      <point x="30" y="24.2783" type="line"/>
      <point x="45.5674" y="25" type="line" smooth="yes"/>
      <point x="110.628" y="32.6562"/>
      <point x="117" y="40.5254"/>
      <point x="117" y="81.7686" type="curve" smooth="yes"/>
      <point x="117" y="594.313" type="line" smooth="yes"/>
      <point x="117" y="635.978"/>
      <point x="108.737" y="647.178"/>
      <point x="46.4873" y="651" type="curve" smooth="yes"/>
      <point x="30" y="651.398" type="line"/>
      <point x="30" y="676" type="line"/>
      <point x="426.421" y="676" type="line"/>
      <point x="426.421" y="651.46" type="line"/>
      <point x="405.806" y="651" type="line" smooth="yes"/>
      <point x="326.088" y="646.736"/>
      <point x="314" y="638.184"/>
      <point x="314" y="576.47" type="curve" smooth="yes"/>
      <point x="314" y="404.856" type="line"/>
      <point x="536.111" y="592.83" type="line" smooth="yes"/>
      <point x="551.416" y="608.29"/>
      <point x="561.098" y="618.24"/>
      <point x="565.021" y="625.794" type="curve" smooth="yes"/>
      <point x="566.222" y="628.104"/>
      <point x="566.618" y="629.954"/>
      <point x="566.796" y="631.409" type="curve" smooth="yes"/>
      <point x="566.925" y="632.469"/>
      <point x="567.092" y="633.785"/>
      <point x="567" y="635.47" type="curve" smooth="yes"/>
      <point x="566.745" y="640.137"/>
      <point x="567.919" y="642.643"/>
      <point x="555.456" y="645.468" type="curve" smooth="yes"/>
      <point x="550.395" y="646.615"/>
      <point x="543.382" y="647.505"/>
      <point x="534.529" y="647.997" type="curve" smooth="yes"/>
      <point x="533.288" y="648.065" type="line"/>
      <point x="532.068" y="648.31" type="line" smooth="yes"/>
      <point x="529.798" y="648.764"/>
      <point x="518.448" y="649.825"/>
      <point x="498.473" y="651" type="curve" smooth="yes"/>
      <point x="482" y="651.404" type="line"/>
      <point x="482" y="676" type="line"/>
      <point x="806" y="676" type="line"/>
      <point x="806" y="651.553" type="line"/>
      <point x="789.938" y="651" type="line" smooth="yes"/>
      <point x="699.902" y="643.136"/>
      <point x="666.47" y="619.394"/>
      <point x="490.848" y="427.927" type="curve"/>
      <point x="785.922" y="40.6104" type="line" smooth="yes"/>
      <point x="795.145" y="29.3398"/>
      <point x="799.99" y="25.9404"/>
    </contour>
  </outline>
</glyph>
<glyph name="L" format="2">
  <advance width="737"/>
  <unicode hex="004C"/>
  <outline>
    <contour>
      <point x="711.444" y="261.992" type="line"/>
      <point x="664.122" y="0" type="line"/>
      <point x="19" y="0" type="line"/>
      <point x="19" y="25" type="line"/>
      <point x="34.3584" y="25" type="line" smooth="yes"/>
      <point x="99.749" y="33.5381"/>
      <point x="105" y="40.0381"/>
      <point x="105" y="81.792" type="curve" smooth="yes"/>
      <point x="105" y="594.315" type="line" smooth="yes"/>
      <point x="105" y="635.252"/>
      <point x="96.4414" y="647.202"/>
      <point x="35.4727" y="651" type="curve" smooth="yes"/>
      <point x="19" y="651" type="line"/>
      <point x="19" y="676" type="line"/>
      <point x="418.34" y="676" type="line"/>
      <point x="418.34" y="651" type="line"/>
      <point x="399.108" y="651" type="line" smooth="yes"/>
      <point x="310.556" y="647.466"/>
      <point x="302" y="640.367"/>
      <point x="302" y="576.483" type="curve" smooth="yes"/>
      <point x="302" y="104.497" type="line" smooth="yes"/>
      <point x="302.54" y="88.5547"/>
      <point x="304.654" y="83.5586"/>
      <point x="307.6" y="79.6064" type="curve" smooth="yes"/>
      <point x="308.749" y="78.0645"/>
      <point x="310.015" y="76.833"/>
      <point x="311.722" y="75.627" type="curve" smooth="yes"/>
      <point x="320.3" y="69.5654"/>
      <point x="337.363" y="65.998"/>
      <point x="373.993" y="65.998" type="curve" smooth="yes"/>
      <point x="459.781" y="65.998"/>
      <point x="518.339" y="82.9277"/>
      <point x="560.866" y="116.451" type="curve" smooth="yes"/>
      <point x="594.827" y="146.499"/>
      <point x="612.541" y="173.687"/>
      <point x="645.383" y="251.312" type="curve" smooth="yes"/>
      <point x="649.902" y="261.992" type="line"/>
    </contour>
  </outline>
</glyph>
<glyph name="P" format="2">
  <advance width="681"/>
  <unicode hex="0050"/>
  <outline>
    <contour>
      <point x="297" y="268.233" type="curve"/>
      <point x="297" y="99.623" type="line" smooth="yes"/>
      <point x="297" y="35.6445"/>
      <point x="303.201" y="33.5811"/>
      <point x="389.12" y="25" type="curve" smooth="yes"/>
      <point x="408.511" y="25" type="line"/>
      <point x="408.511" y="0" type="line"/>
      <point x="16" y="0" type="line"/>
      <point x="16" y="25" type="line"/>
      <point x="30.3691" y="25" type="line" smooth="yes"/>
      <point x="41.126" y="27.0703"/>
      <point x="50.4434" y="28.7744"/>
      <point x="56.0039" y="29.4824" type="curve" smooth="yes"/>
      <point x="89.2812" y="33.7197"/>
      <point x="100" y="43.3662"/>
      <point x="100" y="104.165" type="curve" smooth="yes"/>
      <point x="100" y="572.066" type="line" smooth="yes"/>
      <point x="100" y="637.175"/>
      <point x="90.7461" y="645.671"/>
      <point x="32.0059" y="651" type="curve" smooth="yes"/>
      <point x="16" y="651" type="line"/>
      <point x="16" y="676" type="line"/>
      <point x="371.13" y="676" type="line" smooth="yes"/>
      <point x="565.208" y="676"/>
      <point x="670" y="604.545"/>
      <point x="670" y="476.543" type="curve" smooth="yes"/>
      <point x="670" y="392.539"/>
      <point x="621.958" y="325.775"/>
      <point x="533.94" y="291.312" type="curve" smooth="yes"/>
      <point x="488.471" y="273.507"/>
      <point x="449.712" y="269.379"/>
    </contour>
    <contour>
      <point x="297" y="588.5" type="curve" smooth="yes"/>
      <point x="297" y="338.169" type="line"/>
      <point x="370.158" y="339.347"/>
      <point x="401.24" y="346.273"/>
      <point x="422.578" y="360.775" type="curve" smooth="yes"/>
      <point x="448.616" y="378.471"/>
      <point x="463" y="410.207"/>
      <point x="463" y="471.5" type="curve" smooth="yes"/>
      <point x="463" y="586.103"/>
      <point x="413.073" y="606"/>
      <point x="338.183" y="606" type="curve" smooth="yes"/>
      <point x="325.417" y="606"/>
      <point x="315.812" y="604.629"/>
      <point x="309.692" y="602.784" type="curve" smooth="yes"/>
      <point x="295.743" y="598.479"/>
      <point x="297.261" y="591.156"/>
    </contour>
  </outline>
</glyph>
<glyph name="V" format="2">
  <advance width="792"/>
  <unicode hex="0056"/>
  <outline>
    <contour>
      <point x="771" y="676" type="line"/>
      <point x="771" y="651" type="line"/>
      <point x="755.835" y="651" type="line" smooth="yes"/>
      <point x="712.421" y="645.157"/>
      <point x="702.307" y="638.12"/>
      <point x="679.816" y="580.033" type="curve" smooth="yes"/>
      <point x="439.418" y="-18" type="line"/>
      <point x="383.498" y="-18" type="line"/>
      <point x="101.488" y="591.286" type="line" smooth="yes"/>
      <point x="79.3955" y="639.879"/>
      <point x="75.6484" y="644.762"/>
      <point x="31.0732" y="651" type="curve" smooth="yes"/>
      <point x="16" y="651" type="line"/>
      <point x="16" y="676" type="line"/>
      <point x="411.223" y="676" type="line"/>
      <point x="411.223" y="651" type="line"/>
      <point x="393.143" y="651" type="line" smooth="yes"/>
      <point x="380.149" y="636.711"/>
      <point x="363.301" y="617.824"/>
      <point x="355.843" y="614.012" type="curve" smooth="yes"/>
      <point x="351.104" y="613.879"/>
      <point x="338.587" y="613.309"/>
      <point x="327.895" y="609.891" type="curve" smooth="yes"/>
      <point x="320.687" y="607.587"/>
      <point x="316.046" y="605.598"/>
      <point x="316.046" y="595.5" type="curve" smooth="yes"/>
      <point x="316.046" y="584.899"/>
      <point x="318.812" y="575.595"/>
      <point x="340.003" y="530.245" type="curve" smooth="yes"/>
      <point x="474.248" y="236.664" type="line"/>
      <point x="590.2" y="524.868" type="line" smooth="yes"/>
      <point x="607.311" y="568.146"/>
      <point x="609.134" y="576.613"/>
      <point x="609" y="589.5" type="curve" smooth="yes"/>
      <point x="608.938" y="595.389"/>
      <point x="608.915" y="593.194"/>
      <point x="608.848" y="594.114" type="curve" smooth="yes"/>
      <point x="608.454" y="599.516"/>
      <point x="608.506" y="604.171"/>
      <point x="597.621" y="607.906" type="curve" smooth="yes"/>
      <point x="586.682" y="627.788"/>
      <point x="567.671" y="640.407"/>
      <point x="539.271" y="651" type="curve" smooth="yes"/>
      <point x="523" y="651" type="line"/>
      <point x="523" y="676" type="line"/>
    </contour>
  </outline>
</glyph>
<glyph name="W" format="2">
  <advance width="1070"/>
  <unicode hex="0057"/>
  <outline>
    <contour>
      <point x="1051" y="676" type="line"/>
      <point x="1051" y="651" type="line"/>
      <point x="1035.08" y="651" type="line" smooth="yes"/>
      <point x="1011.81" y="648.884"/>
      <point x="992.934" y="635.3"/>
      <point x="981.125" y="598.971" type="curve" smooth="yes"/>
      <point x="772.713" y="-15" type="line"/>
      <point x="716.738" y="-15" type="line"/>
      <point x="544.999" y="429.563" type="line"/>
      <point x="358.193" y="-15" type="line"/>
      <point x="305.109" y="-15" type="line"/>
      <point x="88.9805" y="598.563" type="line" smooth="yes"/>
      <point x="73.9893" y="641.762"/>
      <point x="68.9736" y="646.009"/>
      <point x="34.0254" y="651" type="curve" smooth="yes"/>
      <point x="19" y="651" type="line"/>
      <point x="19" y="676" type="line"/>
      <point x="348" y="676" type="line"/>
      <point x="348" y="651" type="line"/>
      <point x="331.842" y="651" type="line" smooth="yes"/>
      <point x="309.377" y="648.976"/>
      <point x="301.469" y="647.512"/>
      <point x="294.451" y="645.028" type="curve" smooth="yes"/>
      <point x="287.583" y="642.585"/>
      <point x="284.96" y="641.179"/>
      <point x="284.188" y="631.649" type="curve" smooth="yes"/>
      <point x="284.104" y="630.619"/>
      <point x="284" y="631.763"/>
      <point x="284" y="626.479" type="curve" smooth="yes"/>
      <point x="284" y="620.495"/>
      <point x="285.193" y="614.728"/>
      <point x="290.162" y="598.829" type="curve" smooth="yes"/>
      <point x="398.363" y="281.622" type="line"/>
      <point x="504.056" y="537.632" type="line"/>
      <point x="469.042" y="626.837" type="line" smooth="yes"/>
      <point x="460.766" y="643.595"/>
      <point x="446.002" y="649.278"/>
      <point x="407.966" y="651" type="curve" smooth="yes"/>
      <point x="390.027" y="651" type="line"/>
      <point x="390.027" y="676" type="line"/>
      <point x="763.956" y="676" type="line"/>
      <point x="763.956" y="651" type="line"/>
      <point x="748.198" y="651" type="line" smooth="yes"/>
      <point x="740.195" y="614.415"/>
      <point x="734.07" y="619.926"/>
      <point x="731.731" y="615.021" type="curve" smooth="yes"/>
      <point x="711.196" y="613.562"/>
      <point x="704.636" y="612.119"/>
      <point x="698.129" y="610.164" type="curve" smooth="yes"/>
      <point x="689.785" y="607.657"/>
      <point x="686.368" y="605.413"/>
      <point x="686.368" y="596.5" type="curve" smooth="yes"/>
      <point x="686.368" y="586.344"/>
      <point x="698.836" y="550.945"/>
      <point x="700.573" y="545.787" type="curve" smooth="yes"/>
      <point x="799.119" y="261.28" type="line"/>
      <point x="896.942" y="553.159" type="line" smooth="yes"/>
      <point x="901.105" y="564.818"/>
      <point x="903.158" y="578.285"/>
      <point x="903" y="589.5" type="curve" smooth="yes"/>
      <point x="902.91" y="595.897"/>
      <point x="902.769" y="595.275"/>
      <point x="902.573" y="596.7" type="curve" smooth="yes"/>
      <point x="901.283" y="606.125"/>
      <point x="896.021" y="607.964"/>
      <point x="892.916" y="609.271" type="curve" smooth="yes"/>
      <point x="885.23" y="629.246"/>
      <point x="872.129" y="643.588"/>
      <point x="850.529" y="651" type="curve" smooth="yes"/>
      <point x="834" y="651" type="line"/>
      <point x="834" y="676" type="line"/>
    </contour>
  </outline>
</glyph>
<glyph name="bracketleft" format="2">
  <advance width="333"/>
  <unicode hex="005B"/>
  <outline>
    <contour>
      <point x="318.5" y="-98.5" type="line"/>
      <point x="318.5" y="-166.5" type="line"/>
      <point x="49.5" y="-166.5" type="line"/>
      <point x="49.5" y="695.5" type="line"/>
      <point x="318.5" y="695.5" type="line"/>
      <point x="318.5" y="627.5" type="line"/>
      <point x="238" y="627.5" type="line" smooth="yes"/>
      <point x="217.377" y="627.196"/>
      <point x="208.104" y="625.976"/>
      <point x="201.623" y="623.241" type="curve" smooth="yes"/>
      <point x="197.807" y="621.631"/>
      <point x="194.891" y="619.581"/>
      <point x="192.634" y="613.656" type="curve" smooth="yes"/>
      <point x="189.957" y="606.63"/>
      <point x="188.5" y="594.44"/>
      <point x="188.5" y="575" type="curve" smooth="yes"/>
      <point x="188.5" y="-63" type="line" smooth="yes"/>
      <point x="188.791" y="-78.5127"/>
      <point x="189.182" y="-80.8477"/>
      <point x="190.039" y="-85.1738" type="curve" smooth="yes"/>
      <point x="191.755" y="-93.833"/>
      <point x="193.653" y="-95.7861"/>
      <point x="202.972" y="-97.3604" type="curve" smooth="yes"/>
      <point x="207.32" y="-98.0957"/>
      <point x="213.371" y="-98.5"/>
      <point x="221" y="-98.5" type="curve" smooth="yes"/>
    </contour>
  </outline>
</glyph>
<glyph name="backslash" format="2">
  <advance width="278"/>
  <unicode hex="005C"/>
  <outline>
    <contour>
      <point x="198.375" y="-36.5" type="line"/>
      <point x="-49.2588" y="708.5" type="line"/>
      <point x="80.6416" y="708.5" type="line"/>
      <point x="327.226" y="-36.5" type="line"/>
    </contour>
  </outline>
</glyph>
<glyph name="asciicircum" format="2">
  <advance width="581"/>
  <unicode hex="005E"/>
  <outline>
    <contour>
      <point x="173.068" y="293.5" type="line"/>
      <point x="44.9961" y="293.5" type="line"/>
      <point x="240.064" y="693.5" type="line"/>
      <point x="341.936" y="693.5" type="line"/>
      <point x="537.004" y="293.5" type="line"/>
      <point x="408.932" y="293.5" type="line"/>
      <point x="291" y="542.161" type="line"/>
    </contour>
  </outline>
</glyph>
<glyph name="d" format="2">
  <advance width="626"/>
  <unicode hex="0064"/>
  <outline>
    <contour>
      <point x="374" y="-18.6309" type="line"/>
      <point x="374" y="28.4502" type="line"/>
      <point x="327.59" y="-2.92285"/>
      <point x="285.098" y="-14"/>
      <point x="227.738" y="-14" type="curve" smooth="yes"/>
      <point x="106.431" y="-14"/>
      <point x="25" y="88.127"/>
      <point x="25" y="221.57" type="curve" smooth="yes"/>
      <point x="25" y="363.139"/>
      <point x="112.057" y="473"/>
      <point x="241.746" y="473" type="curve" smooth="yes"/>
      <point x="293.064" y="473"/>
      <point x="330.648" y="461.538"/>
      <point x="371" y="434.721" type="curve"/>
      <point x="371" y="576.5" type="line" smooth="yes"/>
      <point x="370.736" y="591.263"/>
      <point x="370.243" y="593.791"/>
      <point x="369.153" y="597.969" type="curve" smooth="yes"/>
      <point x="367.903" y="602.767"/>
      <point x="366.287" y="606.823"/>
      <point x="356.612" y="609.749" type="curve" smooth="yes"/>
      <point x="346.69" y="612.75"/>
      <point x="332.35" y="614.851"/>
      <point x="294.845" y="617.049" type="curve" smooth="yes"/>
      <point x="274.219" y="618.258" type="line"/>
      <point x="274.219" y="676" type="line"/>
      <point x="545" y="676" type="line"/>
      <point x="545" y="116.259" type="line" smooth="yes"/>
      <point x="545.368" y="101.7"/>
      <point x="546.484" y="96.5273"/>
      <point x="548.376" y="92.1875" type="curve" smooth="yes"/>
      <point x="549.791" y="88.9404"/>
      <point x="551.278" y="86.7383"/>
      <point x="555.306" y="84.4736" type="curve" smooth="yes"/>
      <point x="560.686" y="81.4463"/>
      <point x="569.239" y="79.0967"/>
      <point x="587.639" y="77.9629" type="curve" smooth="yes"/>
      <point x="604" y="76.8955" type="line"/>
      <point x="604" y="22.1133" type="line"/>
      <point x="526.602" y="12.127" type="line" smooth="yes"/>
      <point x="464.836" y="5.15332"/>
      <point x="441.802" y="0.530273"/>
      <point x="396.259" y="-12.3408" type="curve" smooth="yes"/>
    </contour>
    <contour>
      <point x="371" y="124.096" type="curve" smooth="yes"/>
      <point x="371" y="339.166" type="line"/>
      <point x="355.216" y="366.793"/>
      <point x="323.844" y="382"/>
      <point x="293.957" y="382" type="curve" smooth="yes"/>
      <point x="242.383" y="382"/>
      <point x="208" y="346.68"/>
      <point x="208" y="229.052" type="curve" smooth="yes"/>
      <point x="208" y="111.835"/>
      <point x="240.792" y="77"/>
      <point x="285.043" y="77" type="curve" smooth="yes"/>
      <point x="305.233" y="77"/>
      <point x="325.441" y="83.9072"/>
      <point x="348.674" y="102.276" type="curve" smooth="yes"/>
      <point x="364.581" y="114.853"/>
      <point x="371" y="124.088"/>
    </contour>
  </outline>
</glyph>
<glyph name="e" format="2">
  <advance width="479"/>
  <unicode hex="0065"/>
  <outline>
    <contour>
      <point x="405.943" y="153.566" type="curve" smooth="yes"/>
      <point x="415.4" y="165.151" type="line"/>
      <point x="468.726" y="134.045" type="line"/>
      <point x="457.844" y="118.475" type="line" smooth="yes"/>
      <point x="389.065" y="20.0684"/>
      <point x="334.926" y="-14"/>
      <point x="248.5" y="-14" type="curve" smooth="yes"/>
      <point x="114.235" y="-14"/>
      <point x="25" y="83.4473"/>
      <point x="25" y="228.101" type="curve" smooth="yes"/>
      <point x="25" y="372.931"/>
      <point x="116.064" y="473"/>
      <point x="251.5" y="473" type="curve" smooth="yes"/>
      <point x="310.443" y="473"/>
      <point x="361.471" y="453.484"/>
      <point x="398.873" y="412.127" type="curve" smooth="yes"/>
      <point x="434.076" y="373.202"/>
      <point x="449.865" y="324.542"/>
      <point x="455.955" y="245" type="curve" smooth="yes"/>
      <point x="457.295" y="227.5" type="line"/>
      <point x="205.204" y="227.5" type="line"/>
      <point x="209.437" y="178.5"/>
      <point x="216.384" y="155.255"/>
      <point x="231.629" y="132.192" type="curve" smooth="yes"/>
      <point x="254.723" y="97.2578"/>
      <point x="284.984" y="93"/>
      <point x="305.5" y="93" type="curve" smooth="yes"/>
      <point x="345.678" y="93"/>
      <point x="371.656" y="111.565"/>
    </contour>
    <contour>
      <point x="199.578" y="299.5" type="curve"/>
      <point x="297.895" y="299.5" type="line"/>
      <point x="296.082" y="338.552"/>
      <point x="294.17" y="362.623"/>
      <point x="289.565" y="377.835" type="curve" smooth="yes"/>
      <point x="283.731" y="397.109"/>
      <point x="272.154" y="407"/>
      <point x="251.5" y="407" type="curve" smooth="yes"/>
      <point x="221.599" y="407"/>
      <point x="203.922" y="391.328"/>
    </contour>
  </outline>
</glyph>
<glyph name="f" format="2">
  <advance width="403"/>
  <unicode hex="0066"/>
  <outline>
    <contour>
      <point x="71" y="92.9805" type="curve" smooth="yes"/>
      <point x="71" y="382" type="line"/>
      <point x="14" y="382" type="line"/>
      <point x="14" y="461" type="line"/>
      <point x="71.1045" y="461" type="line"/>
      <point x="72.0527" y="536.258"/>
      <point x="79.835" y="577.955"/>
      <point x="102.634" y="614.732" type="curve" smooth="yes"/>
      <point x="133.842" y="665.074"/>
      <point x="192.604" y="691"/>
      <point x="282" y="691" type="curve" smooth="yes"/>
      <point x="390.394" y="691"/>
      <point x="459" y="644"/>
      <point x="459" y="573.5" type="curve" smooth="yes"/>
      <point x="459" y="527.787"/>
      <point x="427.2" y="494"/>
      <point x="379.5" y="494" type="curve" smooth="yes"/>
      <point x="338.438" y="494"/>
      <point x="289" y="523"/>
      <point x="289" y="566.5" type="curve" smooth="yes"/>
      <point x="289" y="581.446"/>
      <point x="300.686" y="595.338"/>
      <point x="317.494" y="611.504" type="curve" smooth="yes"/>
      <point x="318.172" y="612.64"/>
      <point x="322.264" y="619.529"/>
      <point x="323.643" y="623.158" type="curve"/>
      <point x="321.64" y="624.2"/>
      <point x="318.027" y="625"/>
      <point x="310" y="625" type="curve" smooth="yes"/>
      <point x="273.117" y="625"/>
      <point x="245" y="619.24"/>
      <point x="245" y="565.5" type="curve" smooth="yes"/>
      <point x="245" y="461" type="line"/>
      <point x="367" y="461" type="line"/>
      <point x="367" y="382" type="line"/>
      <point x="245" y="382" type="line"/>
      <point x="245" y="110.386" type="line" smooth="yes"/>
      <point x="245.609" y="84.2041"/>
      <point x="249.971" y="72.1348"/>
      <point x="260.49" y="65.8096" type="curve" smooth="yes"/>
      <point x="262.068" y="64.8613"/>
      <point x="263.738" y="64.0615"/>
      <point x="265.75" y="63.2949" type="curve" smooth="yes"/>
      <point x="277.031" y="58.9941"/>
      <point x="300.256" y="55.0215"/>
      <point x="345" y="54.042" type="curve" smooth="yes"/>
      <point x="362" y="53.5957" type="line"/>
      <point x="362" y="0" type="line"/>
      <point x="14" y="0" type="line"/>
      <point x="14" y="52.4004" type="line"/>
      <point x="29.6094" y="53.9541" type="line" smooth="yes"/>
      <point x="49.3975" y="56.2578"/>
      <point x="54.8252" y="57.8271"/>
      <point x="60.1377" y="60.4688" type="curve" smooth="yes"/>
      <point x="63.2305" y="62.0068"/>
      <point x="65.9893" y="63.9951"/>
      <point x="67.9014" y="68.6816" type="curve" smooth="yes"/>
      <point x="69.7168" y="73.1318"/>
      <point x="71" y="79.6006"/>
    </contour>
  </outline>
</glyph>
<glyph name="h" format="2">
  <advance width="626"/>
  <unicode hex="0068"/>
  <outline>
    <contour>
      <point x="243" y="676" type="line"/>
      <point x="243" y="420.451" type="line"/>
      <point x="298.559" y="458.697"/>
      <point x="346.902" y="473"/>
      <point x="402.5" y="473" type="curve" smooth="yes"/>
      <point x="494" y="473"/>
      <point x="555" y="414.855"/>
      <point x="555" y="325.42" type="curve" smooth="yes"/>
      <point x="555" y="94.5068" type="line" smooth="yes"/>
      <point x="555.511" y="75.7988"/>
      <point x="557.354" y="70.2949"/>
      <point x="560.339" y="65.5479" type="curve" smooth="yes"/>
      <point x="561.814" y="63.2021"/>
      <point x="563.364" y="61.6064"/>
      <point x="566.146" y="60.0107" type="curve" smooth="yes"/>
      <point x="569.801" y="57.915"/>
      <point x="575.691" y="55.8301"/>
      <point x="587.953" y="54.8789" type="curve" smooth="yes"/>
      <point x="604" y="53.6338" type="line"/>
      <point x="604" y="0" type="line"/>
      <point x="318.029" y="0" type="line"/>
      <point x="318.029" y="52.1426" type="line"/>
      <point x="338.736" y="53.8037" type="line" smooth="yes"/>
      <point x="367.444" y="56.1084"/>
      <point x="381" y="61.0449"/>
      <point x="381" y="90.0088" type="curve" smooth="yes"/>
      <point x="381" y="311.146" type="line" smooth="yes"/>
      <point x="381" y="359.566"/>
      <point x="360.993" y="371"/>
      <point x="334.777" y="371" type="curve" smooth="yes"/>
      <point x="312.393" y="371"/>
      <point x="285.416" y="362.313"/>
      <point x="258.645" y="343.539" type="curve" smooth="yes"/>
      <point x="251.205" y="338.321"/>
      <point x="245.494" y="334.373"/>
      <point x="243" y="331.509" type="curve"/>
      <point x="243" y="90.0088" type="line" smooth="yes"/>
      <point x="243.156" y="86.1846"/>
      <point x="242.548" y="72.79"/>
      <point x="249.988" y="64.8838" type="curve" smooth="yes"/>
      <point x="251.058" y="63.7705"/>
      <point x="252.21" y="62.8447"/>
      <point x="253.616" y="61.9609" type="curve" smooth="yes"/>
      <point x="258.574" y="58.8486"/>
      <point x="268.515" y="55.5986"/>
      <point x="288.344" y="53.7705" type="curve" smooth="yes"/>
      <point x="308.65" y="51.8975" type="line"/>
      <point x="308.65" y="0" type="line"/>
      <point x="16" y="0" type="line"/>
      <point x="16" y="52.6504" type="line"/>
      <point x="30.0684" y="55.3027" type="line" smooth="yes"/>
      <point x="46.3613" y="58.5879"/>
      <point x="53.7646" y="60.6631"/>
      <point x="58.9531" y="63.292" type="curve" smooth="yes"/>
      <point x="62.834" y="65.2607"/>
      <point x="65.1328" y="66.9062"/>
      <point x="66.8203" y="72.4385" type="curve" smooth="yes"/>
      <point x="68.1641" y="76.8438"/>
      <point x="69" y="84.5703"/>
      <point x="69" y="95.6904" type="curve" smooth="yes"/>
      <point x="69" y="576.5" type="line" smooth="yes"/>
      <point x="68.7744" y="591.312"/>
      <point x="68.3555" y="594.719"/>
      <point x="67.3252" y="599.067" type="curve" smooth="yes"/>
      <point x="66.4346" y="602.823"/>
      <point x="65.3877" y="606.396"/>
      <point x="58.4561" y="609.609" type="curve" smooth="yes"/>
      <point x="53.2061" y="612.043"/>
      <point x="45.7002" y="614.28"/>
      <point x="30.1396" y="617.325" type="curve" smooth="yes"/>
      <point x="16" y="620.092" type="line"/>
      <point x="16" y="676" type="line"/>
    </contour>
  </outline>
</glyph>
<glyph name="i" format="2">
  <advance width="313"/>
  <unicode hex="0069"/>
  <outline>
    <contour>
      <point x="243" y="461" type="line"/>
      <point x="243" y="95.3232" type="line" smooth="yes"/>
      <point x="243.445" y="80.208"/>
      <point x="244.964" y="74.8555"/>
      <point x="247.389" y="70.6924" type="curve" smooth="yes"/>
      <point x="248.752" y="68.3525"/>
      <point x="250.385" y="66.6377"/>
      <point x="252.928" y="65.0566" type="curve" smooth="yes"/>
      <point x="256.583" y="62.7842"/>
      <point x="263.159" y="60.377"/>
      <point x="274.975" y="58.8242" type="curve" smooth="yes"/>
      <point x="290" y="56.6777" type="line"/>
      <point x="290" y="0" type="line"/>
      <point x="16" y="0" type="line"/>
      <point x="16" y="55.3086" type="line"/>
      <point x="29.4297" y="58.5205" type="line" smooth="yes"/>
      <point x="46.0527" y="62.3564"/>
      <point x="53.8457" y="64.6504"/>
      <point x="59.2295" y="67.3848" type="curve" smooth="yes"/>
      <point x="62.3701" y="68.9795"/>
      <point x="65.7256" y="70.5527"/>
      <point x="67.4385" y="77.7236" type="curve" smooth="yes"/>
      <point x="68.4531" y="81.9746"/>
      <point x="69" y="88.7568"/>
      <point x="69" y="98.0615" type="curve" smooth="yes"/>
      <point x="69" y="368.54" type="line" smooth="yes"/>
      <point x="68.7295" y="382.245"/>
      <point x="68.0898" y="386.256"/>
      <point x="66.7217" y="390.363" type="curve" smooth="yes"/>
      <point x="65.0088" y="395.503"/>
      <point x="62.5986" y="397.265"/>
      <point x="58.5645" y="399.242" type="curve" smooth="yes"/>
      <point x="53.4102" y="401.77"/>
      <point x="44.7314" y="404.272"/>
      <point x="29.9932" y="407.047" type="curve" smooth="yes"/>
      <point x="16" y="409.68" type="line"/>
      <point x="16" y="461" type="line"/>
    </contour>
    <contour>
      <point x="155.5" y="691" type="curve" smooth="yes"/>
      <point x="208.301" y="691"/>
      <point x="250" y="647.849"/>
      <point x="250" y="595.5" type="curve" smooth="yes"/>
      <point x="250" y="542.087"/>
      <point x="208.635" y="501"/>
      <point x="154.5" y="501" type="curve" smooth="yes"/>
      <point x="101.379" y="501"/>
      <point x="60" y="541.461"/>
      <point x="60" y="596.5" type="curve" smooth="yes"/>
      <point x="60" y="648.4"/>
      <point x="102.857" y="691"/>
    </contour>
  </outline>
</glyph>
<glyph name="j" format="2">
  <advance width="368"/>
  <unicode hex="006A"/>
  <outline>
    <contour>
      <point x="202.5" y="691" type="curve" smooth="yes"/>
      <point x="255.183" y="691"/>
      <point x="298" y="648.18"/>
      <point x="298" y="595.5" type="curve" smooth="yes"/>
      <point x="298" y="542.699"/>
      <point x="254.849" y="501"/>
      <point x="202.5" y="501" type="curve" smooth="yes"/>
      <point x="145.8" y="501"/>
      <point x="108" y="543.925"/>
      <point x="108" y="596.5" type="curve" smooth="yes"/>
      <point x="108" y="648.065"/>
      <point x="149.746" y="691"/>
    </contour>
    <contour>
      <point x="295" y="461" type="line"/>
      <point x="295" y="11.6484" type="line" smooth="yes"/>
      <point x="295" y="-45.2715"/>
      <point x="286.467" y="-84.5781"/>
      <point x="265.621" y="-118.309" type="curve" smooth="yes"/>
      <point x="245.792" y="-152.332"/>
      <point x="199.616" y="-203"/>
      <point x="100.5" y="-203" type="curve" smooth="yes"/>
      <point x="10.4062" y="-203"/>
      <point x="-57" y="-156"/>
      <point x="-57" y="-85.5" type="curve" smooth="yes"/>
      <point x="-57" y="-40.9111"/>
      <point x="-24.709" y="-7"/>
      <point x="22.5" y="-7" type="curve" smooth="yes"/>
      <point x="63.0146" y="-7"/>
      <point x="99" y="-37.4473"/>
      <point x="99" y="-78.5" type="curve" smooth="yes"/>
      <point x="99" y="-93.5244"/>
      <point x="92.8799" y="-107.384"/>
      <point x="82.4229" y="-124.64" type="curve" smooth="yes"/>
      <point x="78.6641" y="-130.843"/>
      <point x="77.6006" y="-133.063"/>
      <point x="76.9219" y="-134.904" type="curve"/>
      <point x="79.8389" y="-136.1"/>
      <point x="84.5645" y="-137"/>
      <point x="90.5" y="-137" type="curve" smooth="yes"/>
      <point x="106.094" y="-137"/>
      <point x="121" y="-131.798"/>
      <point x="121" y="-78.5" type="curve" smooth="yes"/>
      <point x="121" y="366.623" type="line" smooth="yes"/>
      <point x="120.668" y="381.453"/>
      <point x="119.698" y="386.169"/>
      <point x="117.904" y="390.522" type="curve" smooth="yes"/>
      <point x="116.519" y="393.887"/>
      <point x="114.577" y="396.528"/>
      <point x="109.994" y="398.805" type="curve" smooth="yes"/>
      <point x="103.787" y="401.887"/>
      <point x="94.5312" y="404.142"/>
      <point x="74.1318" y="405.645" type="curve" smooth="yes"/>
      <point x="58" y="406.832" type="line"/>
      <point x="58" y="461" type="line"/>
    </contour>
  </outline>
</glyph>
<glyph name="m" format="2">
  <advance width="938"/>
  <unicode hex="006D"/>
  <outline>
    <contour>
      <point x="242" y="461" type="line"/>
      <point x="242" y="419.488" type="line"/>
      <point x="288.633" y="456.194"/>
      <point x="345.256" y="473"/>
      <point x="406.5" y="473" type="curve" smooth="yes"/>
      <point x="466.203" y="473"/>
      <point x="506.146" y="452.668"/>
      <point x="537.846" y="399.476" type="curve"/>
      <point x="593.418" y="451.421"/>
      <point x="646.933" y="473"/>
      <point x="716.5" y="473" type="curve" smooth="yes"/>
      <point x="808" y="473"/>
      <point x="869" y="414.855"/>
      <point x="869" y="325.42" type="curve" smooth="yes"/>
      <point x="869" y="91.7139" type="line" smooth="yes"/>
      <point x="869.349" y="77.2139"/>
      <point x="870.252" y="71.4561"/>
      <point x="871.97" y="66.8447" type="curve" smooth="yes"/>
      <point x="873.164" y="63.6396"/>
      <point x="875.012" y="59.7275"/>
      <point x="883.08" y="57.46" type="curve" smooth="yes"/>
      <point x="886.771" y="56.4229"/>
      <point x="892.671" y="55.3779"/>
      <point x="902.396" y="54.9131" type="curve" smooth="yes"/>
      <point x="919" y="54.1211" type="line"/>
      <point x="919" y="0" type="line"/>
      <point x="629.349" y="0" type="line"/>
      <point x="629.349" y="52.7012" type="line"/>
      <point x="650.951" y="53.8643" type="line" smooth="yes"/>
      <point x="669.404" y="55.1807"/>
      <point x="673.635" y="56.0098"/>
      <point x="678.792" y="57.4219" type="curve" smooth="yes"/>
      <point x="686.769" y="59.6055"/>
      <point x="689.028" y="62.2061"/>
      <point x="691.071" y="66.2109" type="curve" smooth="yes"/>
      <point x="693.32" y="70.623"/>
      <point x="695" y="76.9922"/>
      <point x="695" y="90.0088" type="curve" smooth="yes"/>
      <point x="695" y="311.146" type="line" smooth="yes"/>
      <point x="695" y="364.296"/>
      <point x="675.261" y="371"/>
      <point x="647.437" y="371" type="curve" smooth="yes"/>
      <point x="635.299" y="371"/>
      <point x="617.1" y="368.878"/>
      <point x="586.724" y="352.396" type="curve" smooth="yes"/>
      <point x="570.35" y="343.512"/>
      <point x="560.478" y="334.818"/>
      <point x="557" y="330.987" type="curve"/>
      <point x="557" y="90.0088" type="line" smooth="yes"/>
      <point x="557.157" y="86.0449"/>
      <point x="556.569" y="73.625"/>
      <point x="562.949" y="65.1914" type="curve" smooth="yes"/>
      <point x="564.776" y="62.8311"/>
      <point x="566.928" y="61.1006"/>
      <point x="570.335" y="59.5244" type="curve" smooth="yes"/>
      <point x="575.065" y="57.3359"/>
      <point x="583.269" y="55.0508"/>
      <point x="599.187" y="53.8105" type="curve" smooth="yes"/>
      <point x="619.971" y="52.1904" type="line"/>
      <point x="619.971" y="0" type="line"/>
      <point x="318.689" y="0" type="line"/>
      <point x="318.689" y="52.6699" type="line"/>
      <point x="340.241" y="53.8613" type="line" smooth="yes"/>
      <point x="346.588" y="54.3359"/>
      <point x="357.086" y="54.6289"/>
      <point x="366.874" y="57.458" type="curve" smooth="yes"/>
      <point x="374.472" y="59.6553"/>
      <point x="377.005" y="62.4326"/>
      <point x="379.089" y="66.5654" type="curve" smooth="yes"/>
      <point x="381.287" y="70.9229"/>
      <point x="383" y="77.3262"/>
      <point x="383" y="90.0088" type="curve" smooth="yes"/>
      <point x="383" y="311.146" type="line" smooth="yes"/>
      <point x="383" y="364.322"/>
      <point x="364.101" y="371"/>
      <point x="334.097" y="371" type="curve" smooth="yes"/>
      <point x="322.201" y="371"/>
      <point x="304.395" y="369.247"/>
      <point x="274.66" y="353.276" type="curve" smooth="yes"/>
      <point x="258.198" y="344.435"/>
      <point x="248.042" y="335.07"/>
      <point x="245" y="331.483" type="curve"/>
      <point x="245" y="90.0088" type="line" smooth="yes"/>
      <point x="245.551" y="74.9668"/>
      <point x="247.424" y="69.5146"/>
      <point x="250.603" y="65.291" type="curve" smooth="yes"/>
      <point x="252.78" y="62.3975"/>
      <point x="254.863" y="60.8672"/>
      <point x="259.334" y="59.0791" type="curve" smooth="yes"/>
      <point x="264.376" y="57.0625"/>
      <point x="273.171" y="55.0518"/>
      <point x="286.5" y="53.7529" type="curve" smooth="yes"/>
      <point x="306.631" y="51.792" type="line"/>
      <point x="306.631" y="0" type="line"/>
      <point x="16" y="0" type="line"/>
      <point x="16" y="52.1465" type="line"/>
      <point x="30.3691" y="54.5742" type="line" smooth="yes"/>
      <point x="49.4941" y="58.1045"/>
      <point x="56.9756" y="60.5146"/>
      <point x="62.1182" y="63.9512" type="curve" smooth="yes"/>
      <point x="64.5791" y="65.5957"/>
      <point x="66.5078" y="67.7578"/>
      <point x="67.8115" y="70.7324" type="curve" smooth="yes"/>
      <point x="69.6777" y="74.9883"/>
      <point x="71" y="81.3926"/>
      <point x="71" y="94.3379" type="curve" smooth="yes"/>
      <point x="71" y="367.592" type="line" smooth="yes"/>
      <point x="70.6748" y="381.513"/>
      <point x="69.6602" y="387.112"/>
      <point x="67.791" y="391.418" type="curve" smooth="yes"/>
      <point x="66.4873" y="394.419"/>
      <point x="65.0889" y="396.571"/>
      <point x="60.8955" y="398.919" type="curve" smooth="yes"/>
      <point x="55.8252" y="401.759"/>
      <point x="45.8027" y="404.453"/>
      <point x="31.1357" y="406.312" type="curve" smooth="yes"/>
      <point x="16" y="408.23" type="line"/>
      <point x="16" y="461" type="line"/>
    </contour>
  </outline>
</glyph>
<glyph name="r" format="2">
  <advance width="479"/>
  <unicode hex="0072"/>
  <outline>
    <contour>
      <point x="253" y="461" type="line"/>
      <point x="253" y="412.446" type="line"/>
      <point x="288.676" y="452.756"/>
      <point x="324.373" y="473"/>
      <point x="370.5" y="473" type="curve" smooth="yes"/>
      <point x="424.825" y="473"/>
      <point x="469" y="434.8"/>
      <point x="469" y="377.5" type="curve" smooth="yes"/>
      <point x="469" y="328.617"/>
      <point x="435.005" y="293"/>
      <point x="388.5" y="293" type="curve" smooth="yes"/>
      <point x="357.928" y="293"/>
      <point x="337.506" y="303.56"/>
      <point x="314.134" y="336.508" type="curve" smooth="yes"/>
      <point x="308.294" y="344.74"/>
      <point x="303.499" y="350.497"/>
      <point x="299.99" y="351.992" type="curve"/>
      <point x="281.787" y="351.458"/>
      <point x="257" y="322.404"/>
      <point x="257" y="274.5" type="curve" smooth="yes"/>
      <point x="257" y="85.5" type="line" smooth="yes"/>
      <point x="257" y="32.6348"/>
      <point x="263.902" y="27.2275"/>
      <point x="313.646" y="23.9629" type="curve" smooth="yes"/>
      <point x="330" y="22.8896" type="line"/>
      <point x="330" y="-35" type="line"/>
      <point x="29" y="-35" type="line"/>
      <point x="29" y="21.1055" type="line"/>
      <point x="43.3691" y="23.7178" type="line" smooth="yes"/>
      <point x="62.3184" y="27.4873"/>
      <point x="68.1855" y="29.5879"/>
      <point x="73.2891" y="32.8027" type="curve" smooth="yes"/>
      <point x="77.4043" y="35.3945"/>
      <point x="78.7236" y="37.6426"/>
      <point x="79.9678" y="40.8428" type="curve" smooth="yes"/>
      <point x="81.7812" y="45.5049"/>
      <point x="83" y="52.6016"/>
      <point x="83" y="66.5" type="curve" smooth="yes"/>
      <point x="83" y="360.5" type="line" smooth="yes"/>
      <point x="82.6182" y="377.718"/>
      <point x="81.4043" y="382.587"/>
      <point x="79.1602" y="387.214" type="curve" smooth="yes"/>
      <point x="77.7715" y="390.078"/>
      <point x="75.6611" y="392.363"/>
      <point x="72.8682" y="394.117" type="curve" smooth="yes"/>
      <point x="68.2227" y="397.035"/>
      <point x="58.9375" y="400.095"/>
      <point x="44.082" y="402.168" type="curve" smooth="yes"/>
      <point x="29" y="404.272" type="line"/>
      <point x="29" y="461" type="line"/>
    </contour>
  </outline>
</glyph>
<glyph name="s" format="2">
  <advance width="424"/>
  <unicode hex="0073"/>
  <outline>
    <contour>
      <point x="375" y="471" type="line"/>
      <point x="375" y="291" type="line"/>
      <point x="319.977" y="291" type="line"/>
      <point x="315.937" y="302.854" type="line" smooth="yes"/>
      <point x="298.211" y="354.847"/>
      <point x="285.362" y="366.448"/>
      <point x="273.424" y="377.834" type="curve" smooth="yes"/>
      <point x="254.367" y="396.01"/>
      <point x="231.539" y="405"/>
      <point x="210.5" y="405" type="curve" smooth="yes"/>
      <point x="183.425" y="405"/>
      <point x="162" y="388.8"/>
      <point x="162" y="364.5" type="curve" smooth="yes"/>
      <point x="162" y="342.614"/>
      <point x="179.633" y="321.392"/>
      <point x="247.35" y="292.604" type="curve" smooth="yes"/>
      <point x="351.599" y="248.285"/>
      <point x="396" y="199.456"/>
      <point x="396" y="120.5" type="curve" smooth="yes"/>
      <point x="396" y="18.7998"/>
      <point x="323.162" y="-49"/>
      <point x="224.5" y="-49" type="curve" smooth="yes"/>
      <point x="210.114" y="-49"/>
      <point x="151.854" y="-34.7861"/>
      <point x="109.696" y="10.3799" type="curve" smooth="yes"/>
      <point x="105.404" y="12.2676"/>
      <point x="98.3242" y="14.5205"/>
      <point x="94.5693" y="14.9336" type="curve"/>
      <point x="91.2412" y="11.7324"/>
      <point x="86.2451" y="2.57129"/>
      <point x="83.002" y="-3.62012" type="curve" smooth="yes"/>
      <point x="78.0889" y="-48" type="line"/>
      <point x="25" y="-48" type="line"/>
      <point x="25" y="187" type="line"/>
      <point x="84.2783" y="187" type="line"/>
      <point x="87.5117" y="173.606" type="line" smooth="yes"/>
      <point x="103.089" y="109.081"/>
      <point x="135.507" y="55"/>
      <point x="207.5" y="55" type="curve" smooth="yes"/>
      <point x="243.612" y="55"/>
      <point x="265" y="72.1523"/>
      <point x="265" y="98.8301" type="curve" smooth="yes"/>
      <point x="265" y="116.657"/>
      <point x="250.731" y="135.919"/>
      <point x="179.541" y="164.292" type="curve" smooth="yes"/>
      <point x="73.3359" y="206.62"/>
      <point x="27" y="253.059"/>
      <point x="27" y="322.133" type="curve" smooth="yes"/>
      <point x="27" y="408.699"/>
      <point x="100.446" y="473"/>
      <point x="201.5" y="473" type="curve" smooth="yes"/>
      <point x="225.72" y="473"/>
      <point x="250.778" y="468.274"/>
      <point x="284.877" y="457.152" type="curve" smooth="yes"/>
      <point x="302.538" y="451.392"/>
      <point x="309.233" y="450.875"/>
      <point x="311.5" y="451" type="curve" smooth="yes"/>
      <point x="317.032" y="451.305"/>
      <point x="314.183" y="451.131"/>
      <point x="314.549" y="451.318" type="curve" smooth="yes"/>
      <point x="316.002" y="452.422"/>
      <point x="318.39" y="457.845"/>
      <point x="319.252" y="459.999" type="curve" smooth="yes"/>
      <point x="323.652" y="471" type="line"/>
    </contour>
  </outline>
</glyph>
<glyph name="t" format="2">
  <advance width="368"/>
  <unicode hex="0074"/>
  <outline>
    <contour>
      <point x="340" y="461" type="line"/>
      <point x="340" y="382" type="line"/>
      <point x="246" y="382" type="line"/>
      <point x="246" y="129.22" type="line" smooth="yes"/>
      <point x="246.115" y="125.197"/>
      <point x="245.775" y="113.556"/>
      <point x="249.319" y="104.229" type="curve" smooth="yes"/>
      <point x="252.598" y="95.6025"/>
      <point x="258.075" y="94.7256"/>
      <point x="262.656" y="94.2373" type="curve" smooth="yes"/>
      <point x="263.618" y="94.1338"/>
      <point x="262.384" y="94"/>
      <point x="267.5" y="94" type="curve" smooth="yes"/>
      <point x="275.803" y="94"/>
      <point x="287.747" y="96.2432"/>
      <point x="309.014" y="136.65" type="curve" smooth="yes"/>
      <point x="316.613" y="151.089" type="line"/>
      <point x="373.373" y="126.115" type="line"/>
      <point x="365.152" y="109.674" type="line" smooth="yes"/>
      <point x="320.527" y="20.4229"/>
      <point x="274.682" y="-12"/>
      <point x="201.5" y="-12" type="curve" smooth="yes"/>
      <point x="121.503" y="-12"/>
      <point x="72" y="33.002"/>
      <point x="72" y="100.506" type="curve" smooth="yes"/>
      <point x="72" y="382" type="line"/>
      <point x="20" y="382" type="line"/>
      <point x="20" y="434.616" type="line"/>
      <point x="26.1963" y="439.859" type="line" smooth="yes"/>
      <point x="90.2744" y="494.079"/>
      <point x="128.563" y="537.101"/>
      <point x="189.227" y="622.625" type="curve" smooth="yes"/>
      <point x="194.458" y="630" type="line"/>
      <point x="246" y="630" type="line"/>
      <point x="246" y="461" type="line"/>
    </contour>
  </outline>
</glyph>
<glyph name="u" format="2">
  <advance width="591"/>
  <unicode hex="0075"/>
  <outline>
    <contour>
      <point x="343" y="-20.1387" type="line"/>
      <point x="343" y="32.7158" type="line"/>
      <point x="296.964" y="-2.12207"/>
      <point x="262.32" y="-14"/>
      <point x="215.5" y="-14" type="curve" smooth="yes"/>
      <point x="124.424" y="-14"/>
      <point x="65" y="39.4219"/>
      <point x="65" y="131.286" type="curve" smooth="yes"/>
      <point x="65" y="363.743" type="line" smooth="yes"/>
      <point x="64.749" y="377.761"/>
      <point x="64.1279" y="382.732"/>
      <point x="62.7139" y="387.154" type="curve" smooth="yes"/>
      <point x="60.6953" y="393.469"/>
      <point x="56.4131" y="395.079"/>
      <point x="54.8125" y="395.825" type="curve" smooth="yes"/>
      <point x="50.3154" y="397.92"/>
      <point x="44.0762" y="399.817"/>
      <point x="30.1484" y="402.324" type="curve" smooth="yes"/>
      <point x="16" y="405.085" type="line"/>
      <point x="16" y="461" type="line"/>
      <point x="239" y="461" type="line"/>
      <point x="239" y="134.933" type="line" smooth="yes"/>
      <point x="239" y="93.6416"/>
      <point x="250.134" y="86"/>
      <point x="277.5" y="86" type="curve" smooth="yes"/>
      <point x="298.763" y="86"/>
      <point x="315.273" y="93.2295"/>
      <point x="342" y="116.461" type="curve"/>
      <point x="342" y="364.643" type="line" smooth="yes"/>
      <point x="341.668" y="378.86"/>
      <point x="340.697" y="383.414"/>
      <point x="338.914" y="387.604" type="curve" smooth="yes"/>
      <point x="337.541" y="390.829"/>
      <point x="335.63" y="393.37"/>
      <point x="331.135" y="395.543" type="curve" smooth="yes"/>
      <point x="325.094" y="398.464"/>
      <point x="316.104" y="400.615"/>
      <point x="296.104" y="402.056" type="curve" smooth="yes"/>
      <point x="280" y="403.344" type="line"/>
      <point x="280" y="461" type="line"/>
      <point x="516" y="461" type="line"/>
      <point x="516" y="110.861" type="line" smooth="yes"/>
      <point x="516.353" y="96.2832"/>
      <point x="517.458" y="90.2568"/>
      <point x="519.449" y="85.7197" type="curve" smooth="yes"/>
      <point x="521.501" y="81.0459"/>
      <point x="524.418" y="79.1357"/>
      <point x="527.737" y="77.7217" type="curve" smooth="yes"/>
      <point x="532.65" y="75.625"/>
      <point x="540.396" y="73.9082"/>
      <point x="555.295" y="73.2803" type="curve" smooth="yes"/>
      <point x="572" y="72.5752" type="line"/>
      <point x="572" y="21.2295" type="line"/>
      <point x="494.419" y="13.1055" type="line" smooth="yes"/>
      <point x="429.316" y="6.09473"/>
      <point x="408.125" y="2.5791"/>
      <point x="366.264" y="-12.0234" type="curve" smooth="yes"/>
    </contour>
  </outline>
</glyph>
<glyph name="v" format="2">
  <advance width="570"/>
  <unicode hex="0076"/>
  <outline>
    <contour>
      <point x="369" y="461" type="line"/>
      <point x="555" y="461" type="line"/>
      <point x="555" y="407.55" type="line"/>
      <point x="539.186" y="406.125" type="line" smooth="yes"/>
      <point x="517.931" y="404.209"/>
      <point x="513.245" y="402.798"/>
      <point x="495.646" y="364.839" type="curve" smooth="yes"/>
      <point x="296.304" y="-14" type="line"/>
      <point x="246.711" y="-14" type="line"/>
      <point x="122.239" y="271.961" type="line" smooth="yes"/>
      <point x="96.8574" y="332.539"/>
      <point x="63.8867" y="391.075"/>
      <point x="58.6172" y="399.739" type="curve" smooth="yes"/>
      <point x="57.4541" y="401.652"/>
      <point x="56.9492" y="402.34"/>
      <point x="51.8936" y="403.613" type="curve" smooth="yes"/>
      <point x="48.8359" y="404.384"/>
      <point x="43.8662" y="405.259"/>
      <point x="36.2363" y="406.187" type="curve" smooth="yes"/>
      <point x="21" y="408.037" type="line"/>
      <point x="21" y="461" type="line"/>
      <point x="306" y="461" type="line"/>
      <point x="306" y="404.052" type="line"/>
      <point x="290.671" y="402.135" type="line" smooth="yes"/>
      <point x="281.899" y="401.039"/>
      <point x="274.59" y="400.317"/>
      <point x="271.198" y="400.028" type="curve" smooth="yes"/>
      <point x="262.669" y="399.302"/>
      <point x="255.692" y="397.965"/>
      <point x="253.229" y="395.708" type="curve"/>
      <point x="253.15" y="395.563"/>
      <point x="252.943" y="395.07"/>
      <point x="253" y="393.5" type="curve" smooth="yes"/>
      <point x="253.072" y="391.514"/>
      <point x="253.085" y="392.143"/>
      <point x="253.265" y="391.264" type="curve" smooth="yes"/>
      <point x="253.471" y="390.26"/>
      <point x="253.433" y="390.478"/>
      <point x="253.6" y="389.831" type="curve" smooth="yes"/>
      <point x="254.476" y="386.435"/>
      <point x="255.921" y="382.117"/>
      <point x="260.865" y="368.698" type="curve" smooth="yes"/>
      <point x="345.676" y="207.41" type="line"/>
      <point x="414.209" y="347.891" type="line" smooth="yes"/>
      <point x="421.349" y="366.25"/>
      <point x="424.215" y="378.771"/>
      <point x="424" y="386.5" type="curve" smooth="yes"/>
      <point x="423.763" y="395.045"/>
      <point x="423.991" y="396.679"/>
      <point x="412.489" y="399.181" type="curve" smooth="yes"/>
      <point x="406.434" y="400.498"/>
      <point x="397.467" y="401.471"/>
      <point x="385.687" y="402.019" type="curve" smooth="yes"/>
      <point x="369" y="402.795" type="line"/>
    </contour>
  </outline>
</glyph>
<glyph name="x" format="2">
  <advance width="535"/>
  <unicode hex="0078"/>
  <outline>
    <contour>
      <point x="506.72" y="23.2031" type="curve" smooth="yes"/>
      <point x="519" y="19.3662" type="line"/>
      <point x="519" y="-35" type="line"/>
      <point x="243" y="-35" type="line"/>
      <point x="243" y="22.9072" type="line"/>
      <point x="259.373" y="23.9639" type="line" smooth="yes"/>
      <point x="275.982" y="25.4062"/>
      <point x="282.823" y="26.4873"/>
      <point x="287.67" y="28.8838" type="curve"/>
      <point x="286.233" y="35.3721"/>
      <point x="280.13" y="48.9512"/>
      <point x="258.041" y="80.6436" type="curve" smooth="yes"/>
      <point x="229.168" y="123.95" type="line"/>
      <point x="229.061" y="123.793" type="line"/>
      <point x="228.563" y="123.046" type="line"/>
      <point x="227.992" y="122.354" type="line" smooth="yes"/>
      <point x="195.869" y="83.0088"/>
      <point x="173.312" y="48.584"/>
      <point x="168.521" y="32.543" type="curve" smooth="yes"/>
      <point x="168.521" y="32.543"/>
      <point x="167.973" y="33.5"/>
      <point x="168" y="30.5" type="curve" smooth="yes"/>
      <point x="168" y="30.3994"/>
      <point x="167.913" y="30.4121"/>
      <point x="167.818" y="30.4561" type="curve"/>
      <point x="167.938" y="30.3662" type="line" smooth="yes"/>
      <point x="172.793" y="26.6611"/>
      <point x="187.07" y="24.7734"/>
      <point x="201.471" y="23.9727" type="curve" smooth="yes"/>
      <point x="218" y="23.0547" type="line"/>
      <point x="218" y="-35" type="line"/>
      <point x="14" y="-35" type="line"/>
      <point x="14" y="23.0801" type="line"/>
      <point x="30.5557" y="23.9746" type="line" smooth="yes"/>
      <point x="60.0537" y="25.5693"/>
      <point x="77.5361" y="38.127"/>
      <point x="130.162" y="109.512" type="curve" smooth="yes"/>
      <point x="140.513" y="123.552"/>
      <point x="162.063" y="151.615"/>
      <point x="187.999" y="184.473" type="curve"/>
      <point x="66.8828" y="370.879" type="line" smooth="yes"/>
      <point x="48.7334" y="398.103"/>
      <point x="46.0693" y="399.244"/>
      <point x="26.8389" y="402.203" type="curve" smooth="yes"/>
      <point x="12" y="404.486" type="line"/>
      <point x="12" y="461" type="line"/>
      <point x="297" y="461" type="line"/>
      <point x="297" y="402.522" type="line"/>
      <point x="280.03" y="402.008" type="line" smooth="yes"/>
      <point x="263.282" y="401.117"/>
      <point x="255.966" y="400.242"/>
      <point x="250.875" y="398.062" type="curve"/>
      <point x="253.869" y="390.382"/>
      <point x="265.695" y="364.2"/>
      <point x="303.33" y="314.54" type="curve"/>
      <point x="312.219" y="326.097"/>
      <point x="321.577" y="337.717"/>
      <point x="326.728" y="343.449" type="curve" smooth="yes"/>
      <point x="347.632" y="366.718"/>
      <point x="359.38" y="383.934"/>
      <point x="359.975" y="394.588" type="curve" smooth="yes"/>
      <point x="359.975" y="394.588"/>
      <point x="360.196" y="383.398"/>
      <point x="360" y="395.5" type="curve" smooth="yes"/>
      <point x="359.981" y="396.671"/>
      <point x="359.934" y="397.188"/>
      <point x="359.879" y="397.456" type="curve"/>
      <point x="357.597" y="398.829"/>
      <point x="355.206" y="399.738"/>
      <point x="346.12" y="400.008" type="curve" smooth="yes"/>
      <point x="341.735" y="400.138"/>
      <point x="333.326" y="401.135"/>
      <point x="324.567" y="402.107" type="curve" smooth="yes"/>
      <point x="309" y="403.837" type="line"/>
      <point x="309" y="461" type="line"/>
      <point x="512" y="461" type="line"/>
      <point x="512" y="404.597" type="line"/>
      <point x="497.286" y="402.224" type="line" smooth="yes"/>
      <point x="472.095" y="398.16"/>
      <point x="454.959" y="389.896"/>
      <point x="438.073" y="369.455" type="curve" smooth="yes"/>
      <point x="345.063" y="253.422" type="line"/>
      <point x="486.222" y="35.9619" type="line" smooth="yes"/>
      <point x="487.517" y="34.1484"/>
      <point x="488.091" y="33.0645"/>
      <point x="489.607" y="31.459" type="curve" smooth="yes"/>
      <point x="490.742" y="30.2588"/>
      <point x="491.724" y="29.5322"/>
      <point x="492.648" y="28.9316" type="curve" smooth="yes"/>
      <point x="495.152" y="27.3076"/>
      <point x="498.896" y="25.6484"/>
    </contour>
  </outline>
</glyph>
<glyph name="y" format="2">
  <advance width="535"/>
  <unicode hex="0079"/>
  <outline>
    <contour>
      <point x="329" y="461" type="line"/>
      <point x="515" y="461" type="line"/>
      <point x="515" y="407.632" type="line"/>
      <point x="499.186" y="406.208" type="line" smooth="yes"/>
      <point x="477.42" y="404.25"/>
      <point x="471.198" y="400.718"/>
      <point x="455.803" y="365.348" type="curve" smooth="yes"/>
      <point x="306.892" y="-3.62793" type="line" smooth="yes"/>
      <point x="271.953" y="-96.7207"/>
      <point x="251.152" y="-141.463"/>
      <point x="227.148" y="-166.587" type="curve" smooth="yes"/>
      <point x="203.337" y="-191.511"/>
      <point x="168.6" y="-205"/>
      <point x="130.5" y="-205" type="curve" smooth="yes"/>
      <point x="66.625" y="-205"/>
      <point x="16" y="-166.4"/>
      <point x="16" y="-108.5" type="curve" smooth="yes"/>
      <point x="16" y="-61.7227"/>
      <point x="49.96" y="-27"/>
      <point x="97.5" y="-27" type="curve" smooth="yes"/>
      <point x="139.64" y="-27"/>
      <point x="173" y="-53.6719"/>
      <point x="173" y="-93.5" type="curve" smooth="yes"/>
      <point x="173" y="-96.9863"/>
      <point x="172.726" y="-100.605"/>
      <point x="170.66" y="-110.932" type="curve" smooth="yes"/>
      <point x="170.446" y="-112" type="line"/>
      <point x="170.127" y="-112.957" type="line"/>
      <point x="171.837" y="-112.812"/>
      <point x="173.182" y="-112.438"/>
      <point x="175.539" y="-111.221" type="curve" smooth="yes"/>
      <point x="200.388" y="-98.3965"/>
      <point x="218.365" y="-44.5312"/>
      <point x="218.931" y="-42.8691" type="curve" smooth="yes"/>
      <point x="234.831" y="3.9502" type="line"/>
      <point x="117.284" y="272.365" type="line" smooth="yes"/>
      <point x="99.667" y="312.307"/>
      <point x="67.1924" y="378.003"/>
      <point x="56.9082" y="395.366" type="curve" smooth="yes"/>
      <point x="53.9395" y="399.502" type="line" smooth="yes"/>
      <point x="52.251" y="401.563"/>
      <point x="52.3154" y="402.405"/>
      <point x="46.8936" y="403.768" type="curve" smooth="yes"/>
      <point x="43.8359" y="404.536"/>
      <point x="38.8662" y="405.408"/>
      <point x="31.2363" y="406.334" type="curve" smooth="yes"/>
      <point x="16" y="408.18" type="line"/>
      <point x="16" y="461" type="line"/>
      <point x="301" y="461" type="line"/>
      <point x="301" y="436.84" type="line"/>
      <point x="268.743" y="436" type="line" smooth="yes"/>
      <point x="264.399" y="435.454"/>
      <point x="262.333" y="435.413"/>
      <point x="258.103" y="434.406" type="curve" smooth="yes"/>
      <point x="251.754" y="432.896"/>
      <point x="247.99" y="431.255"/>
      <point x="248" y="428.455" type="curve" smooth="yes"/>
      <point x="248.008" y="426.077"/>
      <point x="247.99" y="425.989"/>
      <point x="248.402" y="424.457" type="curve" smooth="yes"/>
      <point x="249.515" y="420.314"/>
      <point x="252.43" y="412.746"/>
      <point x="266.8" y="375.823" type="curve" smooth="yes"/>
      <point x="321.727" y="234.691" type="line"/>
      <point x="374.02" y="382.34" type="line" smooth="yes"/>
      <point x="382.898" y="407.41"/>
      <point x="384.223" y="413.139"/>
      <point x="384" y="421.455" type="curve" smooth="yes"/>
      <point x="383.771" y="430"/>
      <point x="383.991" y="431.634"/>
      <point x="372.489" y="434.136" type="curve" smooth="yes"/>
      <point x="366.434" y="435.189"/>
      <point x="357.467" y="435.968"/>
      <point x="345.687" y="436.406" type="curve" smooth="yes"/>
      <point x="329" y="436.729" type="line"/>
    </contour>
  </outline>
</glyph>
<glyph name="z" format="2">
  <advance width="514"/>
  <unicode hex="007A"/>
  <outline>
    <contour>
      <point x="431.243" y="195" type="line"/>
      <point x="491.837" y="195" type="line"/>
      <point x="472.337" y="-35" type="line"/>
      <point x="21" y="-35" type="line"/>
      <point x="21" y="12.2021" type="line"/>
      <point x="260.332" y="393.902" type="line"/>
      <point x="133.838" y="392.172"/>
      <point x="118.604" y="373.721"/>
      <point x="98.4238" y="297.046" type="curve" smooth="yes"/>
      <point x="94.9902" y="284" type="line"/>
      <point x="37.1162" y="284" type="line"/>
      <point x="45.8418" y="461" type="line"/>
      <point x="486" y="461" type="line"/>
      <point x="486" y="418.439" type="line"/>
      <point x="248.732" y="67.001" type="line"/>
      <point x="338.329" y="67.1123"/>
      <point x="368.249" y="77.3926"/>
      <point x="397.464" y="116.949" type="curve" smooth="yes"/>
      <point x="411.881" y="136.47"/>
      <point x="418.859" y="150.977"/>
      <point x="427.653" y="182.238" type="curve" smooth="yes"/>
    </contour>
  </outline>
</glyph>
<glyph name="asciitilde" format="2">
  <advance width="520"/>
  <unicode hex="007E"/>
  <outline>
    <contour>
      <point x="433.585" y="333.335" type="line"/>
      <point x="514.468" y="262.746" type="line"/>
      <point x="505.24" y="249.828" type="line" smooth="yes"/>
      <point x="457.688" y="183.256"/>
      <point x="420.78" y="157.5"/>
      <point x="368" y="157.5" type="curve" smooth="yes"/>
      <point x="331.814" y="157.5"/>
      <point x="301.348" y="167.241"/>
      <point x="254.644" y="192.624" type="curve" smooth="yes"/>
      <point x="209.581" y="217.114"/>
      <point x="182.399" y="225.5"/>
      <point x="151" y="225.5" type="curve" smooth="yes"/>
      <point x="126.66" y="225.5"/>
      <point x="115.1" y="217.067"/>
      <point x="96.21" y="190.786" type="curve" smooth="yes"/>
      <point x="85.0156" y="175.211" type="line"/>
      <point x="6.63477" y="243.239" type="line"/>
      <point x="13.8379" y="255.737" type="line" smooth="yes"/>
      <point x="50.8916" y="320.037"/>
      <point x="92.9326" y="348.5"/>
      <point x="153" y="348.5" type="curve" smooth="yes"/>
      <point x="189.703" y="348.5"/>
      <point x="219.037" y="338.517"/>
      <point x="294.102" y="304.994" type="curve" smooth="yes"/>
      <point x="336.654" y="285.99"/>
      <point x="353.195" y="280.5"/>
      <point x="368" y="280.5" type="curve" smooth="yes"/>
      <point x="389.684" y="280.5"/>
      <point x="406.563" y="298.747"/>
      <point x="422.21" y="318.773" type="curve" smooth="yes"/>
    </contour>
  </outline>
</glyph>
<glyph name="uni0595" format="2">
  <advance width="0"/>
  <unicode hex="0595"/>
  <outline>
    <contour>
      <point x="-48" y="633" type="curve" smooth="yes"/>
      <point x="-72" y="633" type="line" smooth="yes"/>
      <point x="-88.9502" y="633"/>
      <point x="-105.5" y="645.6"/>
      <point x="-105.5" y="664.5" type="curve" smooth="yes"/>
      <point x="-105.5" y="820.5" type="line" smooth="yes"/>
      <point x="-105.5" y="839.844"/>
      <point x="-88.5146" y="852"/>
      <point x="-72" y="852" type="curve" smooth="yes"/>
      <point x="-48" y="852" type="line" smooth="yes"/>
      <point x="-31.0498" y="852"/>
      <point x="-14.5" y="839.4"/>
      <point x="-14.5" y="820.5" type="curve" smooth="yes"/>
      <point x="-14.5" y="664.5" type="line" smooth="yes"/>
      <point x="-14.5" y="645.156"/>
      <point x="-31.4854" y="633"/>
    </contour>
    <contour>
      <point x="50" y="740" type="curve" smooth="yes"/>
      <point x="80.6523" y="740"/>
      <point x="105.5" y="715.14"/>
      <point x="105.5" y="684.5" type="curve" smooth="yes"/>
      <point x="105.5" y="654.4"/>
      <point x="80.5693" y="630"/>
      <point x="50" y="630" type="curve" smooth="yes"/>
      <point x="19.4326" y="630"/>
      <point x="-5.5" y="654.404"/>
      <point x="-5.5" y="684.5" type="curve" smooth="yes"/>
      <point x="-5.5" y="715.152"/>
      <point x="19.3604" y="740"/>
    </contour>
    <contour>
      <point x="50" y="855" type="curve" smooth="yes"/>
      <point x="80.5674" y="855"/>
      <point x="105.5" y="830.596"/>
      <point x="105.5" y="800.5" type="curve" smooth="yes"/>
      <point x="105.5" y="769.848"/>
      <point x="80.6396" y="745"/>
      <point x="50" y="745" type="curve" smooth="yes"/>
      <point x="19.3477" y="745"/>
      <point x="-5.5" y="769.86"/>
      <point x="-5.5" y="800.5" type="curve" smooth="yes"/>
      <point x="-5.5" y="830.6"/>
      <point x="19.4307" y="855"/>
    </contour>
  </outline>
</glyph>
<glyph name="uni059A" format="2">
  <advance width="0"/>
  <unicode hex="059A"/>
  <outline>
    <contour>
      <point x="77.709" y="-22.6016" type="line" smooth="yes"/>
      <point x="80.1494" y="-21.3818"/>
      <point x="81.3467" y="-19.6514"/>
      <point x="91" y="-20" type="curve" smooth="yes"/>
      <point x="93.4785" y="-20.0898"/>
      <point x="103.123" y="-19.4688"/>
      <point x="113.669" y="-28.0547" type="curve" smooth="yes"/>
      <point x="121.254" y="-34.2285"/>
      <point x="126.5" y="-43.6387"/>
      <point x="126.5" y="-54.5" type="curve" smooth="yes"/>
      <point x="126.5" y="-70.4023"/>
      <point x="115.919" y="-82.084"/>
      <point x="105.289" y="-87.3984" type="curve" smooth="yes"/>
      <point x="33.6846" y="-117.364" type="line"/>
      <point x="101.577" y="-145.283" type="line" smooth="yes"/>
      <point x="108.478" y="-148.842"/>
      <point x="110.326" y="-149.213"/>
      <point x="114.857" y="-153.339" type="curve" smooth="yes"/>
      <point x="119.61" y="-157.668"/>
      <point x="122.414" y="-162.575"/>
      <point x="124.053" y="-167.111" type="curve" smooth="yes"/>
      <point x="125.614" y="-171.438"/>
      <point x="126.5" y="-176.345"/>
      <point x="126.5" y="-182.5" type="curve" smooth="yes"/>
      <point x="126.5" y="-207.5" type="line" smooth="yes"/>
      <point x="126.5" y="-224.075"/>
      <point x="116.125" y="-235.125"/>
      <point x="100.562" y="-235.125" type="curve" smooth="yes"/>
      <point x="96.2979" y="-235.125"/>
      <point x="92.0781" y="-234.088"/>
      <point x="88.5566" y="-232.768" type="curve" smooth="yes"/>
      <point x="-105.513" y="-151.741" type="line" smooth="yes"/>
      <point x="-119.308" y="-146.436"/>
      <point x="-126.25" y="-136.033"/>
      <point x="-126.25" y="-125.5" type="curve" smooth="yes"/>
      <point x="-126.25" y="-114.967"/>
      <point x="-119.314" y="-104.567"/>
      <point x="-105.519" y="-99.2617" type="curve" smooth="yes"/>
    </contour>
  </outline>
</glyph>
<glyph name="uni059E" format="2">
  <advance width="0"/>
  <unicode hex="059E"/>
  <outline>
    <contour>
      <point x="-82.707" y="656.824" type="curve" smooth="yes"/>
      <point x="-85.2824" y="641.026"/>
      <point x="-98.6143" y="630"/>
      <point x="-114" y="630" type="curve" smooth="yes"/>
      <point x="-129.75" y="630"/>
      <point x="-145.891" y="642.831"/>
      <point x="-145.497" y="661.728" type="curve" smooth="yes"/>
      <point x="-143.909" y="738.005"/>
      <point x="-115.198" y="827.369"/>
      <point x="-49.5977" y="875.42" type="curve" smooth="yes"/>
      <point x="-41.1982" y="881.572"/>
      <point x="-31.8818" y="885"/>
      <point x="-22" y="885" type="curve" smooth="yes"/>
      <point x="4.24512" y="885"/>
      <point x="25.5" y="863.694"/>
      <point x="25.5" y="837.5" type="curve" smooth="yes"/>
      <point x="25.5" y="833.974"/>
      <point x="25.1521" y="830.699"/>
      <point x="24.5374" y="827.666" type="curve"/>
      <point x="37.1835" y="845.944"/>
      <point x="52.4046" y="862.237"/>
      <point x="70.4023" y="875.42" type="curve" smooth="yes"/>
      <point x="78.8018" y="881.572"/>
      <point x="88.1182" y="885"/>
      <point x="98" y="885" type="curve" smooth="yes"/>
      <point x="124.245" y="885"/>
      <point x="145.5" y="863.694"/>
      <point x="145.5" y="837.5" type="curve" smooth="yes"/>
      <point x="145.5" y="813.709"/>
      <point x="129.662" y="801.322"/>
      <point x="122.885" y="797.877" type="curve" smooth="yes"/>
      <point x="73.1577" y="772.598"/>
      <point x="51.5645" y="744.368"/>
      <point x="37.293" y="656.824" type="curve" smooth="yes"/>
      <point x="34.7176" y="641.026"/>
      <point x="21.3857" y="630"/>
      <point x="6" y="630" type="curve" smooth="yes"/>
      <point x="-9.75" y="630"/>
      <point x="-25.8905" y="642.831"/>
      <point x="-25.4971" y="661.728" type="curve" smooth="yes"/>
      <point x="-24.5397" y="707.705"/>
      <point x="-13.728" y="758.438"/>
      <point x="9.07733" y="802.011" type="curve"/>
      <point x="6.71609" y="800.081"/>
      <point x="4.5326" y="798.715"/>
      <point x="2.88477" y="797.877" type="curve" smooth="yes"/>
      <point x="-46.8423" y="772.598"/>
      <point x="-68.4355" y="744.368"/>
    </contour>
  </outline>
</glyph>
<glyph name="uni059F" format="2">
  <advance width="0"/>
  <unicode hex="059F"/>
  <outline>
    <contour>
      <point x="-44.1157" y="727.066" type="line"/>
      <point x="-17.9453" y="684.418" type="line" smooth="yes"/>
      <point x="-15.4385" y="680.031"/>
      <point x="-13.2148" y="674.419"/>
      <point x="-13.2148" y="668.201" type="curve" smooth="yes"/>
      <point x="-13.2148" y="653.148"/>
      <point x="-24.8086" y="645.76"/>
      <point x="-32.0752" y="643.035" type="curve" smooth="yes"/>
      <point x="-61.0752" y="633.035" type="line" smooth="yes"/>
      <point x="-65.7451" y="631.284"/>
      <point x="-69.5293" y="630.676"/>
      <point x="-73.2559" y="630.676" type="curve" smooth="yes"/>
      <point x="-86.584" y="630.676"/>
      <point x="-95.334" y="639.568"/>
      <point x="-99.4941" y="650.66" type="curve" smooth="yes"/>
      <point x="-110.403" y="683.412" type="line"/>
      <point x="-117.095" y="681.983"/>
      <point x="-124.059" y="681.212"/>
      <point x="-131.167" y="681.212" type="curve" smooth="yes"/>
      <point x="-142.017" y="681.212"/>
      <point x="-153.117" y="683.078"/>
      <point x="-164.062" y="687.084" type="curve" smooth="yes"/>
      <point x="-205.68" y="702.315"/>
      <point x="-231.591" y="741.688"/>
      <point x="-231.591" y="783.687" type="curve" smooth="yes"/>
      <point x="-231.591" y="795.26"/>
      <point x="-229.606" y="807.041"/>
      <point x="-225.446" y="818.48" type="curve" smooth="yes"/>
      <point x="-210.301" y="860.129"/>
      <point x="-170.812" y="886.091"/>
      <point x="-128.813" y="886.091" type="curve" smooth="yes"/>
      <point x="-117.24" y="886.091"/>
      <point x="-105.294" y="884.191"/>
      <point x="-93.9014" y="879.902" type="curve" smooth="yes"/>
      <point x="-51.8867" y="864.084"/>
      <point x="-27.4287" y="824.014"/>
      <point x="-27.4287" y="783.117" type="curve" smooth="yes"/>
      <point x="-27.4287" y="765.221"/>
      <point x="-32.3208" y="746.607"/>
      <point x="-42.2168" y="730.145" type="curve" smooth="yes"/>
    </contour>
    <contour>
      <point x="-96.2461" y="777.336" type="curve" smooth="yes"/>
      <point x="-96.2461" y="789.39"/>
      <point x="-104.22" y="802.053"/>
      <point x="-117.214" y="807.143" type="curve" smooth="yes"/>
      <point x="-120.606" y="808.471"/>
      <point x="-123.812" y="808.844"/>
      <point x="-127.239" y="808.844" type="curve" smooth="yes"/>
      <point x="-139.864" y="808.844"/>
      <point x="-151.87" y="800.936"/>
      <point x="-156.499" y="787.674" type="curve" smooth="yes"/>
      <point x="-157.705" y="784.217"/>
      <point x="-158.354" y="780.641"/>
      <point x="-158.354" y="777.174" type="curve" smooth="yes"/>
      <point x="-158.354" y="764.465"/>
      <point x="-150.416" y="752.411"/>
      <point x="-138.072" y="747.966" type="curve" smooth="yes"/>
      <point x="-134.627" y="746.725"/>
      <point x="-131.141" y="746.146"/>
      <point x="-127.673" y="746.146" type="curve" smooth="yes"/>
      <point x="-114.965" y="746.146"/>
      <point x="-102.898" y="754.404"/>
      <point x="-98.3574" y="766.714" type="curve" smooth="yes"/>
      <point x="-97.0707" y="770.202"/>
      <point x="-96.2461" y="773.885"/>
    </contour>
    <contour>
      <point x="127.239" y="808.844" type="curve" smooth="yes"/>
      <point x="123.813" y="808.844"/>
      <point x="120.604" y="808.47"/>
      <point x="117.214" y="807.143" type="curve" smooth="yes"/>
      <point x="104.227" y="802.055"/>
      <point x="96.2461" y="789.39"/>
      <point x="96.2461" y="777.336" type="curve" smooth="yes"/>
      <point x="96.2461" y="773.886"/>
      <point x="97.0716" y="770.2"/>
      <point x="98.3574" y="766.714" type="curve" smooth="yes"/>
      <point x="102.902" y="754.392"/>
      <point x="114.954" y="746.146"/>
      <point x="127.673" y="746.146" type="curve" smooth="yes"/>
      <point x="131.139" y="746.146"/>
      <point x="134.629" y="746.726"/>
      <point x="138.072" y="747.966" type="curve" smooth="yes"/>
      <point x="150.428" y="752.415"/>
      <point x="158.354" y="764.454"/>
      <point x="158.354" y="777.174" type="curve" smooth="yes"/>
      <point x="158.354" y="780.639"/>
      <point x="157.705" y="784.218"/>
      <point x="156.499" y="787.674" type="curve" smooth="yes"/>
      <point x="151.865" y="800.95"/>
      <point x="139.871" y="808.844"/>
    </contour>
    <contour>
      <point x="131.167" y="681.212" type="curve" smooth="yes"/>
      <point x="124.057" y="681.212"/>
      <point x="117.095" y="681.983"/>
      <point x="110.403" y="683.412" type="curve"/>
      <point x="99.4941" y="650.66" type="line" smooth="yes"/>
      <point x="96.6377" y="643.045"/>
      <point x="88.9336" y="630.676"/>
      <point x="73.2559" y="630.676" type="curve" smooth="yes"/>
      <point x="69.5293" y="630.676"/>
      <point x="65.7451" y="631.284"/>
      <point x="61.0752" y="633.035" type="curve" smooth="yes"/>
      <point x="32.0752" y="643.035" type="line" smooth="yes"/>
      <point x="23.4238" y="646.279"/>
      <point x="13.2148" y="654.343"/>
      <point x="13.2148" y="668.201" type="curve" smooth="yes"/>
      <point x="13.2148" y="674.594"/>
      <point x="15.5488" y="680.225"/>
      <point x="17.9453" y="684.418" type="curve" smooth="yes"/>
      <point x="44.1311" y="727.091" type="line"/>
      <point x="42.2168" y="730.145" type="line" smooth="yes"/>
      <point x="32.2887" y="746.59"/>
      <point x="27.4287" y="765.219"/>
      <point x="27.4287" y="783.117" type="curve" smooth="yes"/>
      <point x="27.4287" y="824.008"/>
      <point x="51.8936" y="864.087"/>
      <point x="93.9014" y="879.902" type="curve" smooth="yes"/>
      <point x="105.295" y="884.191"/>
      <point x="117.24" y="886.091"/>
      <point x="128.813" y="886.091" type="curve" smooth="yes"/>
      <point x="170.809" y="886.091"/>
      <point x="210.303" y="860.125"/>
      <point x="225.446" y="818.48" type="curve" smooth="yes"/>
      <point x="229.606" y="807.04"/>
      <point x="231.591" y="795.261"/>
      <point x="231.591" y="783.687" type="curve" smooth="yes"/>
      <point x="231.591" y="741.691"/>
      <point x="205.676" y="702.315"/>
      <point x="164.062" y="687.084" type="curve" smooth="yes"/>
      <point x="153.115" y="683.077"/>
      <point x="142.02" y="681.212"/>
    </contour>
  </outline>
</glyph>
<glyph name="uni05A0" format="2">
  <advance width="0"/>
  <unicode hex="05A0"/>
  <outline>
    <contour>
      <point x="4.75391" y="808.844" type="curve" smooth="yes"/>
      <point x="1.14844" y="808.844"/>
      <point x="-2.21582" y="808.531"/>
      <point x="-5.8877" y="807.107" type="curve" smooth="yes"/>
      <point x="-18.79" y="802.103"/>
      <point x="-26.3535" y="789.558"/>
      <point x="-26.3535" y="776.837" type="curve" smooth="yes"/>
      <point x="-26.3535" y="773.357"/>
      <point x="-25.774" y="769.871"/>
      <point x="-24.5342" y="766.428" type="curve" smooth="yes"/>
      <point x="-20.0914" y="754.088"/>
      <point x="-8.21191" y="746.146"/>
      <point x="5.15723" y="746.146" type="curve" smooth="yes"/>
      <point x="8.80176" y="746.146"/>
      <point x="12.4443" y="746.671"/>
      <point x="16.1738" y="748.001" type="curve" smooth="yes"/>
      <point x="28.543" y="752.414"/>
      <point x="36.3535" y="764.454"/>
      <point x="36.3535" y="777.174" type="curve" smooth="yes"/>
      <point x="36.3535" y="780.639"/>
      <point x="35.7051" y="784.218"/>
      <point x="34.499" y="787.674" type="curve" smooth="yes"/>
      <point x="29.8711" y="800.934"/>
      <point x="18.04" y="808.844"/>
    </contour>
    <contour>
      <point x="9" y="681.212" type="curve" smooth="yes"/>
      <point x="1.98854" y="681.212"/>
      <point x="-4.92172" y="681.941"/>
      <point x="-11.6448" y="683.269" type="curve"/>
      <point x="-22.5059" y="650.66" type="line" smooth="yes"/>
      <point x="-25.4707" y="642.756"/>
      <point x="-33.208" y="630.676"/>
      <point x="-49.0996" y="630.676" type="curve" smooth="yes"/>
      <point x="-51.5869" y="630.676"/>
      <point x="-55.7871" y="630.984"/>
      <point x="-61.71" y="632.959" type="curve" smooth="yes"/>
      <point x="-90.0156" y="643.066" type="line" smooth="yes"/>
      <point x="-100.475" y="646.989"/>
      <point x="-109.226" y="655.608"/>
      <point x="-109.226" y="668.301" type="curve" smooth="yes"/>
      <point x="-109.226" y="675.249"/>
      <point x="-106.739" y="680.717"/>
      <point x="-103.653" y="685.037" type="curve" smooth="yes"/>
      <point x="-78.3513" y="727.918" type="line"/>
      <point x="-78.8279" y="728.771"/>
      <point x="-79.5288" y="729.736"/>
      <point x="-80.0781" y="730.628" type="curve" smooth="yes"/>
      <point x="-90.2966" y="747.218"/>
      <point x="-95.0127" y="765.205"/>
      <point x="-95.0127" y="783.222" type="curve" smooth="yes"/>
      <point x="-95.0127" y="824.279"/>
      <point x="-69.9697" y="864.139"/>
      <point x="-28.0986" y="879.902" type="curve" smooth="yes"/>
      <point x="-16.7051" y="884.191"/>
      <point x="-4.75977" y="886.091"/>
      <point x="6.81348" y="886.091" type="curve" smooth="yes"/>
      <point x="48.8086" y="886.091"/>
      <point x="88.3027" y="860.125"/>
      <point x="103.446" y="818.48" type="curve" smooth="yes"/>
      <point x="107.606" y="807.04"/>
      <point x="109.591" y="795.261"/>
      <point x="109.591" y="783.687" type="curve" smooth="yes"/>
      <point x="109.591" y="741.691"/>
      <point x="83.6758" y="702.314"/>
      <point x="42.0625" y="687.084" type="curve" smooth="yes"/>
      <point x="31.1143" y="683.077"/>
      <point x="19.9834" y="681.212"/>
    </contour>
  </outline>
</glyph>
<glyph name="uni05A5" format="2">
  <advance width="0"/>
  <unicode hex="05A5"/>
  <outline>
    <contour>
      <point x="22.707" y="-36.8242" type="curve" smooth="yes"/>
      <point x="25.2822" y="-21.0264"/>
      <point x="38.6143" y="-10"/>
      <point x="54" y="-10" type="curve" smooth="yes"/>
      <point x="69.75" y="-10"/>
      <point x="85.8906" y="-22.8311"/>
      <point x="85.4971" y="-41.7275" type="curve" smooth="yes"/>
      <point x="83.9092" y="-118.005"/>
      <point x="55.1982" y="-207.369"/>
      <point x="-10.4023" y="-255.42" type="curve" smooth="yes"/>
      <point x="-18.8018" y="-261.572"/>
      <point x="-28.1182" y="-265"/>
      <point x="-38" y="-265" type="curve" smooth="yes"/>
      <point x="-64.2451" y="-265"/>
      <point x="-85.5" y="-243.694"/>
      <point x="-85.5" y="-217.5" type="curve" smooth="yes"/>
      <point x="-85.5" y="-193.709"/>
      <point x="-69.6621" y="-181.322"/>
      <point x="-62.8848" y="-177.877" type="curve" smooth="yes"/>
      <point x="-13.1562" y="-152.601"/>
      <point x="8.43555" y="-124.368"/>
    </contour>
  </outline>
</glyph>
<glyph name="uni05A6" format="2">
  <advance width="0"/>
  <unicode hex="05A6"/>
  <outline>
    <contour>
      <point x="82.707" y="-36.8242" type="curve" smooth="yes"/>
      <point x="85.2824" y="-21.0264"/>
      <point x="98.6143" y="-10"/>
      <point x="114" y="-10" type="curve" smooth="yes"/>
      <point x="129.75" y="-10"/>
      <point x="145.891" y="-22.8311"/>
      <point x="145.497" y="-41.7275" type="curve" smooth="yes"/>
      <point x="143.909" y="-118.005"/>
      <point x="115.198" y="-207.369"/>
      <point x="49.5977" y="-255.42" type="curve" smooth="yes"/>
      <point x="41.1982" y="-261.572"/>
      <point x="31.8818" y="-265"/>
      <point x="22" y="-265" type="curve" smooth="yes"/>
      <point x="-4.24512" y="-265"/>
      <point x="-25.5" y="-243.694"/>
      <point x="-25.5" y="-217.5" type="curve" smooth="yes"/>
      <point x="-25.5" y="-213.974"/>
      <point x="-25.1521" y="-210.699"/>
      <point x="-24.5374" y="-207.666" type="curve"/>
      <point x="-37.1835" y="-225.944"/>
      <point x="-52.4046" y="-242.237"/>
      <point x="-70.4023" y="-255.42" type="curve" smooth="yes"/>
      <point x="-78.8018" y="-261.572"/>
      <point x="-88.1182" y="-265"/>
      <point x="-98" y="-265" type="curve" smooth="yes"/>
      <point x="-124.245" y="-265"/>
      <point x="-145.5" y="-243.694"/>
      <point x="-145.5" y="-217.5" type="curve" smooth="yes"/>
      <point x="-145.5" y="-193.709"/>
      <point x="-129.662" y="-181.322"/>
      <point x="-122.885" y="-177.877" type="curve" smooth="yes"/>
      <point x="-73.1577" y="-152.598"/>
      <point x="-51.5645" y="-124.368"/>
      <point x="-37.293" y="-36.8242" type="curve" smooth="yes"/>
      <point x="-34.7176" y="-21.0264"/>
      <point x="-21.3857" y="-10"/>
      <point x="-6" y="-10" type="curve" smooth="yes"/>
      <point x="9.75" y="-10"/>
      <point x="25.8905" y="-22.8311"/>
      <point x="25.4971" y="-41.7275" type="curve" smooth="yes"/>
      <point x="24.5397" y="-87.7052"/>
      <point x="13.728" y="-138.438"/>
      <point x="-9.07734" y="-182.011" type="curve"/>
      <point x="-6.7161" y="-180.081"/>
      <point x="-4.53261" y="-178.715"/>
      <point x="-2.88477" y="-177.877" type="curve" smooth="yes"/>
      <point x="46.8423" y="-152.598"/>
      <point x="68.4355" y="-124.368"/>
    </contour>
  </outline>
</glyph>
<glyph name="uni05A9" format="2">
  <advance width="0"/>
  <unicode hex="05A9"/>
  <outline>
    <contour>
      <point x="78.355" y="727.911" type="curve"/>
      <point x="103.653" y="685.037" type="line" smooth="yes"/>
      <point x="106.739" y="680.717"/>
      <point x="109.226" y="675.249"/>
      <point x="109.226" y="668.301" type="curve" smooth="yes"/>
      <point x="109.226" y="653.188"/>
      <point x="97.375" y="645.827"/>
      <point x="90.0156" y="643.066" type="curve" smooth="yes"/>
      <point x="61.71" y="632.959" type="line" smooth="yes"/>
      <point x="58.0537" y="631.74"/>
      <point x="53.5977" y="630.676"/>
      <point x="49.0996" y="630.676" type="curve" smooth="yes"/>
      <point x="33.208" y="630.676"/>
      <point x="25.4707" y="642.756"/>
      <point x="22.5059" y="650.66" type="curve" smooth="yes"/>
      <point x="11.6448" y="683.269" type="line"/>
      <point x="4.92188" y="681.941"/>
      <point x="-1.9891" y="681.212"/>
      <point x="-9" y="681.212" type="curve" smooth="yes"/>
      <point x="-19.9805" y="681.212"/>
      <point x="-31.1162" y="683.078"/>
      <point x="-42.0625" y="687.084" type="curve" smooth="yes"/>
      <point x="-83.6797" y="702.315"/>
      <point x="-109.591" y="741.688"/>
      <point x="-109.591" y="783.687" type="curve" smooth="yes"/>
      <point x="-109.591" y="795.26"/>
      <point x="-107.606" y="807.041"/>
      <point x="-103.446" y="818.48" type="curve" smooth="yes"/>
      <point x="-88.301" y="860.129"/>
      <point x="-48.8125" y="886.091"/>
      <point x="-6.81348" y="886.091" type="curve" smooth="yes"/>
      <point x="4.75977" y="886.091"/>
      <point x="16.706" y="884.191"/>
      <point x="28.0986" y="879.902" type="curve" smooth="yes"/>
      <point x="69.9756" y="864.137"/>
      <point x="95.0127" y="824.284"/>
      <point x="95.0127" y="783.222" type="curve" smooth="yes"/>
      <point x="95.0127" y="765.207"/>
      <point x="90.1702" y="747.292"/>
      <point x="80.0781" y="730.628" type="curve" smooth="yes"/>
      <point x="79.3092" y="729.358"/>
      <point x="78.7227" y="728.532"/>
    </contour>
    <contour>
      <point x="26.3535" y="776.837" type="curve" smooth="yes"/>
      <point x="26.3535" y="789.551"/>
      <point x="18.7851" y="802.104"/>
      <point x="5.8877" y="807.107" type="curve" smooth="yes"/>
      <point x="2.21483" y="808.532"/>
      <point x="-1.14844" y="808.844"/>
      <point x="-4.75391" y="808.844" type="curve" smooth="yes"/>
      <point x="-18.0352" y="808.844"/>
      <point x="-29.877" y="800.916"/>
      <point x="-34.499" y="787.674" type="curve" smooth="yes"/>
      <point x="-35.7051" y="784.217"/>
      <point x="-36.3535" y="780.641"/>
      <point x="-36.3535" y="777.174" type="curve" smooth="yes"/>
      <point x="-36.3535" y="764.465"/>
      <point x="-28.5312" y="752.41"/>
      <point x="-16.1738" y="748.001" type="curve" smooth="yes"/>
      <point x="-12.4434" y="746.671"/>
      <point x="-8.80273" y="746.146"/>
      <point x="-5.15723" y="746.146" type="curve" smooth="yes"/>
      <point x="8.20312" y="746.146"/>
      <point x="20.0961" y="754.104"/>
      <point x="24.5342" y="766.428" type="curve" smooth="yes"/>
      <point x="25.775" y="769.873"/>
      <point x="26.3535" y="773.355"/>
    </contour>
  </outline>
</glyph>
<glyph name="uni05AA" format="2">
  <advance width="0"/>
  <unicode hex="05AA"/>
  <outline>
    <contour>
      <point x="-109.5" y="-105" type="curve" smooth="yes"/>
      <point x="-109.5" y="-60" type="line" smooth="yes"/>
      <point x="-109.5" y="-34.7972"/>
      <point x="-96.8447" y="-10"/>
      <point x="-78" y="-10" type="curve" smooth="yes"/>
      <point x="-52" y="-10" type="line" smooth="yes"/>
      <point x="-32.9609" y="-10"/>
      <point x="-20.5" y="-34.5508"/>
      <point x="-20.5" y="-60" type="curve" smooth="yes"/>
      <point x="-20.5" y="-102" type="line" smooth="yes"/>
      <point x="-20.5" y="-103.661"/>
      <point x="-11.3604" y="-105"/>
      <point x="0" y="-105" type="curve" smooth="yes"/>
      <point x="11.3477" y="-105"/>
      <point x="20.5" y="-103.662"/>
      <point x="20.5" y="-102" type="curve" smooth="yes"/>
      <point x="20.5" y="-60" type="line" smooth="yes"/>
      <point x="20.5" y="-34.7972"/>
      <point x="33.1553" y="-10"/>
      <point x="52" y="-10" type="curve" smooth="yes"/>
      <point x="78" y="-10" type="line" smooth="yes"/>
      <point x="97.0391" y="-10"/>
      <point x="109.5" y="-34.5508"/>
      <point x="109.5" y="-60" type="curve" smooth="yes"/>
      <point x="109.5" y="-105" type="line" smooth="yes"/>
      <point x="109.5" y="-135.008"/>
      <point x="74.46" y="-153.506"/>
      <point x="45.5" y="-160.9" type="curve"/>
      <point x="45.5" y="-220" type="line" smooth="yes"/>
      <point x="45.5" y="-228.524"/>
      <point x="30.1904" y="-235"/>
      <point x="12" y="-235" type="curve" smooth="yes"/>
      <point x="-12" y="-235" type="line" smooth="yes"/>
      <point x="-30.1562" y="-235"/>
      <point x="-45.5" y="-228.515"/>
      <point x="-45.5" y="-220" type="curve" smooth="yes"/>
      <point x="-45.5" y="-161.359" type="line"/>
      <point x="-77.5146" y="-154.164"/>
      <point x="-109.5" y="-134.229"/>
    </contour>
  </outline>
</glyph>
<glyph name="uni05AE" format="2">
  <advance width="0"/>
  <unicode hex="05AE"/>
  <outline>
    <contour>
      <point x="-76.292" y="733.045" type="line" smooth="yes"/>
      <point x="-76.7764" y="733.529"/>
      <point x="-79.2002" y="736"/>
      <point x="-84" y="736" type="curve" smooth="yes"/>
      <point x="-90.3154" y="736"/>
      <point x="-95.5" y="730.83"/>
      <point x="-95.5" y="724.5" type="curve" smooth="yes"/>
      <point x="-95.5" y="709.562"/>
      <point x="-82.2656" y="697"/>
      <point x="-68" y="697" type="curve" smooth="yes"/>
      <point x="-49.5869" y="697"/>
      <point x="-34.5" y="681.809"/>
      <point x="-34.5" y="663.5" type="curve" smooth="yes"/>
      <point x="-34.5" y="645.086"/>
      <point x="-49.6914" y="630"/>
      <point x="-68" y="630" type="curve" smooth="yes"/>
      <point x="-119.86" y="630"/>
      <point x="-162.5" y="672.64"/>
      <point x="-162.5" y="724.5" type="curve" smooth="yes"/>
      <point x="-162.5" y="777.145"/>
      <point x="-119.897" y="820"/>
      <point x="-68" y="820" type="curve" smooth="yes"/>
      <point x="-41.1436" y="820"/>
      <point x="-17.5771" y="808.826"/>
      <point x="-0.666016" y="791.915" type="curve" smooth="yes"/>
      <point x="76.334" y="715.915" type="line" smooth="yes"/>
      <point x="76.8184" y="715.431"/>
      <point x="79.2002" y="713"/>
      <point x="84" y="713" type="curve" smooth="yes"/>
      <point x="90.3154" y="713"/>
      <point x="95.5" y="718.17"/>
      <point x="95.5" y="724.5" type="curve" smooth="yes"/>
      <point x="95.5" y="739.438"/>
      <point x="82.2656" y="752"/>
      <point x="68" y="752" type="curve" smooth="yes"/>
      <point x="48.1992" y="752"/>
      <point x="34.5" y="767.544"/>
      <point x="34.5" y="785.5" type="curve" smooth="yes"/>
      <point x="34.5" y="803.236"/>
      <point x="48.084" y="820"/>
      <point x="68" y="820" type="curve" smooth="yes"/>
      <point x="119.9" y="820"/>
      <point x="162.5" y="777.143"/>
      <point x="162.5" y="724.5" type="curve" smooth="yes"/>
      <point x="162.5" y="672.64"/>
      <point x="119.86" y="630"/>
      <point x="68" y="630" type="curve" smooth="yes"/>
      <point x="41.1436" y="630"/>
      <point x="17.6191" y="641.134"/>
      <point x="0.708008" y="658.045" type="curve" smooth="yes"/>
    </contour>
  </outline>
</glyph>
<glyph name="afii57802" format="2">
  <advance width="0"/>
  <unicode hex="05B3"/>
  <outline>
    <contour>
      <point x="-122" y="-110" type="curve" smooth="yes"/>
      <point x="-155" y="-110" type="line" smooth="yes"/>
      <point x="-174.5" y="-110"/>
      <point x="-187.5" y="-93.75"/>
      <point x="-187.5" y="-77.5" type="curve" smooth="yes"/>
      <point x="-187.5" y="-52.5" type="line" smooth="yes"/>
      <point x="-187.5" y="-36.25"/>
      <point x="-174.5" y="-20"/>
      <point x="-155" y="-20" type="curve" smooth="yes"/>
      <point x="23" y="-20" type="line" smooth="yes"/>
      <point x="42.5" y="-20"/>
      <point x="55.5" y="-36.25"/>
      <point x="55.5" y="-52.5" type="curve" smooth="yes"/>
      <point x="55.5" y="-77.5" type="line" smooth="yes"/>
      <point x="55.5" y="-93.75"/>
      <point x="42.5" y="-110"/>
      <point x="23" y="-110" type="curve" smooth="yes"/>
      <point x="-10" y="-110" type="line" smooth="yes"/>
      <point x="-14.834" y="-110.169"/>
      <point x="-16.6445" y="-110.157"/>
      <point x="-18.2988" y="-110.288" type="curve" smooth="yes"/>
      <point x="-29.708" y="-111.186"/>
      <point x="-30.5" y="-112.1"/>
      <point x="-30.5" y="-120.5" type="curve" smooth="yes"/>
      <point x="-30.5" y="-121.385"/>
      <point x="-30.5234" y="-124.039"/>
      <point x="-30.5234" y="-124.923" type="curve" smooth="yes"/>
      <point x="-30.5234" y="-130.859"/>
      <point x="-30.8145" y="-136.864"/>
      <point x="-25.1328" y="-143.661" type="curve" smooth="yes"/>
      <point x="-23.3887" y="-145.748"/>
      <point x="-16.2773" y="-151.802"/>
      <point x="-12.9072" y="-167.155" type="curve" smooth="yes"/>
      <point x="-11.9463" y="-171.531"/>
      <point x="-11.5" y="-176"/>
      <point x="-11.5" y="-180.5" type="curve" smooth="yes"/>
      <point x="-11.5" y="-209.896"/>
      <point x="-35.21" y="-235"/>
      <point x="-66" y="-235" type="curve" smooth="yes"/>
      <point x="-96.5674" y="-235"/>
      <point x="-121.5" y="-210.596"/>
      <point x="-121.5" y="-180.5" type="curve" smooth="yes"/>
      <point x="-121.5" y="-165.728"/>
      <point x="-115.325" y="-152.602"/>
      <point x="-107.094" y="-142.893" type="curve" smooth="yes"/>
      <point x="-106.416" y="-142.095"/>
      <point x="-103.586" y="-139.474"/>
      <point x="-102.718" y="-134.019" type="curve" smooth="yes"/>
      <point x="-102.369" y="-131.827"/>
      <point x="-102.357" y="-129.484"/>
      <point x="-102.357" y="-128.459" type="curve" smooth="yes"/>
      <point x="-102.357" y="-125.627"/>
      <point x="-102.35" y="-123.441"/>
      <point x="-102.5" y="-120.5" type="curve" smooth="yes"/>
      <point x="-102.862" y="-113.386"/>
      <point x="-100.902" y="-111.406"/>
      <point x="-114.398" y="-110.281" type="curve" smooth="yes"/>
      <point x="-114.837" y="-110.245"/>
      <point x="-116.8" y="-110"/>
    </contour>
    <contour>
      <point x="131" y="-125" type="curve" smooth="yes"/>
      <point x="161.91" y="-125"/>
      <point x="185.5" y="-150.548"/>
      <point x="185.5" y="-180.5" type="curve" smooth="yes"/>
      <point x="185.5" y="-209.896"/>
      <point x="161.79" y="-235"/>
      <point x="131" y="-235" type="curve" smooth="yes"/>
      <point x="100.433" y="-235"/>
      <point x="75.5" y="-210.596"/>
      <point x="75.5" y="-180.5" type="curve" smooth="yes"/>
      <point x="75.5" y="-149.848"/>
      <point x="100.36" y="-125"/>
    </contour>
    <contour>
      <point x="131" y="-10" type="curve" smooth="yes"/>
      <point x="161.82" y="-10"/>
      <point x="185.5" y="-35.1055"/>
      <point x="185.5" y="-64.5" type="curve" smooth="yes"/>
      <point x="185.5" y="-94.459"/>
      <point x="161.865" y="-120"/>
      <point x="131" y="-120" type="curve" smooth="yes"/>
      <point x="100.348" y="-120"/>
      <point x="75.5" y="-95.1396"/>
      <point x="75.5" y="-64.5" type="curve" smooth="yes"/>
      <point x="75.5" y="-34.4004"/>
      <point x="100.431" y="-10"/>
    </contour>
  </outline>
</glyph>
<glyph name="afii57794" format="2">
  <advance width="0"/>
  <unicode hex="05B5"/>
  <outline>
    <contour>
      <point x="58" y="-10" type="curve" smooth="yes"/>
      <point x="88.0137" y="-10"/>
      <point x="112.5" y="-42.336"/>
      <point x="112.5" y="-82" type="curve" smooth="yes"/>
      <point x="112.5" y="-102.929"/>
      <point x="88.0957" y="-120"/>
      <point x="58" y="-120" type="curve" smooth="yes"/>
      <point x="27.3477" y="-120"/>
      <point x="2.5" y="-102.979"/>
      <point x="2.5" y="-82" type="curve" smooth="yes"/>
      <point x="2.5" y="-42.2354"/>
      <point x="27.4307" y="-10"/>
    </contour>
    <contour>
      <point x="-58" y="-10" type="curve" smooth="yes"/>
      <point x="-27.4326" y="-10"/>
      <point x="-2.5" y="-42.2405"/>
      <point x="-2.5" y="-82" type="curve" smooth="yes"/>
      <point x="-2.5" y="-102.987"/>
      <point x="-27.3604" y="-120"/>
      <point x="-58" y="-120" type="curve" smooth="yes"/>
      <point x="-88.0996" y="-120"/>
      <point x="-112.5" y="-102.93"/>
      <point x="-112.5" y="-82" type="curve" smooth="yes"/>
      <point x="-112.5" y="-42.3489"/>
      <point x="-88.0234" y="-10"/>
    </contour>
  </outline>
</glyph>
<glyph name="afii57795" format="2">
  <advance width="0"/>
  <unicode hex="05B6"/>
  <outline>
    <contour>
      <point x="-67" y="-10" type="curve" smooth="yes"/>
      <point x="-36.1797" y="-10"/>
      <point x="-12.5" y="-35.1055"/>
      <point x="-12.5" y="-64.5" type="curve" smooth="yes"/>
      <point x="-12.5" y="-94.459"/>
      <point x="-36.1348" y="-120"/>
      <point x="-67" y="-120" type="curve" smooth="yes"/>
      <point x="-97.9102" y="-120"/>
      <point x="-121.5" y="-94.4521"/>
      <point x="-121.5" y="-64.5" type="curve" smooth="yes"/>
      <point x="-121.5" y="-35.1045"/>
      <point x="-97.79" y="-10"/>
    </contour>
    <contour>
      <point x="0" y="-125" type="curve" smooth="yes"/>
      <point x="30.6523" y="-125"/>
      <point x="55.5" y="-149.86"/>
      <point x="55.5" y="-180.5" type="curve" smooth="yes"/>
      <point x="55.5" y="-210.6"/>
      <point x="30.5693" y="-235"/>
      <point x="0" y="-235" type="curve" smooth="yes"/>
      <point x="-30.5674" y="-235"/>
      <point x="-55.5" y="-210.596"/>
      <point x="-55.5" y="-180.5" type="curve" smooth="yes"/>
      <point x="-55.5" y="-149.848"/>
      <point x="-30.6396" y="-125"/>
    </contour>
    <contour>
      <point x="67" y="-10" type="curve" smooth="yes"/>
      <point x="97.8203" y="-10"/>
      <point x="121.5" y="-35.1055"/>
      <point x="121.5" y="-64.5" type="curve" smooth="yes"/>
      <point x="121.5" y="-94.459"/>
      <point x="97.8652" y="-120"/>
      <point x="67" y="-120" type="curve" smooth="yes"/>
      <point x="36.0898" y="-120"/>
      <point x="12.5" y="-94.4521"/>
      <point x="12.5" y="-64.5" type="curve" smooth="yes"/>
      <point x="12.5" y="-35.1045"/>
      <point x="36.21" y="-10"/>
    </contour>
  </outline>
</glyph>
<glyph name="afii57798" format="2">
  <advance width="0"/>
  <unicode hex="05B7"/>
  <outline>
    <contour>
      <point x="-132.5" y="-52.5" type="line" smooth="yes"/>
      <point x="-132.5" y="-34.2998"/>
      <point x="-118.315" y="-20"/>
      <point x="-100" y="-20" type="curve" smooth="yes"/>
      <point x="100" y="-20" type="line" smooth="yes"/>
      <point x="118.2" y="-20"/>
      <point x="132.5" y="-34.1846"/>
      <point x="132.5" y="-52.5" type="curve" smooth="yes"/>
      <point x="132.5" y="-77.5" type="line" smooth="yes"/>
      <point x="132.5" y="-95.7002"/>
      <point x="118.315" y="-110"/>
      <point x="100" y="-110" type="curve" smooth="yes"/>
      <point x="-100" y="-110" type="line" smooth="yes"/>
      <point x="-118.2" y="-110"/>
      <point x="-132.5" y="-95.8154"/>
      <point x="-132.5" y="-77.5" type="curve" smooth="yes"/>
    </contour>
  </outline>
</glyph>
<glyph name="afii57796" format="2">
  <advance width="0"/>
  <unicode hex="05BB"/>
  <outline>
    <contour>
      <point x="105" y="-125" type="curve" smooth="yes"/>
      <point x="135.91" y="-125"/>
      <point x="159.5" y="-150.548"/>
      <point x="159.5" y="-180.5" type="curve" smooth="yes"/>
      <point x="159.5" y="-209.896"/>
      <point x="135.79" y="-235"/>
      <point x="105" y="-235" type="curve" smooth="yes"/>
      <point x="74.1797" y="-235"/>
      <point x="50.5" y="-209.895"/>
      <point x="50.5" y="-180.5" type="curve" smooth="yes"/>
      <point x="50.5" y="-150.541"/>
      <point x="74.1348" y="-125"/>
    </contour>
    <contour>
      <point x="-55.5" y="-122.5" type="curve" smooth="yes"/>
      <point x="-55.5" y="-91.8477"/>
      <point x="-30.6396" y="-67"/>
      <point x="0" y="-67" type="curve" smooth="yes"/>
      <point x="30.6523" y="-67"/>
      <point x="55.5" y="-91.8604"/>
      <point x="55.5" y="-122.5" type="curve" smooth="yes"/>
      <point x="55.5" y="-153.152"/>
      <point x="30.6396" y="-178"/>
      <point x="0" y="-178" type="curve" smooth="yes"/>
      <point x="-30.6523" y="-178"/>
      <point x="-55.5" y="-153.14"/>
    </contour>
    <contour>
      <point x="-159.5" y="-64.5" type="curve" smooth="yes"/>
      <point x="-159.5" y="-35.1045"/>
      <point x="-135.79" y="-10"/>
      <point x="-105" y="-10" type="curve" smooth="yes"/>
      <point x="-74.1797" y="-10"/>
      <point x="-50.5" y="-35.1055"/>
      <point x="-50.5" y="-64.5" type="curve" smooth="yes"/>
      <point x="-50.5" y="-94.459"/>
      <point x="-74.1348" y="-120"/>
      <point x="-105" y="-120" type="curve" smooth="yes"/>
      <point x="-135.91" y="-120"/>
      <point x="-159.5" y="-94.4521"/>
    </contour>
  </outline>
</glyph>
<glyph name="afii57807" format="2">
  <advance width="0"/>
  <unicode hex="05BC"/>
  <outline>
    <contour>
      <point x="-55.5" y="300.5" type="curve" smooth="yes"/>
      <point x="-55.5" y="324.9"/>
      <point x="-39.6397" y="345.827"/>
      <point x="-17.5" y="352.929" type="curve"/>
      <point x="-17.5" y="356" type="line"/>
      <point x="0" y="356" type="line" smooth="yes"/>
      <point x="30.6523" y="356"/>
      <point x="55.5" y="331.14"/>
      <point x="55.5" y="300.5" type="curve" smooth="yes"/>
      <point x="55.5" y="269.848"/>
      <point x="30.6396" y="245"/>
      <point x="0" y="245" type="curve" smooth="yes"/>
      <point x="-30.6523" y="245"/>
      <point x="-55.5" y="269.86"/>
    </contour>
  </outline>
</glyph>
<glyph name="afii57645" format="2">
  <advance width="503"/>
  <unicode hex="05BE"/>
  <outline>
    <contour>
      <point x="36" y="590.822" type="line" smooth="yes"/>
      <point x="36.9346" y="601.859"/>
      <point x="37.2705" y="609.229"/>
      <point x="43.251" y="618" type="curve" smooth="yes"/>
      <point x="45.7627" y="621.683"/>
      <point x="48.3711" y="624.165"/>
      <point x="51.041" y="626.177" type="curve" smooth="yes"/>
      <point x="59.8662" y="632.828"/>
      <point x="70.8789" y="634.322"/>
      <point x="79.5" y="634.322" type="curve" smooth="yes"/>
      <point x="421.5" y="634.322" type="line" smooth="yes"/>
      <point x="459.5" y="634.322"/>
      <point x="469" y="608.822"/>
      <point x="469" y="591.822" type="curve" smooth="yes"/>
      <point x="469" y="481.822" type="line" smooth="yes"/>
      <point x="469" y="464.822"/>
      <point x="459.5" y="439.322"/>
      <point x="421.5" y="439.322" type="curve" smooth="yes"/>
      <point x="79.5" y="439.322" type="line" smooth="yes"/>
      <point x="67.9541" y="440.066"/>
      <point x="59.8662" y="440.816"/>
      <point x="51.041" y="447.468" type="curve" smooth="yes"/>
      <point x="48.3711" y="449.479"/>
      <point x="45.7627" y="451.962"/>
      <point x="43.251" y="455.645" type="curve" smooth="yes"/>
      <point x="37.2705" y="464.416"/>
      <point x="36" y="474.732"/>
      <point x="36" y="482.822" type="curve" smooth="yes"/>
    </contour>
  </outline>
</glyph>
<glyph name="afii57841" format="2">
  <advance width="0"/>
  <unicode hex="05BF"/>
  <outline>
    <contour>
      <point x="-117.5" y="676.5" type="line" smooth="yes"/>
      <point x="-117.5" y="694.7"/>
      <point x="-103.315" y="709"/>
      <point x="-85" y="709" type="curve" smooth="yes"/>
      <point x="85" y="709" type="line" smooth="yes"/>
      <point x="103.2" y="709"/>
      <point x="117.5" y="694.815"/>
      <point x="117.5" y="676.5" type="curve" smooth="yes"/>
      <point x="117.5" y="651.5" type="line" smooth="yes"/>
      <point x="117.5" y="633.3"/>
      <point x="103.315" y="619"/>
      <point x="85" y="619" type="curve" smooth="yes"/>
      <point x="-85" y="619" type="line" smooth="yes"/>
      <point x="-103.2" y="619"/>
      <point x="-117.5" y="633.185"/>
      <point x="-117.5" y="651.5" type="curve" smooth="yes"/>
    </contour>
  </outline>
</glyph>
<glyph name="afii57804" format="2">
  <advance width="0"/>
  <unicode hex="05C1"/>
  <outline>
    <contour>
      <point x="644" y="705" type="curve" smooth="yes"/>
      <point x="674.567" y="705"/>
      <point x="699.5" y="680.596"/>
      <point x="699.5" y="650.5" type="curve" smooth="yes"/>
      <point x="699.5" y="619.848"/>
      <point x="674.64" y="595"/>
      <point x="644" y="595" type="curve" smooth="yes"/>
      <point x="613.348" y="595"/>
      <point x="588.5" y="619.86"/>
      <point x="588.5" y="650.5" type="curve" smooth="yes"/>
      <point x="588.5" y="680.6"/>
      <point x="613.431" y="705"/>
    </contour>
  </outline>
</glyph>
<glyph name="afii57658" format="2">
  <advance width="435"/>
  <unicode hex="05C3"/>
  <outline>
    <contour>
      <point x="124.059" y="114.749" type="curve" smooth="yes"/>
      <point x="108.264" y="121.015"/>
      <point x="99.5098" y="136.326"/>
      <point x="100.299" y="150.25" type="curve" smooth="yes"/>
      <point x="100.843" y="159.851"/>
      <point x="101.074" y="160.261"/>
      <point x="103.707" y="165.957" type="curve" smooth="yes"/>
      <point x="104.781" y="168.279"/>
      <point x="110.47" y="178.932"/>
      <point x="124.499" y="184.442" type="curve" smooth="yes"/>
      <point x="151.229" y="194.943"/>
      <point x="172.002" y="217.507"/>
      <point x="182.298" y="243.49" type="curve" smooth="yes"/>
      <point x="188.424" y="258.95"/>
      <point x="203.444" y="267.25"/>
      <point x="217.424" y="267.25" type="curve" smooth="yes"/>
      <point x="227.805" y="267.25"/>
      <point x="244.312" y="262.604"/>
      <point x="251.869" y="243.296" type="curve" smooth="yes"/>
      <point x="262.497" y="216.142"/>
      <point x="284.519" y="194.132"/>
      <point x="310.62" y="184.411" type="curve" smooth="yes"/>
      <point x="330.051" y="177.175"/>
      <point x="334.799" y="160.256"/>
      <point x="334.799" y="149.875" type="curve" smooth="yes"/>
      <point x="334.799" y="135.959"/>
      <point x="326.373" y="120.829"/>
      <point x="311.039" y="114.749" type="curve" smooth="yes"/>
      <point x="286.3" y="104.94"/>
      <point x="262.501" y="85.1807"/>
      <point x="251.96" y="56.9287" type="curve" smooth="yes"/>
      <point x="244.721" y="37.5264"/>
      <point x="227.901" y="32.75"/>
      <point x="217.549" y="32.75" type="curve" smooth="yes"/>
      <point x="207.196" y="32.75"/>
      <point x="190.377" y="37.5264"/>
      <point x="183.138" y="56.9287" type="curve" smooth="yes"/>
      <point x="172.597" y="85.1807"/>
      <point x="148.797" y="104.937"/>
    </contour>
    <contour>
      <point x="124.059" y="484.749" type="curve" smooth="yes"/>
      <point x="108.264" y="491.015"/>
      <point x="99.5098" y="506.326"/>
      <point x="100.299" y="520.25" type="curve" smooth="yes"/>
      <point x="100.843" y="529.851"/>
      <point x="101.074" y="530.261"/>
      <point x="103.707" y="535.957" type="curve" smooth="yes"/>
      <point x="104.781" y="538.279"/>
      <point x="110.47" y="548.932"/>
      <point x="124.499" y="554.442" type="curve" smooth="yes"/>
      <point x="151.229" y="564.943"/>
      <point x="172.002" y="587.507"/>
      <point x="182.298" y="613.49" type="curve" smooth="yes"/>
      <point x="188.424" y="628.95"/>
      <point x="203.444" y="637.25"/>
      <point x="217.424" y="637.25" type="curve" smooth="yes"/>
      <point x="227.805" y="637.25"/>
      <point x="244.312" y="632.604"/>
      <point x="251.869" y="613.296" type="curve" smooth="yes"/>
      <point x="262.497" y="586.142"/>
      <point x="284.519" y="564.132"/>
      <point x="310.62" y="554.411" type="curve" smooth="yes"/>
      <point x="330.051" y="547.175"/>
      <point x="334.799" y="530.256"/>
      <point x="334.799" y="519.875" type="curve" smooth="yes"/>
      <point x="334.799" y="505.959"/>
      <point x="326.373" y="490.829"/>
      <point x="311.039" y="484.749" type="curve" smooth="yes"/>
      <point x="286.3" y="474.94"/>
      <point x="262.501" y="455.181"/>
      <point x="251.96" y="426.929" type="curve" smooth="yes"/>
      <point x="244.721" y="407.526"/>
      <point x="227.901" y="402.75"/>
      <point x="217.549" y="402.75" type="curve" smooth="yes"/>
      <point x="207.196" y="402.75"/>
      <point x="190.377" y="407.526"/>
      <point x="183.138" y="426.929" type="curve" smooth="yes"/>
      <point x="172.597" y="455.181"/>
      <point x="148.797" y="474.937"/>
    </contour>
  </outline>
</glyph>
<glyph name="uni05C4" format="2">
  <advance width="0"/>
  <unicode hex="05C4"/>
  <outline>
    <contour>
      <point x="0" y="720" type="curve" smooth="yes"/>
      <point x="30.6523" y="720"/>
      <point x="55.5" y="695.14"/>
      <point x="55.5" y="664.5" type="curve" smooth="yes"/>
      <point x="55.5" y="634.4"/>
      <point x="30.5693" y="610"/>
      <point x="0" y="610" type="curve" smooth="yes"/>
      <point x="-30.5674" y="610"/>
      <point x="-55.5" y="634.404"/>
      <point x="-55.5" y="664.5" type="curve" smooth="yes"/>
      <point x="-55.5" y="695.152"/>
      <point x="-30.6396" y="720"/>
    </contour>
  </outline>
</glyph>
<glyph name="afii57665" format="2">
  <advance width="568"/>
  <unicode hex="05D1"/>
  <outline>
    <contour>
      <point x="529.5" y="195" type="line" smooth="yes"/>
      <point x="550.97" y="195"/>
      <point x="565.282" y="182.838"/>
      <point x="565.282" y="164.596" type="curve" smooth="yes"/>
      <point x="565.282" y="159.655"/>
      <point x="564.313" y="154.522"/>
      <point x="561.54" y="148.512" type="curve" smooth="yes"/>
      <point x="513.836" y="32.2363" type="line" smooth="yes"/>
      <point x="504.415" y="5.85742"/>
      <point x="483.158" y="0"/>
      <point x="466.5" y="0" type="curve" smooth="yes"/>
      <point x="57.5" y="0" type="line" smooth="yes"/>
      <point x="35.7705" y="0"/>
      <point x="21.2832" y="12.4941"/>
      <point x="21.2832" y="31.2363" type="curve" smooth="yes"/>
      <point x="21.2832" y="35.6064"/>
      <point x="22.1396" y="40.5068"/>
      <point x="24.2383" y="45.9619" type="curve" smooth="yes"/>
      <point x="72.3623" y="163.268" type="line" smooth="yes"/>
      <point x="81.8223" y="185.341"/>
      <point x="98.1826" y="195"/>
      <point x="119.5" y="195" type="curve" smooth="yes"/>
      <point x="454.034" y="195" type="line"/>
      <point x="454.137" y="198.948"/>
      <point x="454.224" y="203.307"/>
      <point x="454.224" y="207.653" type="curve" smooth="yes"/>
      <point x="454.224" y="285.529"/>
      <point x="434.212" y="364.588"/>
      <point x="404.273" y="384.905" type="curve" smooth="yes"/>
      <point x="321.339" y="441.186"/>
      <point x="204.731" y="411.319"/>
      <point x="134.821" y="428.051" type="curve" smooth="yes"/>
      <point x="71.2275" y="444.39"/>
      <point x="59.9414" y="479.966"/>
      <point x="53.4209" y="506.817" type="curve" smooth="yes"/>
      <point x="50.4746" y="518.951"/>
      <point x="49.2148" y="530.959"/>
      <point x="49.2148" y="542.522" type="curve" smooth="yes"/>
      <point x="49.2148" y="570.949"/>
      <point x="56.8262" y="597.271"/>
      <point x="68.7979" y="619.381" type="curve" smooth="yes"/>
      <point x="72.1318" y="625.538"/>
      <point x="74.1348" y="628.864"/>
      <point x="79.1201" y="633.879" type="curve" smooth="yes"/>
      <point x="84.0459" y="639.229"/>
      <point x="91.4785" y="644.51"/>
      <point x="101.144" y="644.51" type="curve"/>
      <point x="107.763" y="642.749"/>
      <point x="113.617" y="644.033"/>
      <point x="122.516" y="634.326" type="curve" smooth="yes"/>
      <point x="124.6" y="632.221"/>
      <point x="127.799" y="628.641"/>
      <point x="131.197" y="622.202" type="curve" smooth="yes"/>
      <point x="143.407" y="599.07"/>
      <point x="173.473" y="604.274"/>
      <point x="212.155" y="602.508" type="curve" smooth="yes"/>
      <point x="261.285" y="600.264"/>
      <point x="387.153" y="604.915"/>
      <point x="453.97" y="539.237" type="curve" smooth="yes"/>
      <point x="507.637" y="479.219"/>
      <point x="517.561" y="372.326"/>
      <point x="517.561" y="268.572" type="curve" smooth="yes"/>
      <point x="517.561" y="244.104"/>
      <point x="516.96" y="219.991"/>
      <point x="516.074" y="195" type="curve"/>
    </contour>
  </outline>
</glyph>
<glyph name="afii57666" format="2">
  <advance width="409"/>
  <unicode hex="05D2"/>
  <outline>
    <contour>
      <point x="230" y="40" type="line" smooth="yes"/>
      <point x="214.465" y="17.9268"/>
      <point x="208.507" y="0"/>
      <point x="173.5" y="0" type="curve" smooth="yes"/>
      <point x="45.5" y="0" type="line" smooth="yes"/>
      <point x="23.7705" y="0"/>
      <point x="9.2832" y="11.8467"/>
      <point x="9.2832" y="29.6191" type="curve" smooth="yes"/>
      <point x="9.2832" y="34.5449"/>
      <point x="10.4932" y="39.2812"/>
      <point x="12.2383" y="43.582" type="curve" smooth="yes"/>
      <point x="60.3623" y="154.813" type="line" smooth="yes"/>
      <point x="69.8223" y="175.743"/>
      <point x="86.1826" y="184.902"/>
      <point x="107.5" y="184.902" type="curve" smooth="yes"/>
      <point x="239.188" y="184.902" type="line" smooth="yes"/>
      <point x="257.443" y="184.902"/>
      <point x="263" y="189.219"/>
      <point x="263" y="200.548" type="curve" smooth="yes"/>
      <point x="263" y="282.054"/>
      <point x="264.027" y="322.925"/>
      <point x="271.044" y="397.128" type="curve" smooth="yes"/>
      <point x="271.044" y="401.931"/>
      <point x="268.318" y="402.686"/>
      <point x="265.038" y="403.158" type="curve" smooth="yes"/>
      <point x="208.669" y="408.215"/>
      <point x="150.054" y="413.312"/>
      <point x="118.368" y="441.768" type="curve" smooth="yes"/>
      <point x="105.185" y="453.607"/>
      <point x="93.3096" y="470.85"/>
      <point x="86.8047" y="490.479" type="curve" smooth="yes"/>
      <point x="79.8848" y="511.361"/>
      <point x="79.3193" y="535.338"/>
      <point x="80.0332" y="546.417" type="curve" smooth="yes"/>
      <point x="81.7246" y="572.664"/>
      <point x="92.3799" y="600.832"/>
      <point x="99.8027" y="611.598" type="curve" smooth="yes"/>
      <point x="104.393" y="618.254"/>
      <point x="114.812" y="634.417"/>
      <point x="129.136" y="640.893" type="curve" smooth="yes"/>
      <point x="133.961" y="643.192"/>
      <point x="138.464" y="644.209"/>
      <point x="142.459" y="643.999" type="curve" smooth="yes"/>
      <point x="144.321" y="643.901"/>
      <point x="151.087" y="644.309"/>
      <point x="159.923" y="638.513" type="curve" smooth="yes"/>
      <point x="169.689" y="632.442"/>
      <point x="179.573" y="621.809"/>
      <point x="184.704" y="616.992" type="curve" smooth="yes"/>
      <point x="198.906" y="603.659"/>
      <point x="239.814" y="597.958"/>
      <point x="255.03" y="595.741" type="curve" smooth="yes"/>
      <point x="315.72" y="581.962"/>
      <point x="338.29" y="545.869"/>
      <point x="343.709" y="518.354" type="curve" smooth="yes"/>
      <point x="344.74" y="513.116"/>
      <point x="345.127" y="507.861"/>
      <point x="345.127" y="502.734" type="curve" smooth="yes"/>
      <point x="345.127" y="474.848"/>
      <point x="331.858" y="442.313"/>
      <point x="331.858" y="409.78" type="curve" smooth="yes"/>
      <point x="331.858" y="407.912"/>
      <point x="331.893" y="406.156"/>
      <point x="331.982" y="404.296" type="curve" smooth="yes"/>
      <point x="335.928" y="322.915"/>
      <point x="378.385" y="220.02"/>
      <point x="383.891" y="173.3" type="curve" smooth="yes"/>
      <point x="385.761" y="157.435"/>
      <point x="386.946" y="143.388"/>
      <point x="386.946" y="129.805" type="curve" smooth="yes"/>
      <point x="386.946" y="92.1445"/>
      <point x="376.921" y="62.2422"/>
      <point x="365.813" y="35.6621" type="curve" smooth="yes"/>
      <point x="363.398" y="29.8838"/>
      <point x="358.241" y="17.1465"/>
      <point x="349.184" y="8.61523" type="curve" smooth="yes"/>
      <point x="344.319" y="3.78027"/>
      <point x="337.166" y="-0.512695"/>
      <point x="328.778" y="-0.512695" type="curve"/>
      <point x="322.119" y="1.4082"/>
      <point x="315.962" y="0.0927734"/>
      <point x="307.283" y="10.123" type="curve" smooth="yes"/>
      <point x="298.693" y="20.0508"/>
      <point x="294.535" y="35.0361"/>
      <point x="293.273" y="42.4238" type="curve" smooth="yes"/>
      <point x="289.726" y="63.2021"/>
      <point x="286.199" y="84.1699"/>
      <point x="282.833" y="101.547" type="curve"/>
    </contour>
  </outline>
</glyph>
<glyph name="afii57668" format="2">
  <advance width="631"/>
  <unicode hex="05D4"/>
  <outline>
    <contour>
      <point x="47.5605" y="45.9492" type="curve" smooth="yes"/>
      <point x="55.3447" y="130.263"/>
      <point x="49.1885" y="191.243"/>
      <point x="58.6709" y="258.938" type="curve" smooth="yes"/>
      <point x="64.2529" y="298.78"/>
      <point x="82.542" y="332.151"/>
      <point x="103.008" y="354.224" type="curve" smooth="yes"/>
      <point x="109.52" y="361.246"/>
      <point x="117.671" y="369.195"/>
      <point x="129.326" y="372.413" type="curve" smooth="yes"/>
      <point x="132.717" y="373.349"/>
      <point x="135.475" y="373.634"/>
      <point x="138.111" y="373.634" type="curve"/>
      <point x="141.727" y="372.721"/>
      <point x="159.311" y="374.609"/>
      <point x="167.748" y="351.104" type="curve" smooth="yes"/>
      <point x="169.749" y="345.766"/>
      <point x="170.697" y="340.277"/>
      <point x="170.697" y="334.74" type="curve" smooth="yes"/>
      <point x="170.697" y="330.4"/>
      <point x="170.167" y="326.478"/>
      <point x="168.978" y="322.256" type="curve" smooth="yes"/>
      <point x="166.797" y="313.531"/>
      <point x="165.955" y="304.013"/>
      <point x="165.955" y="293.352" type="curve" smooth="yes"/>
      <point x="165.955" y="279.892"/>
      <point x="167.58" y="264.378"/>
      <point x="168.477" y="247.343" type="curve" smooth="yes"/>
      <point x="169.027" y="236.899"/>
      <point x="169.022" y="226.21"/>
      <point x="169.022" y="215.86" type="curve" smooth="yes"/>
      <point x="169.022" y="159.293"/>
      <point x="162.624" y="102.29"/>
      <point x="128.652" y="35.6738" type="curve" smooth="yes"/>
      <point x="118.758" y="16.2705"/>
      <point x="107.328" y="0.310547"/>
      <point x="88.4082" y="-4.40918" type="curve" smooth="yes"/>
      <point x="85.3291" y="-5.17676"/>
      <point x="82.3691" y="-5.63965"/>
      <point x="80.4805" y="-5.40234" type="curve" smooth="yes"/>
      <point x="76.9619" y="-4.96094"/>
      <point x="59.5684" y="-6.52148"/>
      <point x="50.7988" y="16.9619" type="curve" smooth="yes"/>
      <point x="49.2803" y="21.0283"/>
      <point x="47.2852" y="27.9062"/>
      <point x="47.2852" y="38.8193" type="curve" smooth="yes"/>
      <point x="47.2852" y="40.2109"/>
      <point x="47.4326" y="44.5635"/>
    </contour>
    <contour>
      <point x="203.549" y="601.831" type="curve" smooth="yes"/>
      <point x="505" y="601.831" type="line" smooth="yes"/>
      <point x="578.553" y="601.831"/>
      <point x="589.349" y="556.003"/>
      <point x="590.494" y="512.802" type="curve" smooth="yes"/>
      <point x="590.554" y="510.548"/>
      <point x="590.598" y="508.122"/>
      <point x="590.598" y="505.799" type="curve" smooth="yes"/>
      <point x="590.598" y="467.295"/>
      <point x="579.62" y="427.863"/>
      <point x="528.844" y="418.885" type="curve"/>
      <point x="536.851" y="369.804"/>
      <point x="572.038" y="218.887"/>
      <point x="578.368" y="166.014" type="curve" smooth="yes"/>
      <point x="579.568" y="155.987"/>
      <point x="579.961" y="146.034"/>
      <point x="579.961" y="140.983" type="curve" smooth="yes"/>
      <point x="579.961" y="112.826"/>
      <point x="575.136" y="71.4453"/>
      <point x="552.805" y="29.0859" type="curve" smooth="yes"/>
      <point x="548.304" y="20.5488"/>
      <point x="547.335" y="18.8252"/>
      <point x="542.136" y="13.0576" type="curve" smooth="yes"/>
      <point x="532.833" y="2.15723"/>
      <point x="520.323" y="-4.68652"/>
      <point x="507.018" y="-4.68652" type="curve" smooth="yes"/>
      <point x="483.884" y="-4.68652"/>
      <point x="467.479" y="13.8223"/>
      <point x="467.479" y="38.7041" type="curve" smooth="yes"/>
      <point x="467.479" y="39.0674"/>
      <point x="467.493" y="39.7969"/>
      <point x="467.505" y="40.1611" type="curve" smooth="yes"/>
      <point x="460.764" y="416.893" type="line"/>
      <point x="135" y="416.893" type="line" smooth="yes"/>
      <point x="79.6689" y="416.893"/>
      <point x="48.333" y="472.611"/>
      <point x="42.8213" y="500.481" type="curve" smooth="yes"/>
      <point x="41.1201" y="509.087"/>
      <point x="40.2197" y="517.852"/>
      <point x="40.2197" y="527.034" type="curve" smooth="yes"/>
      <point x="40.2197" y="558.914"/>
      <point x="48.9287" y="593.684"/>
      <point x="62.2979" y="619.038" type="curve" smooth="yes"/>
      <point x="65.624" y="625.345"/>
      <point x="67.6348" y="628.746"/>
      <point x="72.6201" y="633.879" type="curve" smooth="yes"/>
      <point x="77.5459" y="639.229"/>
      <point x="84.9785" y="644.51"/>
      <point x="94.6436" y="644.51" type="curve"/>
      <point x="101.263" y="642.749"/>
      <point x="107.117" y="644.033"/>
      <point x="116.016" y="634.326" type="curve" smooth="yes"/>
      <point x="118.1" y="632.174"/>
      <point x="121.291" y="628.511"/>
      <point x="124.697" y="621.935" type="curve" smooth="yes"/>
      <point x="132.202" y="607.444"/>
      <point x="141.971" y="601.699"/>
      <point x="179.724" y="601.699" type="curve" smooth="yes"/>
      <point x="187.191" y="601.699"/>
      <point x="195.18" y="601.831"/>
    </contour>
  </outline>
</glyph>
<glyph name="afii57669" format="2">
  <advance width="301"/>
  <unicode hex="05D5"/>
  <outline>
    <contour>
      <point x="258.438" y="496.839" type="curve" smooth="yes"/>
      <point x="258.438" y="464.583"/>
      <point x="248.438" y="433.901"/>
      <point x="227.613" y="407.681" type="curve" smooth="yes"/>
      <point x="226.862" y="406.735"/>
      <point x="223.884" y="402.226"/>
      <point x="222.387" y="397.751" type="curve" smooth="yes"/>
      <point x="222.188" y="397.156"/>
      <point x="222.291" y="397.672"/>
      <point x="221.95" y="396.236" type="curve" smooth="yes"/>
      <point x="221.853" y="395.826"/>
      <point x="221.928" y="396.646"/>
      <point x="221.715" y="394.965" type="curve" smooth="yes"/>
      <point x="221.631" y="394.302"/>
      <point x="221.648" y="395.9"/>
      <point x="221.648" y="393.979" type="curve" smooth="yes"/>
      <point x="221.648" y="393.715"/>
      <point x="221.703" y="393.229"/>
      <point x="221.746" y="392.963" type="curve" smooth="yes"/>
      <point x="232.811" y="325.17"/>
      <point x="248.557" y="214.273"/>
      <point x="254.868" y="159.104" type="curve" smooth="yes"/>
      <point x="256.069" y="147.723"/>
      <point x="256.461" y="136.424"/>
      <point x="256.461" y="130.69" type="curve" smooth="yes"/>
      <point x="256.461" y="102.913"/>
      <point x="251.636" y="62.0908"/>
      <point x="229.305" y="20.3037" type="curve" smooth="yes"/>
      <point x="224.804" y="13.1738"/>
      <point x="223.835" y="11.7344"/>
      <point x="218.636" y="6.91797" type="curve" smooth="yes"/>
      <point x="209.333" y="-0.210938"/>
      <point x="196.823" y="-4.68652"/>
      <point x="183.518" y="-4.68652" type="curve" smooth="yes"/>
      <point x="160.384" y="-4.68652"/>
      <point x="143.979" y="7.37305"/>
      <point x="143.979" y="23.582" type="curve" smooth="yes"/>
      <point x="143.979" y="24.0947"/>
      <point x="143.995" y="25.7305"/>
      <point x="144.01" y="26.2422" type="curve" smooth="yes"/>
      <point x="149.438" y="172.592"/>
      <point x="153.831" y="319.555"/>
      <point x="155.023" y="392.765" type="curve" smooth="yes"/>
      <point x="155.026" y="392.939"/>
      <point x="155.076" y="393.948"/>
      <point x="155.076" y="394.124" type="curve" smooth="yes"/>
      <point x="155.076" y="399.393"/>
      <point x="151.806" y="404.86"/>
      <point x="146.805" y="406.148" type="curve" smooth="yes"/>
      <point x="113.537" y="409.894"/>
      <point x="93.6074" y="413.901"/>
      <point x="82.4971" y="417.296" type="curve" smooth="yes"/>
      <point x="65.2734" y="431.201"/>
      <point x="46.8975" y="455.085"/>
      <point x="38.7754" y="485.724" type="curve" smooth="yes"/>
      <point x="33.2354" y="505.464"/>
      <point x="31.6621" y="528.553"/>
      <point x="31.6621" y="546.727" type="curve" smooth="yes"/>
      <point x="31.6621" y="550.983"/>
      <point x="31.8564" y="554.691"/>
      <point x="32.0273" y="558.154" type="curve" smooth="yes"/>
      <point x="33.3086" y="582.379"/>
      <point x="43.3691" y="607.896"/>
      <point x="50.6982" y="617.897" type="curve" smooth="yes"/>
      <point x="52.8252" y="620.603"/>
      <point x="63.4248" y="635.133"/>
      <point x="75.9023" y="641.507" type="curve" smooth="yes"/>
      <point x="80.2832" y="642.839"/>
      <point x="86.1406" y="644.128"/>
      <point x="92.959" y="644.01" type="curve" smooth="yes"/>
      <point x="94.8281" y="643.979"/>
      <point x="101.637" y="644.16"/>
      <point x="110.46" y="641.38" type="curve" smooth="yes"/>
      <point x="120.18" y="636.397"/>
      <point x="127.048" y="627.803"/>
      <point x="130.271" y="623.924" type="curve" smooth="yes"/>
      <point x="139.588" y="604.567"/>
      <point x="164.532" y="597.083"/>
      <point x="173.978" y="593.936" type="curve" smooth="yes"/>
      <point x="232.052" y="581.78"/>
      <point x="251.059" y="543.33"/>
      <point x="255.695" y="522.966" type="curve" smooth="yes"/>
      <point x="257.564" y="514.27"/>
      <point x="258.438" y="505.477"/>
    </contour>
  </outline>
</glyph>
<glyph name="afii57670" format="2">
  <advance width="326"/>
  <unicode hex="05D6"/>
  <outline>
    <contour>
      <point x="99.1553" y="299.153" type="curve" smooth="yes"/>
      <point x="106.334" y="349.694"/>
      <point x="116.917" y="372.597"/>
      <point x="126.568" y="410.304" type="curve" smooth="yes"/>
      <point x="126.914" y="411.653"/>
      <point x="127.769" y="414.707"/>
      <point x="127.769" y="417.471" type="curve" smooth="yes"/>
      <point x="127.769" y="418.744"/>
      <point x="127.969" y="420.987"/>
      <point x="126.151" y="421.443" type="curve" smooth="yes"/>
      <point x="105.204" y="426.7"/>
      <point x="86.3809" y="435.365"/>
      <point x="70.5127" y="447.616" type="curve" smooth="yes"/>
      <point x="54.126" y="460.269"/>
      <point x="42.958" y="477.388"/>
      <point x="36.8184" y="495.836" type="curve" smooth="yes"/>
      <point x="31.7783" y="510.98"/>
      <point x="30.6514" y="527.485"/>
      <point x="30.6514" y="541.28" type="curve" smooth="yes"/>
      <point x="30.6514" y="545.28"/>
      <point x="30.8525" y="548.915"/>
      <point x="31.0273" y="552.534" type="curve" smooth="yes"/>
      <point x="32.3105" y="579.096"/>
      <point x="43.3281" y="606.944"/>
      <point x="50.6982" y="618" type="curve" smooth="yes"/>
      <point x="52.7998" y="620.367"/>
      <point x="62.9512" y="633.173"/>
      <point x="75.1611" y="638.869" type="curve" smooth="yes"/>
      <point x="79.5928" y="641.746"/>
      <point x="85.6416" y="644.449"/>
      <point x="92.624" y="644.245" type="curve" smooth="yes"/>
      <point x="94.3857" y="644.193"/>
      <point x="99.6709" y="643.48"/>
      <point x="101.351" y="643.003" type="curve" smooth="yes"/>
      <point x="108.89" y="640.967"/>
      <point x="118.576" y="635.677"/>
      <point x="135.033" y="617.945" type="curve" smooth="yes"/>
      <point x="137.003" y="615.823"/>
      <point x="137.204" y="615.906"/>
      <point x="137.708" y="615.553" type="curve" smooth="yes"/>
      <point x="140.346" y="613.702"/>
      <point x="137.862" y="615.395"/>
      <point x="139.223" y="614.564" type="curve" smooth="yes"/>
      <point x="148.444" y="608.926"/>
      <point x="166.058" y="603.879"/>
      <point x="181.582" y="602.102" type="curve" smooth="yes"/>
      <point x="221.251" y="597.559"/>
      <point x="253.891" y="582.588"/>
      <point x="275.904" y="552.369" type="curve" smooth="yes"/>
      <point x="291.566" y="530.869"/>
      <point x="293.083" y="497.888"/>
      <point x="293.083" y="484.279" type="curve" smooth="yes"/>
      <point x="293.083" y="474.526"/>
      <point x="292.405" y="464.705"/>
      <point x="290.809" y="455.144" type="curve" smooth="yes"/>
      <point x="290.072" y="450.733"/>
      <point x="286.988" y="427.419"/>
      <point x="277.119" y="413.612" type="curve" smooth="yes"/>
      <point x="268.239" y="401.189"/>
      <point x="256.773" y="399.742"/>
      <point x="251.688" y="399.742" type="curve" smooth="yes"/>
      <point x="247.652" y="399.742"/>
      <point x="243.47" y="400.514"/>
      <point x="238.514" y="402.541" type="curve" smooth="yes"/>
      <point x="230.781" y="405.705"/>
      <point x="222.02" y="408.297"/>
      <point x="210.853" y="408.297" type="curve" smooth="yes"/>
      <point x="208.59" y="408.297"/>
      <point x="205.992" y="408.17"/>
      <point x="203.433" y="407.9" type="curve" smooth="yes"/>
      <point x="202.469" y="407.798" type="line"/>
      <point x="201.5" y="407.798" type="line" smooth="yes"/>
      <point x="198.898" y="407.502"/>
      <point x="196.612" y="407.553"/>
      <point x="193.965" y="398.471" type="curve" smooth="yes"/>
      <point x="193.663" y="397.437"/>
      <point x="193.237" y="396.359"/>
      <point x="192.802" y="393.464" type="curve" smooth="yes"/>
      <point x="191.325" y="383.646"/>
      <point x="190.847" y="375.442"/>
      <point x="190.847" y="367.906" type="curve" smooth="yes"/>
      <point x="190.847" y="335.778"/>
      <point x="201.963" y="317.521"/>
      <point x="212.497" y="276.601" type="curve" smooth="yes"/>
      <point x="219.96" y="247.61"/>
      <point x="225.345" y="223.41"/>
      <point x="225.345" y="191.791" type="curve" smooth="yes"/>
      <point x="225.345" y="173.258"/>
      <point x="223.635" y="152.323"/>
      <point x="219.836" y="126.228" type="curve" smooth="yes"/>
      <point x="214.745" y="91.2588"/>
      <point x="208.526" y="67.5566"/>
      <point x="197.08" y="35.9326" type="curve" smooth="yes"/>
      <point x="194.227" y="28.0508"/>
      <point x="186.779" y="9.7041"/>
      <point x="173.622" y="-0.227539" type="curve" smooth="yes"/>
      <point x="169.212" y="-3.7373"/>
      <point x="162.615" y="-7.1709"/>
      <point x="155.277" y="-7.1709" type="curve"/>
      <point x="152.198" y="-6.4668"/>
      <point x="137.181" y="-7.81055"/>
      <point x="129.105" y="13.7363" type="curve" smooth="yes"/>
      <point x="126.497" y="20.3984"/>
      <point x="124" y="31.7568"/>
      <point x="124" y="49.8945" type="curve" smooth="yes"/>
      <point x="124" y="85.1035"/>
      <point x="120.455" y="116.591"/>
      <point x="115.263" y="144.669" type="curve" smooth="yes"/>
      <point x="106.605" y="191.478"/>
      <point x="96.5234" y="220.995"/>
      <point x="96.5234" y="262.063" type="curve" smooth="yes"/>
      <point x="96.5234" y="273.594"/>
      <point x="97.2686" y="285.866"/>
    </contour>
  </outline>
</glyph>
<glyph name="afii57671" format="2">
  <advance width="629"/>
  <unicode hex="05D7"/>
  <outline>
    <contour>
      <point x="184.536" y="440" type="line"/>
      <point x="176.441" y="431.583"/>
      <point x="166.725" y="415.82"/>
      <point x="163.77" y="397.671" type="curve" smooth="yes"/>
      <point x="161.685" y="384.866"/>
      <point x="160.673" y="368.821"/>
      <point x="160.673" y="352.119" type="curve" smooth="yes"/>
      <point x="160.673" y="306.469"/>
      <point x="167.157" y="256.963"/>
      <point x="167.983" y="238.271" type="curve" smooth="yes"/>
      <point x="168.883" y="217.889"/>
      <point x="170.026" y="198.635"/>
      <point x="170.026" y="179.233" type="curve" smooth="yes"/>
      <point x="170.026" y="128.987"/>
      <point x="162.327" y="86.7822"/>
      <point x="136.152" y="35.6738" type="curve" smooth="yes"/>
      <point x="126.224" y="16.2881"/>
      <point x="114.828" y="0.310547"/>
      <point x="95.9082" y="-4.40918" type="curve" smooth="yes"/>
      <point x="92.8291" y="-5.17676"/>
      <point x="89.8691" y="-5.63965"/>
      <point x="87.9805" y="-5.40234" type="curve" smooth="yes"/>
      <point x="84.4619" y="-4.96094"/>
      <point x="67.0684" y="-6.52148"/>
      <point x="58.2988" y="16.9619" type="curve" smooth="yes"/>
      <point x="56.7803" y="20.8096"/>
      <point x="54.7852" y="27.3184"/>
      <point x="54.7852" y="37.6455" type="curve" smooth="yes"/>
      <point x="54.7852" y="38.9629"/>
      <point x="54.9336" y="43.082"/>
      <point x="55.0605" y="44.3926" type="curve" smooth="yes"/>
      <point x="57.6201" y="70.8291"/>
      <point x="58.4443" y="96.9629"/>
      <point x="58.4443" y="122.231" type="curve" smooth="yes"/>
      <point x="58.4443" y="157.61"/>
      <point x="56.9199" y="191.582"/>
      <point x="56.9199" y="223.562" type="curve" smooth="yes"/>
      <point x="56.9199" y="237.271"/>
      <point x="57.1719" y="250.645"/>
      <point x="58.0342" y="263.595" type="curve" smooth="yes"/>
      <point x="60.7109" y="303.756"/>
      <point x="64.5586" y="361.683"/>
      <point x="102.684" y="423.391" type="curve"/>
      <point x="48.123" y="441.298"/>
      <point x="45.0801" y="481.939"/>
      <point x="41.3213" y="500.725" type="curve" smooth="yes"/>
      <point x="39.6035" y="509.312"/>
      <point x="38.7197" y="518.062"/>
      <point x="38.7197" y="527.229" type="curve" smooth="yes"/>
      <point x="38.7197" y="559.05"/>
      <point x="47.4287" y="593.757"/>
      <point x="60.7979" y="619.065" type="curve" smooth="yes"/>
      <point x="64.124" y="625.36"/>
      <point x="66.1348" y="628.756"/>
      <point x="71.1201" y="633.879" type="curve" smooth="yes"/>
      <point x="76.0459" y="639.229"/>
      <point x="83.4785" y="644.51"/>
      <point x="93.1436" y="644.51" type="curve"/>
      <point x="99.7627" y="642.749"/>
      <point x="105.617" y="644.033"/>
      <point x="114.516" y="634.326" type="curve" smooth="yes"/>
      <point x="116.6" y="632.174"/>
      <point x="119.795" y="628.513"/>
      <point x="123.197" y="621.935" type="curve" smooth="yes"/>
      <point x="132.675" y="603.609"/>
      <point x="151.028" y="601.699"/>
      <point x="177.594" y="601.699" type="curve" smooth="yes"/>
      <point x="184.997" y="601.699"/>
      <point x="192.908" y="601.831"/>
      <point x="201.185" y="601.831" type="curve" smooth="yes"/>
      <point x="503.5" y="601.831" type="line" smooth="yes"/>
      <point x="577.053" y="601.831"/>
      <point x="587.849" y="556.003"/>
      <point x="588.994" y="512.802" type="curve" smooth="yes"/>
      <point x="589.054" y="510.548"/>
      <point x="589.098" y="508.122"/>
      <point x="589.098" y="505.799" type="curve" smooth="yes"/>
      <point x="589.098" y="467.295"/>
      <point x="578.12" y="427.863"/>
      <point x="527.344" y="418.885" type="curve"/>
      <point x="535.351" y="369.804"/>
      <point x="570.538" y="218.887"/>
      <point x="576.868" y="166.014" type="curve" smooth="yes"/>
      <point x="578.068" y="155.987"/>
      <point x="578.461" y="146.034"/>
      <point x="578.461" y="140.983" type="curve" smooth="yes"/>
      <point x="578.461" y="112.826"/>
      <point x="573.636" y="71.4453"/>
      <point x="551.305" y="29.0859" type="curve" smooth="yes"/>
      <point x="546.804" y="20.5488"/>
      <point x="545.835" y="18.8252"/>
      <point x="540.636" y="13.0576" type="curve" smooth="yes"/>
      <point x="531.333" y="2.15723"/>
      <point x="518.823" y="-4.68652"/>
      <point x="505.518" y="-4.68652" type="curve" smooth="yes"/>
      <point x="482.384" y="-4.68652"/>
      <point x="465.979" y="14.8369"/>
      <point x="465.979" y="41.082" type="curve" smooth="yes"/>
      <point x="465.979" y="41.4658"/>
      <point x="465.993" y="42.2354"/>
      <point x="466.005" y="42.6191" type="curve" smooth="yes"/>
      <point x="459.257" y="440" type="line"/>
    </contour>
  </outline>
</glyph>
<glyph name="afii57673" format="2">
  <advance width="301"/>
  <unicode hex="05D9"/>
  <outline>
    <contour>
      <point x="263.64" y="397.969" type="curve" smooth="yes"/>
      <point x="254.765" y="354.97"/>
      <point x="226.749" y="314.144"/>
      <point x="213.576" y="296.104" type="curve" smooth="yes"/>
      <point x="211.512" y="293.276"/>
      <point x="201.199" y="278.012"/>
      <point x="189.885" y="271.163" type="curve" smooth="yes"/>
      <point x="185.773" y="268.675"/>
      <point x="180.386" y="266.471"/>
      <point x="174.052" y="266.471" type="curve" smooth="yes"/>
      <point x="170.525" y="266.471"/>
      <point x="163.312" y="266.973"/>
      <point x="156.624" y="272.792" type="curve" smooth="yes"/>
      <point x="154.86" y="274.403"/>
      <point x="147.532" y="279.491"/>
      <point x="144.436" y="292.616" type="curve" smooth="yes"/>
      <point x="143.73" y="295.607"/>
      <point x="143.283" y="298.782"/>
      <point x="143.283" y="302.893" type="curve" smooth="yes"/>
      <point x="143.283" y="309.933"/>
      <point x="144.944" y="322.487"/>
      <point x="153.202" y="338.091" type="curve" smooth="yes"/>
      <point x="167.286" y="364.703"/>
      <point x="169.593" y="370.667"/>
      <point x="169.593" y="378.811" type="curve" smooth="yes"/>
      <point x="169.593" y="384.806"/>
      <point x="167.29" y="389.779"/>
      <point x="164.85" y="393.653" type="curve" smooth="yes"/>
      <point x="155.462" y="408.558"/>
      <point x="142.275" y="403.289"/>
      <point x="110.301" y="418.447" type="curve" smooth="yes"/>
      <point x="75.9014" y="434.755"/>
      <point x="53.959" y="457.817"/>
      <point x="39.3594" y="494.227" type="curve" smooth="yes"/>
      <point x="30.0078" y="517.545"/>
      <point x="29.1348" y="545.545"/>
      <point x="29.1348" y="558.34" type="curve" smooth="yes"/>
      <point x="29.1348" y="562.271"/>
      <point x="29.2354" y="570.217"/>
      <point x="30.1221" y="578.019" type="curve" smooth="yes"/>
      <point x="32.3975" y="598.034"/>
      <point x="37.0967" y="622.727"/>
      <point x="53.1748" y="642.343" type="curve" smooth="yes"/>
      <point x="58.3633" y="642.219"/>
      <point x="64.7148" y="642.079"/>
      <point x="74.2197" y="641.991" type="curve" smooth="yes"/>
      <point x="79.1064" y="644.197"/>
      <point x="83.583" y="645.377"/>
      <point x="87.5752" y="644.985" type="curve" smooth="yes"/>
      <point x="91.6768" y="644.584"/>
      <point x="97.8428" y="645.207"/>
      <point x="107.177" y="637.846" type="curve" smooth="yes"/>
      <point x="114.563" y="632.02"/>
      <point x="119.975" y="623.052"/>
      <point x="123.34" y="617.771" type="curve" smooth="yes"/>
      <point x="133.157" y="602.359"/>
      <point x="142.496" y="596.58"/>
      <point x="166.114" y="591.622" type="curve" smooth="yes"/>
      <point x="195.173" y="585.521"/>
      <point x="229.343" y="567.679"/>
      <point x="248.852" y="531.898" type="curve" smooth="yes"/>
      <point x="263.816" y="504.453"/>
      <point x="269.506" y="476.726"/>
      <point x="269.506" y="450.2" type="curve" smooth="yes"/>
      <point x="269.506" y="432.055"/>
      <point x="267.062" y="414.546"/>
    </contour>
  </outline>
</glyph>
<glyph name="afii57674" format="2">
  <advance width="566"/>
  <unicode hex="05DA"/>
  <outline>
    <contour>
      <point x="193.506" y="601.54" type="curve" smooth="yes"/>
      <point x="442.5" y="601.54" type="line" smooth="yes"/>
      <point x="516.053" y="601.54"/>
      <point x="526.849" y="555.318"/>
      <point x="527.994" y="511.744" type="curve" smooth="yes"/>
      <point x="528.054" y="509.471"/>
      <point x="528.098" y="507.025"/>
      <point x="528.098" y="504.682" type="curve" smooth="yes"/>
      <point x="528.098" y="465.83"/>
      <point x="517.111" y="426.042"/>
      <point x="466.281" y="417.008" type="curve"/>
      <point x="474.081" y="353.918"/>
      <point x="495.463" y="-55.8711"/>
      <point x="501.895" y="-105.604" type="curve" smooth="yes"/>
      <point x="502.646" y="-111.685"/>
      <point x="503.033" y="-120.504"/>
      <point x="503.033" y="-130.773" type="curve" smooth="yes"/>
      <point x="503.033" y="-160.25"/>
      <point x="498.968" y="-204.813"/>
      <point x="476.222" y="-250.186" type="curve" smooth="yes"/>
      <point x="472.072" y="-258.463"/>
      <point x="469.483" y="-262.742"/>
      <point x="463.127" y="-269.348" type="curve" smooth="yes"/>
      <point x="454.059" y="-278.771"/>
      <point x="442.451" y="-284.687"/>
      <point x="430.114" y="-284.687" type="curve" smooth="yes"/>
      <point x="406.868" y="-284.687"/>
      <point x="390.979" y="-264.888"/>
      <point x="390.979" y="-238.957" type="curve" smooth="yes"/>
      <point x="390.979" y="-238.565"/>
      <point x="390.993" y="-237.539"/>
      <point x="391.004" y="-237.147" type="curve" smooth="yes"/>
      <point x="398.959" y="413.885" type="line"/>
      <point x="125.5" y="413.885" type="line" smooth="yes"/>
      <point x="70.7695" y="413.885"/>
      <point x="39.8135" y="470.521"/>
      <point x="34.3213" y="498.654" type="curve" smooth="yes"/>
      <point x="32.5508" y="507.724"/>
      <point x="31.5986" y="517.024"/>
      <point x="31.5986" y="526.785" type="curve" smooth="yes"/>
      <point x="31.5986" y="563.741"/>
      <point x="42.6943" y="598.395"/>
      <point x="53.7588" y="618.799" type="curve" smooth="yes"/>
      <point x="57.6416" y="625.959"/>
      <point x="59.2793" y="629.769"/>
      <point x="65.1211" y="635.372" type="curve" smooth="yes"/>
      <point x="69.8994" y="640.14"/>
      <point x="77.0176" y="644.51"/>
      <point x="85.6436" y="644.51" type="curve"/>
      <point x="92.3018" y="642.733"/>
      <point x="98.3633" y="643.996"/>
      <point x="107.123" y="634.097" type="curve" smooth="yes"/>
      <point x="109.197" y="631.858"/>
      <point x="111.807" y="628.373"/>
      <point x="115.277" y="621.645" type="curve" smooth="yes"/>
      <point x="123.095" y="606.49"/>
      <point x="134.703" y="601.408"/>
      <point x="169.692" y="601.408" type="curve" smooth="yes"/>
      <point x="176.353" y="601.408"/>
      <point x="184.736" y="601.54"/>
    </contour>
  </outline>
</glyph>
<glyph name="afii57675" format="2">
  <advance width="571"/>
  <unicode hex="05DB"/>
  <outline>
    <contour>
      <point x="115.73" y="195" type="curve" smooth="yes"/>
      <point x="486.266" y="195" type="line"/>
      <point x="486.404" y="200.102"/>
      <point x="486.506" y="205.271"/>
      <point x="486.506" y="210.121" type="curve" smooth="yes"/>
      <point x="486.506" y="261.554"/>
      <point x="476.908" y="300.576"/>
      <point x="460.805" y="332.835" type="curve" smooth="yes"/>
      <point x="444.749" y="364.997"/>
      <point x="413.085" y="392.176"/>
      <point x="379.421" y="405.997" type="curve" smooth="yes"/>
      <point x="356.215" y="415.524"/>
      <point x="325.651" y="422.532"/>
      <point x="244.917" y="422.532" type="curve" smooth="yes"/>
      <point x="235.949" y="422.532"/>
      <point x="227.065" y="422.486"/>
      <point x="218.359" y="422.486" type="curve" smooth="yes"/>
      <point x="171.044" y="422.486"/>
      <point x="155.304" y="424.596"/>
      <point x="141.962" y="428.074" type="curve" smooth="yes"/>
      <point x="78.4365" y="444.641"/>
      <point x="67.1709" y="479.966"/>
      <point x="60.6514" y="506.817" type="curve" smooth="yes"/>
      <point x="57.7051" y="518.951"/>
      <point x="56.4453" y="530.959"/>
      <point x="56.4453" y="542.522" type="curve" smooth="yes"/>
      <point x="56.4453" y="570.949"/>
      <point x="64.0566" y="597.271"/>
      <point x="76.0283" y="619.381" type="curve" smooth="yes"/>
      <point x="79.3623" y="625.538"/>
      <point x="81.3652" y="628.864"/>
      <point x="86.3506" y="633.879" type="curve" smooth="yes"/>
      <point x="91.2764" y="639.229"/>
      <point x="98.709" y="644.51"/>
      <point x="108.374" y="644.51" type="curve"/>
      <point x="114.993" y="642.749"/>
      <point x="120.848" y="644.033"/>
      <point x="129.746" y="634.326" type="curve" smooth="yes"/>
      <point x="131.83" y="632.172"/>
      <point x="135.028" y="628.509"/>
      <point x="138.428" y="621.921" type="curve" smooth="yes"/>
      <point x="149.739" y="600.001"/>
      <point x="168.366" y="604.785"/>
      <point x="221.295" y="601.756" type="curve" smooth="yes"/>
      <point x="283.715" y="598.184"/>
      <point x="419.342" y="605.251"/>
      <point x="487.544" y="530.948" type="curve" smooth="yes"/>
      <point x="539.784" y="467.294"/>
      <point x="550.082" y="360.263"/>
      <point x="550.082" y="255.242" type="curve" smooth="yes"/>
      <point x="550.082" y="239.851"/>
      <point x="549.856" y="224.246"/>
      <point x="549.47" y="208.496" type="curve"/>
      <point x="550.008" y="208.496" type="line"/>
      <point x="549.214" y="191.191" type="line" smooth="yes"/>
      <point x="548.058" y="165.991"/>
      <point x="539.07" y="147.192"/>
      <point x="538.648" y="146.166" type="curve" smooth="yes"/>
      <point x="479.633" y="29.0186" type="line" smooth="yes"/>
      <point x="478.144" y="26.8818"/>
      <point x="475.787" y="23.3252"/>
      <point x="474.798" y="22.0488" type="curve" smooth="yes"/>
      <point x="463.138" y="7.02539"/>
      <point x="448.382" y="0"/>
      <point x="427.375" y="0" type="curve" smooth="yes"/>
      <point x="53.7305" y="0" type="line" smooth="yes"/>
      <point x="32.2607" y="0"/>
      <point x="17.9482" y="12.1621"/>
      <point x="17.9482" y="30.4043" type="curve" smooth="yes"/>
      <point x="17.9482" y="35.3447"/>
      <point x="18.917" y="40.4775"/>
      <point x="21.6904" y="46.4883" type="curve" smooth="yes"/>
      <point x="69.3945" y="162.764" type="line" smooth="yes"/>
      <point x="76.04" y="181.37"/>
      <point x="89.8945" y="195"/>
    </contour>
  </outline>
</glyph>
<glyph name="afii57686" format="2">
  <advance width="631"/>
  <unicode hex="05E6"/>
  <outline>
    <contour>
      <point x="71.5" y="0" type="line" smooth="yes"/>
      <point x="50.2842" y="0"/>
      <point x="36.1406" y="12.2705"/>
      <point x="36.1406" y="30.6758" type="curve" smooth="yes"/>
      <point x="36.1406" y="35.2158"/>
      <point x="37.0576" y="40.293"/>
      <point x="39.2383" y="45.9619" type="curve" smooth="yes"/>
      <point x="87.3623" y="163.268" type="line" smooth="yes"/>
      <point x="96.8223" y="185.341"/>
      <point x="113.183" y="195"/>
      <point x="134.5" y="195" type="curve" smooth="yes"/>
      <point x="426.3" y="195" type="line"/>
      <point x="242.586" y="307.096" type="line" smooth="yes"/>
      <point x="241.115" y="308.268"/>
      <point x="236.054" y="312.076"/>
      <point x="234.695" y="313.325" type="curve" smooth="yes"/>
      <point x="230.126" y="317.522"/>
      <point x="222.361" y="326.19"/>
      <point x="220.344" y="340.1" type="curve" smooth="yes"/>
      <point x="216.122" y="369.218"/>
      <point x="213.101" y="387.057"/>
      <point x="208.601" y="397.974" type="curve" smooth="yes"/>
      <point x="204.136" y="408.807"/>
      <point x="205.308" y="410.297"/>
      <point x="193.836" y="411.021" type="curve" smooth="yes"/>
      <point x="155.647" y="413.668"/>
      <point x="107.629" y="417.762"/>
      <point x="75.3682" y="446.088" type="curve" smooth="yes"/>
      <point x="61.7988" y="458.002"/>
      <point x="51.0762" y="475.059"/>
      <point x="44.8047" y="493.703" type="curve" smooth="yes"/>
      <point x="39.6016" y="509.172"/>
      <point x="37.6621" y="524.554"/>
      <point x="37.6621" y="538.125" type="curve" smooth="yes"/>
      <point x="37.6621" y="541.817"/>
      <point x="37.8613" y="545.234"/>
      <point x="38.0273" y="548.574" type="curve" smooth="yes"/>
      <point x="39.3076" y="574.287"/>
      <point x="50.3164" y="601.253"/>
      <point x="57.6982" y="611.948" type="curve" smooth="yes"/>
      <point x="59.8066" y="615.003"/>
      <point x="70.1934" y="631.434"/>
      <point x="82.5029" y="638.743" type="curve" smooth="yes"/>
      <point x="86.8584" y="641.534"/>
      <point x="92.7402" y="644.243"/>
      <point x="99.5586" y="643.999" type="curve" smooth="yes"/>
      <point x="101.419" y="643.933"/>
      <point x="108.18" y="644.297"/>
      <point x="116.985" y="638.488" type="curve" smooth="yes"/>
      <point x="126.72" y="632.066"/>
      <point x="133.904" y="621.055"/>
      <point x="137.155" y="616.063" type="curve" smooth="yes"/>
      <point x="146.503" y="601.712"/>
      <point x="170.792" y="595.742"/>
      <point x="180.147" y="593.364" type="curve" smooth="yes"/>
      <point x="235.328" y="581.164"/>
      <point x="267.329" y="552.617"/>
      <point x="279.343" y="512.926" type="curve" smooth="yes"/>
      <point x="282.729" y="501.736"/>
      <point x="283.933" y="490.886"/>
      <point x="283.933" y="480.725" type="curve" smooth="yes"/>
      <point x="283.933" y="458.09"/>
      <point x="278.077" y="438.042"/>
      <point x="275.042" y="421.271" type="curve" smooth="yes"/>
      <point x="274.848" y="420.198"/>
      <point x="274.537" y="418.716"/>
      <point x="274.537" y="417.734" type="curve" smooth="yes"/>
      <point x="274.537" y="412.842"/>
      <point x="278.1" y="407.427"/>
      <point x="279.598" y="405.251" type="curve" smooth="yes"/>
      <point x="279.64" y="405.188"/>
      <point x="323.578" y="371.892"/>
      <point x="375.44" y="338.396" type="curve"/>
      <point x="414.265" y="418.281" type="line"/>
      <point x="414.857" y="419.183" type="line"/>
      <point x="414.884" y="419.226" type="line"/>
      <point x="414.2" y="419.704" type="line" smooth="yes"/>
      <point x="382.835" y="441.292"/>
      <point x="359.366" y="474.041"/>
      <point x="359.326" y="513.264" type="curve" smooth="yes"/>
      <point x="359.325" y="514.347"/>
      <point x="359.245" y="517.359"/>
      <point x="359.245" y="518.442" type="curve" smooth="yes"/>
      <point x="359.245" y="531.376"/>
      <point x="357.48" y="575.73"/>
      <point x="405.76" y="622.095" type="curve" smooth="yes"/>
      <point x="412.709" y="628.768"/>
      <point x="416.327" y="632.187"/>
      <point x="424.858" y="637.157" type="curve" smooth="yes"/>
      <point x="431.932" y="641.278"/>
      <point x="441.5" y="645.543"/>
      <point x="452.125" y="645.25" type="curve" smooth="yes"/>
      <point x="454.344" y="645.183"/>
      <point x="462.824" y="645.739"/>
      <point x="472.65" y="638.279" type="curve" smooth="yes"/>
      <point x="474.606" y="636.871"/>
      <point x="482.299" y="631.368"/>
      <point x="487.841" y="617.879" type="curve" smooth="yes"/>
      <point x="488.703" y="615.78"/>
      <point x="498.214" y="598.723"/>
      <point x="517.271" y="588.378" type="curve" smooth="yes"/>
      <point x="554.582" y="568.124"/>
      <point x="583.562" y="535.669"/>
      <point x="585.975" y="494.338" type="curve" smooth="yes"/>
      <point x="586.171" y="490.977"/>
      <point x="586.25" y="487.882"/>
      <point x="586.25" y="484.702" type="curve" smooth="yes"/>
      <point x="586.25" y="449.68"/>
      <point x="575.279" y="425.201"/>
      <point x="552.304" y="396.977" type="curve" smooth="yes"/>
      <point x="546.777" y="390.188"/>
      <point x="533.04" y="373.959"/>
      <point x="516.776" y="368.921" type="curve" smooth="yes"/>
      <point x="513.035" y="367.763"/>
      <point x="509.919" y="367.381"/>
      <point x="506.956" y="367.381" type="curve"/>
      <point x="505.004" y="367.81"/>
      <point x="497.175" y="367.048"/>
      <point x="488.994" y="373.709" type="curve" smooth="yes"/>
      <point x="488.365" y="374.221"/>
      <point x="487.066" y="375.576"/>
      <point x="485.949" y="376.648" type="curve" smooth="yes"/>
      <point x="479.901" y="382.449"/>
      <point x="477.917" y="385.22"/>
      <point x="476.229" y="387.409" type="curve"/>
      <point x="441.343" y="313.874" type="line" smooth="yes"/>
      <point x="441.242" y="313.674"/>
      <point x="440.702" y="312.74"/>
      <point x="440.205" y="311.809" type="curve"/>
      <point x="440.768" y="311.395"/>
      <point x="441.533" y="310.856"/>
      <point x="442.557" y="310.182" type="curve" smooth="yes"/>
      <point x="549.376" y="230.566" type="line" smooth="yes"/>
      <point x="580.167" y="207.386"/>
      <point x="593.038" y="167.262"/>
      <point x="593.038" y="132.828" type="curve" smooth="yes"/>
      <point x="593.038" y="113.648"/>
      <point x="589.298" y="93.7119"/>
      <point x="580.457" y="75.1914" type="curve" smooth="yes"/>
      <point x="564.623" y="42.0254"/>
      <point x="528.045" y="0"/>
      <point x="449.5" y="0" type="curve" smooth="yes"/>
    </contour>
  </outline>
</glyph>
<glyph name="afii57687" format="2">
  <advance width="614"/>
  <unicode hex="05E7"/>
  <outline>
    <contour>
      <point x="130.518" y="231.737" type="curve" smooth="yes"/>
      <point x="130.495" y="227.004"/>
      <point x="130.282" y="221.894"/>
      <point x="130.282" y="216.94" type="curve" smooth="yes"/>
      <point x="130.282" y="122.479"/>
      <point x="158.037" y="-6.37402"/>
      <point x="158.037" y="-89.6758" type="curve" smooth="yes"/>
      <point x="158.037" y="-90.5332"/>
      <point x="158.021" y="-93.124"/>
      <point x="158.007" y="-93.9814" type="curve" smooth="yes"/>
      <point x="156.907" y="-162.394"/>
      <point x="155.195" y="-231.675"/>
      <point x="102.159" y="-297.967" type="curve" smooth="yes"/>
      <point x="88.1328" y="-314.278"/>
      <point x="81.3936" y="-319.152"/>
      <point x="74.8906" y="-322.702" type="curve" smooth="yes"/>
      <point x="70.915" y="-323.833"/>
      <point x="65.6318" y="-324.905"/>
      <point x="59.46" y="-324.905" type="curve"/>
      <point x="51.1855" y="-323.618"/>
      <point x="39.0928" y="-324.074"/>
      <point x="35.5703" y="-315.891" type="curve" smooth="yes"/>
      <point x="34.8281" y="-312.473"/>
      <point x="34.748" y="-309"/>
      <point x="34.748" y="-307.219" type="curve" smooth="yes"/>
      <point x="34.748" y="-302.189"/>
      <point x="35.0957" y="-296.873"/>
      <point x="35.5762" y="-290.846" type="curve" smooth="yes"/>
      <point x="38.9932" y="-252.584"/>
      <point x="39.9824" y="-222.933"/>
      <point x="39.9824" y="-196.131" type="curve" smooth="yes"/>
      <point x="39.9824" y="-147.075"/>
      <point x="36.4287" y="-107.088"/>
      <point x="36.4287" y="-45.0811" type="curve" smooth="yes"/>
      <point x="36.4287" y="-40.0859"/>
      <point x="36.4492" y="-34.9424"/>
      <point x="36.501" y="-29.6533" type="curve" smooth="yes"/>
      <point x="36.5586" y="-23.9287"/>
      <point x="36.5889" y="-18.2285"/>
      <point x="36.5889" y="-12.5703" type="curve" smooth="yes"/>
      <point x="36.5889" y="40.9639"/>
      <point x="34.1748" y="91.4365"/>
      <point x="34.1748" y="137.112" type="curve" smooth="yes"/>
      <point x="34.1748" y="166.634"/>
      <point x="35.0254" y="194.274"/>
      <point x="38.6777" y="219.489" type="curve" smooth="yes"/>
      <point x="44.4609" y="259.401"/>
      <point x="60.2422" y="316.405"/>
      <point x="98.8516" y="359.549" type="curve" smooth="yes"/>
      <point x="106.042" y="367.583"/>
      <point x="115.63" y="377.593"/>
      <point x="129.086" y="381.122" type="curve" smooth="yes"/>
      <point x="132.372" y="381.934"/>
      <point x="135.119" y="382.187"/>
      <point x="137.758" y="382.187" type="curve" smooth="yes"/>
      <point x="156.881" y="382.187"/>
      <point x="167.135" y="367.813"/>
      <point x="166.995" y="353.415" type="curve" smooth="yes"/>
      <point x="166.995" y="353.415"/>
      <point x="167.216" y="347.912"/>
      <point x="164.855" y="340.508" type="curve" smooth="yes"/>
      <point x="164.581" y="339.646"/>
      <point x="163.643" y="337.084"/>
      <point x="163.297" y="336.243" type="curve" smooth="yes"/>
      <point x="162.213" y="333.611"/>
      <point x="160.968" y="331.05"/>
      <point x="159.031" y="327.742" type="curve" smooth="yes"/>
      <point x="132.264" y="282.007"/>
      <point x="130.65" y="259.87"/>
    </contour>
    <contour>
      <point x="213.456" y="599.76" type="curve" smooth="yes"/>
      <point x="252.495" y="596.817"/>
      <point x="448.504" y="610.582"/>
      <point x="531.588" y="538.009" type="curve" smooth="yes"/>
      <point x="581.257" y="489.016"/>
      <point x="594.029" y="378.438"/>
      <point x="594.029" y="300.626" type="curve" smooth="yes"/>
      <point x="594.029" y="236.55"/>
      <point x="586.062" y="184.516"/>
      <point x="576.541" y="157.996" type="curve" smooth="yes"/>
      <point x="563.351" y="123.49"/>
      <point x="521.708" y="80.6104"/>
      <point x="465.228" y="61.0029" type="curve" smooth="yes"/>
      <point x="394.988" y="30.7773"/>
      <point x="278.071" y="34.7197"/>
      <point x="254.478" y="-4.65723" type="curve" smooth="yes"/>
      <point x="249.715" y="-9.19629"/>
      <point x="248.41" y="-10.1484"/>
      <point x="242.813" y="-12.7441" type="curve" smooth="yes"/>
      <point x="239.265" y="-13.9961"/>
      <point x="231.557" y="-16.5234"/>
      <point x="220.282" y="-16.3496" type="curve" smooth="yes"/>
      <point x="217.74" y="-16.3105"/>
      <point x="207.827" y="-16.4844"/>
      <point x="197.139" y="-12.543" type="curve" smooth="yes"/>
      <point x="186.241" y="-7.24512"/>
      <point x="180.421" y="1.01074"/>
      <point x="180.111" y="10.0098" type="curve" smooth="yes"/>
      <point x="179.82" y="25.3447"/>
      <point x="182.723" y="42.6631"/>
      <point x="190.391" y="61.5576" type="curve" smooth="yes"/>
      <point x="216.178" y="122.448"/>
      <point x="277.985" y="151.358"/>
      <point x="348.402" y="174.271" type="curve" smooth="yes"/>
      <point x="417.126" y="192.449"/>
      <point x="469.164" y="185.119"/>
      <point x="501.708" y="214.42" type="curve" smooth="yes"/>
      <point x="516.111" y="227.015"/>
      <point x="527.02" y="254.303"/>
      <point x="527.02" y="289.44" type="curve" smooth="yes"/>
      <point x="527.02" y="332.381"/>
      <point x="515.138" y="367.222"/>
      <point x="499.391" y="383.406" type="curve" smooth="yes"/>
      <point x="448.319" y="416.543"/>
      <point x="199.537" y="401.439"/>
      <point x="132.321" y="412.273" type="curve" smooth="yes"/>
      <point x="68.7285" y="432.623"/>
      <point x="57.4404" y="476.912"/>
      <point x="50.9209" y="510.345" type="curve" smooth="yes"/>
      <point x="47.9746" y="524.752"/>
      <point x="46.7148" y="539.008"/>
      <point x="46.7148" y="552.737" type="curve" smooth="yes"/>
      <point x="46.7148" y="580.529"/>
      <point x="54.3262" y="606.264"/>
      <point x="66.2979" y="627.88" type="curve" smooth="yes"/>
      <point x="69.6318" y="632.825"/>
      <point x="71.6348" y="635.497"/>
      <point x="76.6201" y="639.524" type="curve" smooth="yes"/>
      <point x="81.5459" y="642.033"/>
      <point x="88.9785" y="644.51"/>
      <point x="98.6436" y="644.51" type="curve"/>
      <point x="105.263" y="643.73"/>
      <point x="111.117" y="644.299"/>
      <point x="120.016" y="640.001" type="curve" smooth="yes"/>
      <point x="122.1" y="638.446"/>
      <point x="125.299" y="635.803"/>
      <point x="128.697" y="631.05" type="curve" smooth="yes"/>
      <point x="140.543" y="595.859"/>
      <point x="164.786" y="606.644"/>
      <point x="211.832" y="600" type="curve" smooth="yes"/>
      <point x="212.383" y="599.939"/>
      <point x="212.925" y="599.859"/>
    </contour>
  </outline>
</glyph>
<glyph name="afii57689" format="2">
  <advance width="786"/>
  <unicode hex="05E9"/>
  <outline>
    <contour>
      <point x="395.96" y="397.645" type="curve"/>
      <point x="284.97" y="195" type="line"/>
      <point x="394.5" y="195" type="line" smooth="yes"/>
      <point x="454.629" y="195"/>
      <point x="496.21" y="216.336"/>
      <point x="521.529" y="247.037" type="curve" smooth="yes"/>
      <point x="562.157" y="331.088"/>
      <point x="617.603" y="403.061"/>
      <point x="621.422" y="408.397" type="curve"/>
      <point x="605.611" y="418.531"/>
      <point x="549.074" y="448.254"/>
      <point x="535.8" y="495.459" type="curve" smooth="yes"/>
      <point x="532.335" y="507.783"/>
      <point x="530.492" y="519.535"/>
      <point x="530.492" y="530.936" type="curve" smooth="yes"/>
      <point x="530.492" y="546.954"/>
      <point x="531.854" y="579.814"/>
      <point x="575.522" y="622.736" type="curve" smooth="yes"/>
      <point x="580.722" y="627.848"/>
      <point x="583.268" y="630.381"/>
      <point x="589.473" y="634.537" type="curve" smooth="yes"/>
      <point x="598.094" y="640.772"/>
      <point x="608.117" y="645.542"/>
      <point x="618.75" y="645.25" type="curve" smooth="yes"/>
      <point x="620.969" y="645.188"/>
      <point x="629.393" y="645.764"/>
      <point x="639.324" y="638.399" type="curve" smooth="yes"/>
      <point x="641.317" y="636.998"/>
      <point x="649.243" y="631.495"/>
      <point x="654.841" y="617.886" type="curve" smooth="yes"/>
      <point x="655.415" y="616.489"/>
      <point x="666.206" y="598.941"/>
      <point x="685.368" y="588.331" type="curve" smooth="yes"/>
      <point x="721.707" y="568.209"/>
      <point x="750.563" y="535.665"/>
      <point x="752.975" y="494.343" type="curve" smooth="yes"/>
      <point x="753.187" y="490.71"/>
      <point x="753.271" y="487.462"/>
      <point x="753.271" y="484.049" type="curve" smooth="yes"/>
      <point x="753.271" y="449.177"/>
      <point x="742.412" y="424.495"/>
      <point x="719.188" y="396.84" type="curve" smooth="yes"/>
      <point x="717.5" y="394.83"/>
      <point x="709.066" y="384.364"/>
      <point x="700.42" y="378.685" type="curve" smooth="yes"/>
      <point x="696.173" y="375.896"/>
      <point x="690.526" y="373.385"/>
      <point x="683.95" y="373.385" type="curve" smooth="yes"/>
      <point x="683.33" y="373.385"/>
      <point x="681.746" y="373.52"/>
      <point x="680.43" y="373.672" type="curve"/>
      <point x="647.968" y="329.948"/>
      <point x="618.547" y="259.869"/>
      <point x="585.573" y="153.664" type="curve" smooth="yes"/>
      <point x="567.261" y="97.7471"/>
      <point x="547.351" y="0"/>
      <point x="394.5" y="0" type="curve" smooth="yes"/>
      <point x="131.5" y="0" type="line" smooth="yes"/>
      <point x="114.857" y="0"/>
      <point x="99" y="9.59668"/>
      <point x="99" y="30.8203" type="curve" smooth="yes"/>
      <point x="99" y="51.1748"/>
      <point x="97.666" y="91.0527"/>
      <point x="95.082" y="117.415" type="curve" smooth="yes"/>
      <point x="85.9531" y="210.531"/>
      <point x="78.959" y="200.777"/>
      <point x="79.0039" y="270.834" type="curve" smooth="yes"/>
      <point x="79.0303" y="312.514"/>
      <point x="95.7939" y="356.643"/>
      <point x="107.836" y="393.396" type="curve" smooth="yes"/>
      <point x="109.508" y="398.498"/>
      <point x="110.183" y="402.061"/>
      <point x="110.078" y="404.178" type="curve" smooth="yes"/>
      <point x="110.048" y="404.78"/>
      <point x="110.021" y="405.228"/>
      <point x="109.987" y="405.58" type="curve"/>
      <point x="89.1309" y="413.575"/>
      <point x="72.999" y="425.019"/>
      <point x="61.5752" y="436.886" type="curve" smooth="yes"/>
      <point x="49.0234" y="449.928"/>
      <point x="40.1562" y="467.344"/>
      <point x="36.3213" y="486.649" type="curve" smooth="yes"/>
      <point x="34.252" y="497.068"/>
      <point x="33.25" y="506.897"/>
      <point x="33.25" y="516.354" type="curve" smooth="yes"/>
      <point x="33.25" y="525.809"/>
      <point x="34.0908" y="534.564"/>
      <point x="35.1504" y="542.23" type="curve" smooth="yes"/>
      <point x="38.917" y="569.485"/>
      <point x="49.9971" y="597.098"/>
      <point x="57.6152" y="608.527" type="curve" smooth="yes"/>
      <point x="62.708" y="616.17"/>
      <point x="74.2021" y="635.456"/>
      <point x="90.5107" y="642.072" type="curve" smooth="yes"/>
      <point x="95.1133" y="644.041"/>
      <point x="99.2549" y="644.896"/>
      <point x="102.998" y="644.698" type="curve" smooth="yes"/>
      <point x="104.855" y="644.601"/>
      <point x="111.587" y="645.055"/>
      <point x="120.46" y="639.352" type="curve" smooth="yes"/>
      <point x="130.291" y="633.494"/>
      <point x="137.595" y="622.816"/>
      <point x="140.601" y="618.022" type="curve" smooth="yes"/>
      <point x="146.226" y="609.053"/>
      <point x="158.614" y="598.707"/>
      <point x="179.69" y="593.992" type="curve" smooth="yes"/>
      <point x="194.783" y="590.617"/>
      <point x="241.172" y="578.35"/>
      <point x="266.875" y="529.471" type="curve" smooth="yes"/>
      <point x="272.021" y="519.684"/>
      <point x="278.526" y="502.244"/>
      <point x="278.526" y="475.021" type="curve" smooth="yes"/>
      <point x="278.526" y="461.689"/>
      <point x="277.029" y="447.888"/>
      <point x="273.583" y="434.819" type="curve" smooth="yes"/>
      <point x="272.529" y="430.825"/>
      <point x="267.647" y="409.875"/>
      <point x="257.254" y="397.113" type="curve" smooth="yes"/>
      <point x="247.751" y="385.444"/>
      <point x="236.067" y="384.005"/>
      <point x="230.77" y="384.005" type="curve" smooth="yes"/>
      <point x="224.011" y="384.005"/>
      <point x="218.271" y="386.013"/>
      <point x="213.87" y="388.271" type="curve" smooth="yes"/>
      <point x="197.084" y="396.884"/>
      <point x="184.593" y="396.262"/>
      <point x="181.355" y="396.155" type="curve" smooth="yes"/>
      <point x="180.09" y="396.114"/>
      <point x="178.328" y="395.774"/>
      <point x="174.661" y="387.524" type="curve" smooth="yes"/>
      <point x="174.349" y="386.824"/>
      <point x="173.546" y="384.901"/>
      <point x="172.424" y="381.76" type="curve" smooth="yes"/>
      <point x="159.393" y="345.241"/>
      <point x="157.406" y="339.01"/>
      <point x="157.406" y="328.343" type="curve" smooth="yes"/>
      <point x="157.406" y="322.311"/>
      <point x="158.566" y="315.093"/>
      <point x="160.967" y="304.172" type="curve" smooth="yes"/>
      <point x="168.751" y="268.771"/>
      <point x="191.869" y="239.609"/>
      <point x="197.808" y="195.016" type="curve"/>
      <point x="203.5" y="195" type="line" smooth="yes"/>
      <point x="205.5" y="195"/>
      <point x="205.905" y="195"/>
      <point x="207.478" y="198.277" type="curve" smooth="yes"/>
      <point x="332.872" y="436.802" type="line"/>
      <point x="333.693" y="438.822" type="line"/>
      <point x="302.5" y="459.451"/>
      <point x="289.373" y="486.88"/>
      <point x="288.132" y="521.963" type="curve" smooth="yes"/>
      <point x="288.1" y="522.894"/>
      <point x="288.057" y="525.717"/>
      <point x="288.057" y="526.648" type="curve" smooth="yes"/>
      <point x="288.057" y="541.069"/>
      <point x="287.041" y="579.412"/>
      <point x="332.838" y="622.855" type="curve" smooth="yes"/>
      <point x="338.144" y="627.889"/>
      <point x="340.461" y="630.38"/>
      <point x="346.666" y="634.537" type="curve" smooth="yes"/>
      <point x="355.287" y="640.772"/>
      <point x="365.31" y="645.542"/>
      <point x="376.739" y="645.25" type="curve" smooth="yes"/>
      <point x="379.144" y="645.188"/>
      <point x="388.275" y="645.764"/>
      <point x="399.04" y="638.399" type="curve" smooth="yes"/>
      <point x="401.201" y="637.029"/>
      <point x="409.725" y="631.75"/>
      <point x="415.812" y="618.451" type="curve" smooth="yes"/>
      <point x="416.255" y="617.483" type="line"/>
      <point x="416.55" y="616.475" type="line" smooth="yes"/>
      <point x="417.163" y="615.033"/>
      <point x="417.002" y="615.788"/>
      <point x="417.002" y="615.788" type="curve"/>
      <point x="417.002" y="615.788"/>
      <point x="417.357" y="615.219"/>
      <point x="417.682" y="614.744" type="curve" smooth="yes"/>
      <point x="425.953" y="602.665"/>
      <point x="440.573" y="592.973"/>
      <point x="447.76" y="589.501" type="curve" smooth="yes"/>
      <point x="488.522" y="569.812"/>
      <point x="518.416" y="537.833"/>
      <point x="521.132" y="497.774" type="curve" smooth="yes"/>
      <point x="521.435" y="493.317"/>
      <point x="521.74" y="489.194"/>
      <point x="521.74" y="484.985" type="curve" smooth="yes"/>
      <point x="521.74" y="451.897"/>
      <point x="509.262" y="429.074"/>
      <point x="484.769" y="402.509" type="curve" smooth="yes"/>
      <point x="478.687" y="395.913"/>
      <point x="464.415" y="379.741"/>
      <point x="446.769" y="374.915" type="curve" smooth="yes"/>
      <point x="442.694" y="373.802"/>
      <point x="439.38" y="373.202"/>
      <point x="436.092" y="373.441" type="curve" smooth="yes"/>
      <point x="433.969" y="373.596"/>
      <point x="425.852" y="373.059"/>
      <point x="416.766" y="379.234" type="curve" smooth="yes"/>
      <point x="415.697" y="379.962"/>
      <point x="412.849" y="382.348"/>
      <point x="411.952" y="383.229" type="curve" smooth="yes"/>
      <point x="405.002" y="390.043"/>
      <point x="401.424" y="393.922"/>
    </contour>
  </outline>
</glyph>
